# Blender v2.90.0 OBJ File: ''
# www.blender.org
mtllib BrokenPillar2.mtl
o Pillar2_Cube.011
v -0.653465 4.267171 0.284468
v -1.108775 4.260168 0.053235
v -0.892022 5.056657 0.778574
v 0.639910 1.776409 0.963084
v 0.834703 1.776407 0.476532
v 1.078832 2.236784 0.553762
v 0.833833 2.247990 1.168778
v -0.184692 1.776408 -1.086617
v -0.849826 1.776409 -0.798254
v -1.039799 2.228824 -1.050259
v -0.203257 2.227701 -1.412979
v 0.283763 1.776408 -0.893398
v 0.385838 2.234059 -1.169187
v 0.746816 1.776408 -0.693575
v 0.968313 2.233186 -0.917933
v -0.023500 1.776407 1.248241
v 0.455148 1.953828 1.472072
v -0.000292 2.249683 1.527502
v -0.492041 1.776407 1.047952
v -0.589798 2.236112 1.272148
v -0.044260 4.278501 -1.160031
v -0.635283 4.068034 -0.717831
v -0.259304 3.919161 -0.706239
v -0.886727 4.185243 -0.394565
v -0.461263 4.104524 -0.093446
v 0.938872 4.552357 -0.760227
v 1.233923 2.213294 -0.802618
v 0.794776 4.562669 -0.820304
v 0.966423 5.064236 0.492739
v 0.498758 5.019112 0.314028
v 0.351987 4.658689 0.733374
v 0.812227 4.749803 0.914859
v 0.006958 4.387914 0.278496
v -0.205880 4.276781 0.572049
v 1.088175 4.483735 -0.081385
v 0.617547 4.453231 -0.266267
v 0.195857 3.982914 -0.437965
v 1.317294 2.236115 -0.055659
v 1.425570 2.213301 -0.339722
v 1.156375 4.501980 -0.299056
v 0.386833 4.194379 -1.001235
v -0.966247 1.776407 0.850481
v -1.186132 2.230250 1.023053
v 0.739163 0.770056 -0.688435
v 0.893488 1.776408 -0.628329
v 0.887403 0.770056 -0.623197
v 0.012742 4.683391 1.200280
v -0.473793 4.550928 0.948096
v -0.500406 0.767309 1.048001
v -0.983767 1.069122 0.817008
v -0.029887 0.770056 1.249736
v 0.241332 0.946141 1.035272
v 0.280858 0.770213 -0.892204
v -0.100297 0.893429 -1.148026
v 0.444652 0.732777 0.411882
v 0.463297 0.742221 0.974410
v 1.017531 0.770056 -0.004689
v 1.024263 1.776408 -0.007846
v -0.322515 1.039301 -0.875638
v -0.375205 1.136635 -0.517722
v -0.565720 1.054028 -0.146451
v -1.034951 1.944963 -0.292200
v -0.707452 0.943531 0.269433
v -1.245284 1.776408 0.167884
v 0.733976 0.087981 -0.684951
v 0.883271 0.087982 -0.619729
v 1.084939 1.776408 -0.165944
v -1.286554 2.295229 -0.436115
v -1.537124 2.230139 0.164731
v 1.078616 0.770056 -0.163293
v 0.440103 0.050703 0.413476
v 0.223154 0.086646 1.012726
v 1.074326 0.087982 -0.161485
v 1.012969 0.087981 -0.002550
v -1.041245 -0.862663 0.214115
v -0.954217 -0.491557 0.734392
v -1.037363 -0.240610 0.497666
v -0.990308 -0.779856 0.128260
v -0.888869 -0.865185 -0.313792
v -0.879677 -0.774221 -0.325558
v 0.728789 -0.594093 -0.681467
v 0.878941 -0.594092 -0.616351
v 0.070727 0.191914 -1.069699
v 0.268758 0.087924 -0.883050
v -0.034216 0.087981 1.250750
v -0.341451 0.101144 1.209862
v -0.631845 0.122890 1.035822
v -0.545099 -9.466743 0.957592
v -0.456377 -0.579414 1.038229
v -0.873719 -9.478459 0.722477
v -0.067910 -9.552402 1.131511
v -0.041687 -0.579377 1.240717
v 0.305719 -9.585757 1.122702
v 0.226369 -0.548756 1.148771
v 0.212320 -9.466743 -0.947121
v 0.254448 -0.597469 -0.882628
v 0.688498 -9.466743 -0.757766
v -0.247522 -9.352313 -1.074646
v -0.044266 -0.508045 -1.015119
v -0.694531 -9.148000 -1.153603
v -0.679089 -0.892656 -1.181473
v 0.785967 -9.466743 0.383945
v 0.818894 -0.594093 0.482070
v 0.623252 -0.593950 0.963737
v 0.570761 -9.549699 0.816611
v 0.975322 -9.466743 -0.092234
v 1.008405 -0.594093 -0.000411
v -1.118746 -9.466743 -0.373474
v -0.808312 -0.939272 -0.759245
v -0.913055 -9.352313 -0.787822
v -1.160542 -9.478459 0.056944
v -1.086433 -9.499381 0.451418
v 1.037804 -9.466743 -0.249362
v 1.069953 -0.594092 -0.159458
v -0.974831 -0.428884 0.291416
v -0.697987 0.045824 0.635791
v -0.825979 -0.886943 -0.709369
v -0.734989 -0.604864 -1.066150
v -0.309208 0.048740 -0.470103
v -0.146748 0.067941 -0.859126
v -0.559601 0.088793 0.423159
v -0.578361 0.112276 -0.064196
v -0.574168 -0.376739 -0.571986
v -0.329969 -0.385715 -0.908603
v -0.811643 -0.318801 0.010274
v 0.845759 -9.466743 -0.695232
vt 0.963942 0.369816
vt 0.972728 0.376165
vt 0.952196 0.386761
vt 0.929098 0.276608
vt 0.939968 0.275322
vt 0.940921 0.285758
vt 0.928807 0.287113
vt 0.839182 0.284046
vt 0.854689 0.285117
vt 0.854512 0.295373
vt 0.836806 0.296829
vt 0.981393 0.272446
vt 0.992303 0.271747
vt 0.995692 0.283153
vt 0.982762 0.283793
vt 0.970346 0.273512
vt 0.970778 0.285292
vt 0.911092 0.278071
vt 0.920395 0.282277
vt 0.913396 0.288174
vt 0.900732 0.279035
vt 0.902102 0.288741
vt 0.986969 0.345512
vt 0.982995 0.359974
vt 0.978889 0.353507
vt 0.979228 0.367922
vt 0.969922 0.362408
vt 0.969478 0.328255
vt 0.965787 0.285899
vt 0.972396 0.328544
vt 0.940329 0.338503
vt 0.947225 0.344751
vt 0.943035 0.354584
vt 0.933980 0.348289
vt 0.956887 0.356785
vt 0.954136 0.364166
vt 0.954999 0.330068
vt 0.961923 0.339015
vt 0.971372 0.348330
vt 0.954541 0.327275
vt 0.952851 0.285855
vt 0.957944 0.285861
vt 0.958831 0.327373
vt 0.971742 0.330442
vt 0.979522 0.339336
vt 0.890221 0.280917
vt 0.891334 0.290733
vt 0.968410 0.251067
vt 0.966768 0.274078
vt 0.964770 0.251350
vt 0.938233 0.366449
vt 0.948263 0.373378
vt 0.898023 0.256899
vt 0.886901 0.265686
vt 0.910052 0.255801
vt 0.918048 0.259510
vt 0.979616 0.250264
vt 0.989938 0.252340
vt 0.934752 0.252299
vt 0.922945 0.254730
vt 0.949883 0.252426
vt 0.951082 0.274929
vt 0.845585 0.266836
vt 0.854248 0.267043
vt 0.863593 0.264731
vt 0.865734 0.286117
vt 0.873443 0.262031
vt 0.875700 0.283170
vt 0.967408 0.235725
vt 0.963731 0.235967
vt 0.954811 0.275102
vt 0.869677 0.330251
vt 0.865926 0.294580
vt 0.876580 0.292721
vt 0.879437 0.329819
vt 0.861488 0.329774
vt 0.934677 0.333309
vt 0.917645 0.333335
vt 0.943577 0.338976
vt 0.897828 0.343224
vt 0.981025 0.321889
vt 0.990048 0.323770
vt 0.906492 0.332281
vt 0.847947 0.337695
vt 0.953725 0.252172
vt 0.932718 0.238133
vt 0.917768 0.239015
vt 0.952498 0.236674
vt 0.948623 0.236925
vt 0.871841 0.216004
vt 0.884263 0.224733
vt 0.878737 0.229225
vt 0.869740 0.218150
vt 0.859302 0.216542
vt 0.859014 0.218606
vt 0.966535 0.220308
vt 0.962830 0.220497
vt 0.984976 0.237076
vt 0.978796 0.235018
vt 0.909129 0.239430
vt 0.901537 0.240136
vt 0.892869 0.241126
vt 0.889004 0.021926
vt 0.897285 0.223467
vt 0.879881 0.021916
vt 0.900373 0.019657
vt 0.907993 0.223309
vt 0.908768 0.018607
vt 0.914551 0.223614
vt 0.971564 0.018909
vt 0.978164 0.219590
vt 0.959980 0.019368
vt 0.982454 0.021074
vt 0.985594 0.221212
vt 0.992900 0.025285
vt 1.000085 0.211929
vt 0.929782 0.020593
vt 0.935849 0.221752
vt 0.924139 0.221583
vt 0.918335 0.019092
vt 0.941362 0.020136
vt 0.947715 0.221278
vt 0.853177 0.022908
vt 0.849194 0.214783
vt 0.842889 0.025888
vt 0.863055 0.022345
vt 0.872221 0.021638
vt 0.839530 0.216477
vt 0.833502 0.030854
vt 0.945193 0.019985
vt 0.951566 0.221102
vt 0.873776 0.226082
vt 0.882064 0.239191
vt 0.850373 0.215960
vt 0.843454 0.221145
vt 0.851522 0.241756
vt 0.841384 0.243177
vt 0.875594 0.241236
vt 0.863815 0.241790
vt 0.837377 0.263622
vt 0.851265 0.229423
vt 0.840688 0.230720
vt 0.866551 0.229771
vt 0.834596 0.247351
vt 0.833502 0.230980
vt 0.956150 0.019520
vn 0.3648 0.5707 -0.7357
vn 0.8122 -0.4817 0.3292
vn 0.8141 -0.4853 0.3189
vn 0.8131 -0.4836 0.3239
vn -0.3295 -0.5617 -0.7589
vn 0.3283 -0.5417 -0.7738
vn 0.3235 -0.5431 -0.7749
vn 0.3281 -0.5418 -0.7738
vn 0.3329 -0.5404 -0.7727
vn 0.1054 -0.0240 0.9941
vn -0.3410 -0.4691 0.8146
vn -0.3447 -0.4670 0.8143
vn -0.3411 -0.4691 0.8146
vn 0.7438 -0.4996 0.4441
vn 0.2548 0.6957 0.6716
vn 0.3244 0.9347 -0.1450
vn 0.1907 0.9647 -0.1819
vn 0.3968 0.0673 -0.9154
vn -0.3185 0.7918 0.5211
vn -0.7009 0.7044 0.1124
vn -0.1784 0.9670 -0.1818
vn 0.2015 0.7157 -0.6687
vn -0.5743 0.5841 -0.5736
vn -0.0512 0.9070 -0.4179
vn 0.9387 0.1020 0.3292
vn -0.7046 0.7090 -0.0285
vn -0.1840 0.8867 0.4242
vn -0.3374 -0.4712 0.8149
vn 0.4016 -0.0083 -0.9158
vn 0.4029 -0.0062 -0.9152
vn 0.4046 -0.0074 -0.9145
vn 0.4031 -0.0074 -0.9151
vn -0.1348 0.9795 -0.1498
vn -0.2333 0.8514 -0.4699
vn 0.6104 0.6550 -0.4453
vn -0.4114 -0.0115 0.9114
vn -0.3936 0.0036 0.9193
vn 0.0915 -0.2199 0.9712
vn 0.4001 -0.0093 -0.9164
vn 0.4012 -0.0050 -0.9160
vn 0.4722 0.0484 -0.8802
vn 0.9510 -0.2635 0.1620
vn 0.7562 -0.1654 0.6331
vn 0.3143 -0.5445 -0.7776
vn -0.8107 -0.5841 0.0395
vn -0.7806 -0.5591 -0.2794
vn -0.7388 -0.4969 -0.4552
vn 0.3977 -0.0091 -0.9175
vn 0.4003 -0.0074 -0.9163
vn 0.6880 -0.2718 0.6729
vn -0.0680 0.9888 0.1326
vn 0.8068 -0.4878 0.3334
vn -0.8958 0.1820 -0.4054
vn -0.8398 0.2304 -0.4915
vn 0.3608 0.1097 0.9262
vn 0.9633 0.0693 0.2592
vn 0.9278 0.0452 0.3703
vn -0.9520 0.1607 0.2605
vn 0.3713 0.0814 -0.9249
vn 0.3744 0.0719 -0.9245
vn 0.3712 0.0822 -0.9249
vn 0.3762 0.0723 -0.9237
vn -0.4376 0.1338 0.8892
vn -0.3230 0.1294 0.9375
vn -0.5033 0.1994 -0.8408
vn 0.8140 -0.4854 0.3188
vn 0.9332 -0.0050 0.3593
vn 0.9334 -0.0050 0.3589
vn -0.8138 -0.5460 -0.1992
vn -0.7091 -0.5581 -0.4310
vn -0.7963 -0.5098 0.3256
vn 0.7640 -0.2450 0.5970
vn 0.9329 -0.0050 0.3601
vn -0.9970 -0.0266 0.0720
vn -0.9492 0.1859 -0.2537
vn 0.3951 -0.0078 -0.9186
vn 0.3991 -0.0074 -0.9169
vn 0.5879 -0.0017 0.8089
vn 0.9994 -0.0067 -0.0330
vn 0.6120 0.0203 -0.7906
vn 0.3950 -0.0109 -0.9186
vn 0.6540 -0.0201 0.7562
vn -0.2958 0.0811 0.9518
vn -0.4386 0.0725 0.8958
vn -0.5465 -0.0041 0.8375
vn -0.3894 -0.0073 0.9210
vn 0.1551 -0.0070 0.9879
vn 0.3800 0.0056 -0.9250
vn 0.3818 0.0060 -0.9242
vn 0.3817 0.0060 -0.9243
vn 0.3248 0.0021 -0.9458
vn 0.2213 -0.0010 -0.9752
vn 0.9124 -0.0100 0.4091
vn 0.9304 -0.0073 0.3664
vn 0.9312 -0.0065 0.3644
vn 0.9300 -0.0074 0.3675
vn -0.9489 0.0203 -0.3150
vn -0.9799 0.0224 -0.1983
vn -0.9854 0.0098 0.1698
vn -0.9156 0.0066 -0.4020
vn 0.9309 -0.0072 0.3652
vn 0.9318 -0.0061 0.3629
vn 0.5958 -0.0068 0.8031
vn -0.7864 -0.0079 0.6177
vn -0.8278 0.2661 -0.4939
vn -0.9311 -0.2974 0.2112
vn -0.9532 -0.0625 -0.2958
vn -0.9876 -0.0169 -0.1561
vn -0.9572 -0.1206 -0.2631
vn -0.8699 -0.1942 -0.4534
vn -0.9846 -0.0935 -0.1479
vn -0.8588 -0.0552 -0.5093
vn -0.5451 -0.1349 -0.8275
vn -0.7243 0.6848 -0.0804
vn -0.8362 0.4384 -0.3295
vn -0.9136 0.2781 -0.2966
vn -0.7304 -0.1886 -0.6564
vn -0.7659 0.4599 -0.4492
vn -0.8227 0.5657 -0.0563
vn -0.5440 0.6769 -0.4958
vn -0.7737 0.4680 -0.4270
vn -0.5287 0.1330 -0.8383
vn -0.8314 0.4550 0.3191
vn -0.5271 -0.1288 0.8400
vn -0.3195 -0.0980 0.9425
vn 0.5269 0.0801 0.8461
vn 0.3911 -0.0082 -0.9203
vn 0.5159 -0.0820 -0.8527
vn -0.0015 0.4748 -0.8801
vn 0.8000 0.5045 0.3248
vn 0.7351 0.2411 0.6337
vn 0.7421 0.3974 0.5397
vn -0.9473 -0.3185 0.0346
vn 0.9217 -0.0036 -0.3879
vn 0.9206 0.0003 -0.3906
vn 0.9217 -0.0035 -0.3879
vn 0.6962 -0.6575 -0.2882
vn 0.9103 0.1181 -0.3966
vn 0.9236 -0.0072 -0.3832
vn 0.9234 -0.0072 -0.3838
vn 0.9230 -0.0073 -0.3848
vn 0.3835 0.0065 -0.9235
usemtl None.002
s 1
f 1/1/1 2/2/1 3/3/1
f 4/4/2 5/5/3 6/6/4 7/7/2
f 8/8/5 9/9/5 10/10/5 11/11/5
f 12/12/6 8/13/7 11/14/7 13/15/8
f 14/16/9 12/12/6 13/15/8 15/17/9
f 16/18/10 17/19/10 7/7/10 18/20/10
f 19/21/11 16/18/12 18/20/12 20/22/13
f 17/19/14 4/4/14 7/7/14
f 21/23/15 22/24/15 23/25/15
f 23/25/16 22/24/16 24/26/16 25/27/16
f 25/27/17 24/26/17 2/2/17 1/1/17
f 26/28/18 27/29/18 15/17/18 28/30/18
f 29/31/19 30/32/19 31/33/19 32/34/19
f 30/32/20 33/35/20 34/36/20 31/33/20
f 33/35/21 25/27/21 1/1/21 34/36/21
f 35/37/22 36/38/22 30/32/22 29/31/22
f 36/38/23 37/39/23 33/35/23 30/32/23
f 37/39/24 23/25/24 25/27/24 33/35/24
f 35/40/25 38/41/25 39/42/25 40/43/25
f 28/44/26 41/45/26 37/39/26 36/38/26
f 41/45/27 21/23/27 23/25/27 37/39/27
f 42/46/28 19/21/11 20/22/13 43/47/28
f 44/48/29 14/16/30 45/49/31 46/50/32
f 32/34/33 31/33/33 47/51/33
f 31/33/34 34/36/34 48/52/34 47/51/34
f 34/36/35 1/1/35 3/3/35 48/52/35
f 49/53/36 19/21/36 42/46/36 50/54/36
f 51/55/37 16/18/37 19/21/37 49/53/37
f 52/56/38 17/19/38 16/18/38 51/55/38
f 53/57/39 12/12/40 14/16/30 44/48/29
f 54/58/41 8/13/41 12/12/41 53/57/41
f 55/59/42 5/5/42 4/4/42 56/60/42
f 57/61/43 58/62/43 5/5/43 55/59/43
f 45/49/44 14/16/44 15/17/44 27/29/44
f 9/9/45 59/63/45 60/64/45
f 9/9/46 60/64/46 61/65/46 62/66/46
f 62/66/47 61/65/47 63/67/47 64/68/47
f 65/69/48 44/48/29 46/50/32 66/70/49
f 56/60/50 4/4/50 17/19/50 52/56/50
f 40/43/51 26/28/51 28/44/51 36/38/51 35/37/51
f 58/62/52 67/71/52 39/42/52 38/41/52
f 24/72/53 68/73/53 69/74/53 2/75/53
f 22/76/54 10/10/54 68/73/54 24/72/54
f 32/77/55 47/78/55 18/20/55 7/7/55
f 29/79/56 6/6/56 38/41/56 35/40/56
f 32/77/57 7/7/57 6/6/57 29/79/57
f 2/75/58 69/74/58 43/47/58 3/80/58
f 41/81/59 13/15/60 11/14/61 21/82/61
f 28/30/62 15/17/62 13/15/60 41/81/59
f 47/78/63 48/83/63 20/22/63 18/20/63
f 3/80/64 43/47/64 20/22/64 48/83/64
f 21/84/65 11/11/65 10/10/65 22/76/65
f 5/5/3 58/62/66 38/41/66 6/6/4
f 70/85/67 67/71/68 58/62/68 57/61/67
f 9/9/69 62/66/69 68/73/69 10/10/69
f 62/66/70 64/68/70 69/74/70 68/73/70
f 64/68/71 42/46/71 43/47/71 69/74/71
f 71/86/72 56/60/72 52/56/72 72/87/72
f 73/88/73 70/85/67 57/61/67 74/89/73
f 75/90/74 76/91/74 77/92/74 78/93/74
f 79/94/75 75/90/75 78/93/75 80/95/75
f 81/96/76 65/69/48 66/70/49 82/97/77
f 74/89/78 57/61/78 55/59/78 71/86/78
f 71/86/79 55/59/79 56/60/79
f 83/98/80 54/58/80 53/57/80 84/99/80
f 84/99/81 53/57/39 44/48/29 65/69/48
f 72/87/82 52/56/82 51/55/82 85/100/82
f 85/100/83 51/55/83 49/53/83 86/101/83
f 86/101/84 49/53/84 50/54/84 87/102/84
f 88/103/85 89/104/85 76/91/85 90/105/85
f 91/106/86 92/107/86 89/104/86 88/103/86
f 93/108/87 94/109/87 92/107/87 91/106/87
f 95/110/88 96/111/88 81/96/89 97/112/90
f 98/113/91 99/114/91 96/111/91 95/110/91
f 100/115/92 101/116/92 99/114/92 98/113/92
f 102/117/93 103/118/93 104/119/93 105/120/93
f 106/121/94 107/122/95 103/118/96 102/117/96
f 108/123/97 79/94/97 109/124/97 110/125/97
f 111/126/98 75/90/98 79/94/98 108/123/98
f 112/127/99 76/91/99 75/90/99 111/126/99
f 110/125/100 109/124/100 101/128/100 100/129/100
f 113/130/101 114/131/102 107/122/95 106/121/94
f 105/120/103 104/119/103 94/109/103 93/108/103
f 90/105/104 76/91/104 112/127/104
f 78/93/105 77/92/105 115/132/105
f 87/102/106 50/54/106 116/133/106
f 101/128/107 109/124/107 117/134/107 118/135/107
f 109/124/108 79/94/108 80/95/108 117/134/108
f 119/136/109 60/64/109 59/63/109 120/137/109
f 116/133/110 50/54/110 63/67/110 121/138/110
f 121/138/111 63/67/111 61/65/111 122/139/111
f 122/139/112 61/65/112 60/64/112 119/136/112
f 54/140/113 59/63/113 9/9/113 8/8/113
f 118/135/114 117/134/114 123/141/114 124/142/114
f 117/134/115 80/95/115 125/143/115 123/141/115
f 80/95/116 78/93/116 115/132/116 125/143/116
f 120/137/117 59/63/117 54/140/117 83/144/117
f 125/143/118 122/139/118 119/136/118 123/141/118
f 115/132/119 121/138/119 122/139/119 125/143/119
f 77/92/120 116/133/120 121/138/120 115/132/120
f 123/141/121 119/136/121 120/137/121 124/142/121
f 124/142/122 120/137/122 83/144/122 99/145/122
f 76/91/123 87/102/123 116/133/123 77/92/123
f 89/104/124 86/101/124 87/102/124 76/91/124
f 92/107/125 85/100/125 86/101/125 89/104/125
f 94/109/126 72/87/126 85/100/126 92/107/126
f 96/111/127 84/99/81 65/69/48 81/96/76
f 99/114/128 83/98/128 84/99/128 96/111/128
f 118/135/129 124/142/129 99/145/129 101/128/129
f 103/118/130 71/86/130 104/119/130
f 107/122/131 74/89/131 71/86/131 103/118/131
f 114/131/102 73/88/73 74/89/73 107/122/95
f 104/119/132 71/86/132 72/87/132 94/109/132
f 64/68/133 63/67/133 50/54/133 42/46/133
f 114/131/134 113/130/135 126/146/135 82/97/136
f 39/42/137 67/71/137 45/49/137 27/29/137
f 40/43/138 39/42/138 27/29/138 26/28/138
f 67/71/139 70/85/140 46/50/140 45/49/139
f 73/88/141 114/131/134 82/97/136 66/70/141
f 70/85/140 73/88/141 66/70/141 46/50/140
f 97/112/90 81/96/89 82/97/142 126/146/142
