# Blender v2.90.0 OBJ File: ''
# www.blender.org
mtllib BrokenPillar1.mtl
o Pillar1_Cube.010
v -0.123601 4.929145 -0.742937
v 0.244054 4.922056 -1.097189
v -0.512233 5.718632 -1.130251
v -1.084955 1.440942 0.313306
v -0.689116 1.440941 0.656801
v -0.865362 2.081606 0.851477
v -1.363267 2.081608 0.419414
v 1.121791 1.440941 0.206002
v 1.067339 1.440942 -0.516903
v 1.343992 2.081608 -0.624864
v 1.412485 2.081607 0.284441
v 0.785717 1.440941 0.585258
v 0.989753 2.081606 0.761489
v 0.445172 1.440941 0.957250
v 0.561400 2.081606 1.229397
v -1.136940 1.440941 -0.406920
v -1.505278 1.618362 -0.028063
v -1.428657 2.081607 -0.486522
v -0.794157 1.440941 -0.783941
v -0.997488 2.081607 -0.960757
v 1.041462 4.940476 0.306033
v 0.816943 4.728503 -0.395750
v 0.682423 4.578337 -0.043764
v 0.594166 4.846528 -0.739845
v 0.170174 4.765575 -0.436382
v 0.341535 5.214332 1.103838
v 0.362870 2.081606 1.441452
v 0.445519 5.224643 0.987390
v -0.851259 5.726211 0.719230
v -0.529149 5.681087 0.335963
v -0.877234 5.320663 0.059864
v -1.199532 5.411777 0.435207
v -0.334401 5.049888 -0.117030
v -0.541988 4.938756 -0.414321
v -0.348746 5.145709 1.022417
v -0.019835 5.115206 0.638373
v 0.280406 4.644305 0.296980
v -0.367881 2.081606 1.276425
v -0.137268 2.081606 1.470809
v -0.165450 5.163954 1.158188
v 0.750152 4.856353 0.661274
v -0.452179 1.440941 -1.167240
v -0.567332 2.081607 -1.442889
v 0.442822 0.434589 0.948334
v 0.335458 1.440941 1.074438
v 0.332605 0.434589 1.067006
v -1.207172 5.345366 -0.413665
v -0.809462 5.212903 -0.790680
v -0.791463 0.431843 -0.791861
v -0.414814 0.733656 -1.172822
v -1.136261 0.434590 -0.413443
v -1.022529 0.610674 -0.086917
v 0.785539 0.434746 0.582124
v 1.152149 0.557962 0.305860
v -0.500202 0.397311 0.309479
v -1.037774 0.406756 0.142735
v -0.294390 0.434589 0.987243
v -0.293615 1.440941 0.994637
v 0.967633 0.703834 0.006645
v 0.646754 0.801168 -0.160435
v 0.358424 0.718562 -0.462107
v 0.649907 1.609496 -0.857654
v 0.011961 0.608064 -0.732310
v 0.284167 1.440941 -1.207155
v 0.441231 -0.247485 0.942292
v 0.330681 -0.247485 1.061966
v -0.164135 1.440941 1.103777
v 0.853497 2.081607 -1.055356
v 0.358881 2.081607 -1.493097
v -0.164567 0.434589 1.096932
v -0.500219 -0.284764 0.304659
v -0.995271 -0.248820 -0.096703
v -0.164869 -0.247485 1.092287
v -0.294916 -0.247485 0.982230
v 0.173619 -1.198129 -1.029538
v -0.346446 -0.827023 -1.117828
v -0.095545 -0.576077 -1.118800
v 0.238038 -1.115322 -0.953277
v 0.622429 -1.200652 -0.712565
v 0.630534 -1.109687 -0.700025
v 0.439639 -0.929559 0.936249
v 0.328909 -0.929559 1.056769
v 1.022097 -0.143553 0.441768
v 0.780857 -0.247543 0.567691
v -1.135799 -0.247485 -0.417865
v -0.996481 -0.234322 -0.694732
v -0.736881 -0.212576 -0.912051
v -0.795065 -8.804770 -0.861163
v -0.796662 -0.914880 -0.747062
v -0.460108 -8.804770 -1.248984
v -1.176479 -8.799539 -0.452710
v -1.123873 -0.914843 -0.421637
v -1.341726 -8.756368 -0.084524
v -1.124856 -0.884222 -0.138252
v 0.756220 -8.804770 0.478662
v 0.785148 -0.932936 0.554032
v 0.421263 -8.804770 0.866483
v 1.091176 -8.804770 0.090841
v 1.008220 -0.843512 0.315238
v 1.426133 -8.804770 -0.296980
v 1.373439 -1.228122 -0.230003
v -0.689334 -8.804770 0.584392
v -0.689167 -0.929559 0.640048
v -1.080114 -0.929416 0.297353
v -1.084166 -8.803003 0.252899
v -0.301514 -8.804770 0.919349
v -0.295442 -0.929559 0.977218
v 0.650489 -8.804770 -0.966893
v 1.016880 -1.274739 -0.490468
v 1.038311 -8.804770 -0.631937
v 0.262668 -8.804770 -1.301849
v -0.125154 -8.804770 -1.636805
v -0.173543 -8.804770 1.029876
v -0.165350 -0.929559 1.087491
v 0.078819 -0.764350 -0.992126
v -0.337266 -0.289641 -0.843435
v 0.975550 -1.222410 -0.523505
v 1.282804 -0.940331 -0.320612
v 0.580135 -0.286727 -0.113689
v 0.894429 -0.267526 0.167292
v -0.181731 -0.246672 -0.643006
v 0.284856 -0.223190 -0.501008
v 0.763227 -0.712205 -0.330626
v 1.001221 -0.721181 0.010406
v 0.290954 -0.654268 -0.745811
v 0.310643 -8.804770 0.994563
vt 0.393898 0.351689
vt 0.402210 0.357983
vt 0.382234 0.367733
vt 0.362842 0.241443
vt 0.373949 0.240530
vt 0.374035 0.254339
vt 0.362065 0.255051
vt 0.426723 0.239774
vt 0.442624 0.239642
vt 0.444933 0.254026
vt 0.427371 0.254656
vt 0.415331 0.239823
vt 0.415642 0.254061
vt 0.404241 0.240123
vt 0.404124 0.254789
vt 0.344173 0.242164
vt 0.353644 0.247075
vt 0.346174 0.255683
vt 0.333480 0.242533
vt 0.334760 0.256097
vt 0.416577 0.328799
vt 0.412428 0.342601
vt 0.408604 0.336288
vt 0.408637 0.350179
vt 0.399807 0.344669
vt 0.400113 0.311835
vt 0.399063 0.255310
vt 0.402968 0.312216
vt 0.371858 0.321063
vt 0.378357 0.327221
vt 0.374115 0.336590
vt 0.365541 0.330340
vt 0.387391 0.339003
vt 0.384587 0.346044
vt 0.386150 0.313267
vt 0.392616 0.322021
vt 0.401506 0.331175
vt 0.385670 0.310576
vt 0.385782 0.254726
vt 0.390940 0.255111
vt 0.389893 0.310758
vt 0.402243 0.313986
vt 0.409535 0.322704
vt 0.322596 0.243663
vt 0.323520 0.257632
vt 0.403785 0.217771
vt 0.400699 0.240446
vt 0.400133 0.217789
vt 0.369242 0.347898
vt 0.378739 0.354778
vt 0.331873 0.219741
vt 0.320122 0.228149
vt 0.344251 0.219216
vt 0.352271 0.223430
vt 0.414886 0.217831
vt 0.424465 0.220640
vt 0.369721 0.216897
vt 0.357524 0.218768
vt 0.385073 0.217893
vt 0.385190 0.240550
vt 0.285576 0.244864
vt 0.279601 0.226273
vt 0.287590 0.227262
vt 0.296881 0.225905
vt 0.296745 0.247650
vt 0.306810 0.223800
vt 0.307353 0.245495
vt 0.404052 0.202244
vt 0.400290 0.202188
vt 0.388894 0.240831
vt 0.303218 0.310825
vt 0.296161 0.258479
vt 0.307911 0.258247
vt 0.313362 0.310617
vt 0.295149 0.310056
vt 0.283457 0.259293
vt 0.366194 0.316224
vt 0.349610 0.315783
vt 0.374845 0.321887
vt 0.330298 0.324567
vt 0.411670 0.305924
vt 0.420850 0.308049
vt 0.338810 0.314127
vt 0.436278 0.306113
vt 0.388961 0.217868
vt 0.368442 0.202294
vt 0.353012 0.202359
vt 0.388777 0.202068
vt 0.384806 0.202057
vt 0.305925 0.177230
vt 0.318887 0.186188
vt 0.313089 0.190828
vt 0.303788 0.179485
vt 0.292927 0.178057
vt 0.292680 0.180207
vt 0.404464 0.186333
vt 0.400630 0.186257
vt 0.421690 0.205407
vt 0.415726 0.202621
vt 0.344092 0.202352
vt 0.336250 0.202721
vt 0.327311 0.203372
vt 0.333192 -0.000047
vt 0.332530 0.185329
vt 0.321304 -0.000216
vt 0.346145 0.000239
vt 0.343684 0.185595
vt 0.355477 0.001377
vt 0.350480 0.186256
vt 0.421091 0.002143
vt 0.416636 0.186535
vt 0.409156 0.001901
vt 0.433026 0.002380
vt 0.424328 0.188857
vt 0.444933 0.002608
vt 0.439584 0.178619
vt 0.378258 0.000977
vt 0.372682 0.185621
vt 0.360556 0.184677
vt 0.365790 0.000590
vt 0.389930 0.001376
vt 0.384972 0.185949
vt 0.285676 0.001084
vt 0.282358 0.176493
vt 0.273870 0.001801
vt 0.297676 0.000329
vt 0.309681 -0.000419
vt 0.272334 0.177485
vt 0.262067 0.002512
vt 0.393887 0.001508
vt 0.388950 0.186045
vt 0.307987 0.187628
vt 0.316357 0.201065
vt 0.283553 0.177695
vt 0.275010 0.183804
vt 0.286395 0.203379
vt 0.277048 0.204793
vt 0.309754 0.203003
vt 0.298082 0.203361
vt 0.431893 0.223286
vt 0.285435 0.191509
vt 0.276255 0.194132
vt 0.300680 0.191406
vt 0.428317 0.202499
vt 0.431613 0.192066
vt 0.441011 0.185792
vt 0.405198 0.001818
vn 0.5755 0.5707 0.5858
vn -0.6065 -0.3792 0.6989
vn -0.6037 -0.3792 0.7013
vn -0.6038 -0.3792 0.7012
vn 0.9116 -0.4052 -0.0687
vn 0.6898 -0.3879 0.6113
vn 0.6728 -0.3892 0.6292
vn 0.6799 -0.3877 0.6224
vn 0.6795 -0.3877 0.6228
vn -0.9734 -0.0582 -0.2215
vn -0.6850 -0.3876 -0.6169
vn -0.6821 -0.3876 -0.6201
vn -0.6849 -0.3876 -0.6169
vn -0.6738 -0.3960 0.6238
vn -0.7200 0.6937 0.0208
vn 0.0312 0.9340 0.3559
vn 0.1100 0.9644 0.2407
vn 0.7321 0.0785 0.6766
vn -0.3879 0.7918 -0.4717
vn 0.1236 0.7044 -0.6990
vn 0.2317 0.9667 -0.1084
vn 0.5658 0.7157 0.4095
vn 0.7304 0.5837 -0.3546
vn 0.4139 0.9061 0.0876
vn -0.6239 0.0708 0.7783
vn 0.2577 0.7084 -0.6571
vn -0.3408 0.8853 -0.3164
vn -0.6878 -0.3877 -0.6137
vn 0.7336 -0.0083 0.6795
vn 0.7326 -0.0062 0.6806
vn 0.7314 -0.0074 0.6820
vn 0.7325 -0.0074 0.6807
vn 0.1857 0.9795 -0.0783
vn 0.5204 0.8514 -0.0664
vn 0.2207 0.6550 0.7227
vn -0.7262 -0.0115 -0.6874
vn -0.7395 0.0036 -0.6731
vn -0.9476 -0.2199 -0.2318
vn 0.7347 -0.0093 0.6783
vn 0.7339 -0.0050 0.6793
vn 0.6768 0.0484 0.7346
vn -0.4648 -0.2635 0.8453
vn -0.8460 -0.1654 0.5069
vn 0.6724 -0.3894 0.6295
vn 0.2284 -0.5841 -0.7789
vn 0.5198 -0.5591 -0.6459
vn 0.6722 -0.4969 -0.5488
vn 0.7365 -0.0091 0.6764
vn 0.7345 -0.0074 0.6785
vn -0.8612 -0.2718 0.4295
vn -0.1030 0.9888 -0.1077
vn -0.5964 -0.3801 0.7070
vn -0.5961 -0.3802 0.7072
vn -0.6007 -0.3792 0.7038
vn 0.6854 0.1365 -0.7152
vn 0.7375 0.1729 -0.6528
vn -0.9976 0.0577 0.0393
vn -0.5687 0.0501 0.8210
vn -0.6520 0.0293 0.7576
vn 0.0415 0.1090 -0.9932
vn 0.7512 0.0901 0.6538
vn 0.7512 0.0869 0.6543
vn 0.7513 0.0906 0.6537
vn 0.7511 0.0830 0.6549
vn -0.7090 0.0720 -0.7015
vn -0.7686 0.0729 -0.6355
vn 0.9660 0.1666 -0.1976
vn -0.6453 -0.0050 0.7639
vn -0.6449 -0.0050 0.7642
vn 0.5364 -0.4308 -0.7257
vn 0.6531 -0.4333 -0.6210
vn -0.0496 -0.4022 -0.9142
vn -0.8144 -0.2450 0.5261
vn -0.6460 -0.0050 0.7633
vn 0.2587 -0.0266 -0.9656
vn 0.5508 0.1859 -0.8137
vn 0.7432 -0.0078 0.6690
vn 0.7355 -0.0074 0.6775
vn -0.9569 -0.0017 0.2904
vn -0.2964 -0.0067 0.9551
vn 0.5464 0.0203 0.8373
vn 0.7384 -0.0109 0.6743
vn -0.9288 -0.0201 0.3700
vn -0.8023 0.0811 -0.5914
vn -0.7026 0.0725 -0.7079
vn -0.6957 0.0160 -0.7182
vn -0.7193 0.0087 -0.6946
vn -0.9684 0.0162 -0.2489
vn 0.7484 -0.0092 0.6632
vn 0.7429 -0.0070 0.6693
vn 0.7481 -0.0078 0.6636
vn 0.7475 -0.0100 0.6642
vn 0.7990 -0.0043 0.6013
vn -0.6516 -0.0049 0.7586
vn -0.6512 -0.0046 0.7589
vn -0.6511 -0.0051 0.7590
vn -0.6495 -0.0051 0.7604
vn 0.5814 0.0232 -0.8133
vn 0.6144 0.0320 -0.7883
vn 0.4400 0.0543 -0.8963
vn 0.6241 0.0138 -0.7813
vn -0.6501 -0.0050 0.7598
vn -0.6482 -0.0050 0.7615
vn -0.9307 0.0133 0.3655
vn -0.7566 0.0215 -0.6535
vn 0.7379 0.2661 -0.6202
vn 0.1056 -0.2974 -0.9489
vn 0.5919 -0.0625 -0.8036
vn 0.4711 -0.0169 -0.8819
vn 0.5623 -0.1206 -0.8181
vn 0.7135 -0.1942 -0.6732
vn 0.4624 -0.0935 -0.8817
vn 0.7626 -0.0552 -0.6445
vn 0.9604 -0.1349 -0.2438
vn 0.3133 0.6848 -0.6579
vn 0.5853 0.4384 -0.6820
vn 0.5796 0.2781 -0.7659
vn 0.8596 -0.1886 -0.4749
vn 0.6754 0.4599 -0.5764
vn 0.3228 0.5657 -0.7588
vn 0.6467 0.6769 -0.3515
vn 0.6570 0.4680 -0.5911
vn 0.9653 0.1330 -0.2248
vn -0.0291 0.4550 -0.8900
vn -0.6208 -0.1288 -0.7733
vn -0.7857 -0.0980 -0.6108
vn -0.9721 0.0801 0.2205
vn 0.6365 -0.0820 0.7669
vn 0.8320 0.4748 0.2870
vn -0.5690 0.5045 0.6494
vn -0.8396 0.2411 0.4868
vn -0.7531 0.3974 0.5243
vn 0.2778 -0.3185 -0.9063
vn 0.0644 -0.0076 0.9979
vn 0.0673 -0.0077 0.9977
vn 0.0508 -0.4981 0.8656
vn 0.0772 0.1044 0.9915
vn 0.0594 -0.0072 0.9982
vn 0.0600 -0.0072 0.9982
vn 0.0611 -0.0073 0.9981
vn 0.7468 -0.0073 0.6650
usemtl None.003
s 1
f 1/1/1 2/2/1 3/3/1
f 4/4/2 5/5/3 6/6/4 7/7/2
f 8/8/5 9/9/5 10/10/5 11/11/5
f 12/12/6 8/8/6 11/11/6 13/13/6
f 14/14/7 12/12/8 13/13/8 15/15/9
f 16/16/10 17/17/10 7/7/10 18/18/10
f 19/19/11 16/16/12 18/18/12 20/20/13
f 17/17/14 4/4/14 7/7/14
f 21/21/15 22/22/15 23/23/15
f 23/23/16 22/22/16 24/24/16 25/25/16
f 25/25/17 24/24/17 2/2/17 1/1/17
f 26/26/18 27/27/18 15/15/18 28/28/18
f 29/29/19 30/30/19 31/31/19 32/32/19
f 30/30/20 33/33/20 34/34/20 31/31/20
f 33/33/21 25/25/21 1/1/21 34/34/21
f 35/35/22 36/36/22 30/30/22 29/29/22
f 36/36/23 37/37/23 33/33/23 30/30/23
f 37/37/24 23/23/24 25/25/24 33/33/24
f 35/38/25 38/39/25 39/40/25 40/41/25
f 28/42/26 41/43/26 37/37/26 36/36/26
f 41/43/27 21/21/27 23/23/27 37/37/27
f 42/44/28 19/19/11 20/20/13 43/45/28
f 44/46/29 14/14/30 45/47/31 46/48/32
f 32/32/33 31/31/33 47/49/33
f 31/31/34 34/34/34 48/50/34 47/49/34
f 34/34/35 1/1/35 3/3/35 48/50/35
f 49/51/36 19/19/36 42/44/36 50/52/36
f 51/53/37 16/16/37 19/19/37 49/51/37
f 52/54/38 17/17/38 16/16/38 51/53/38
f 53/55/39 12/12/40 14/14/30 44/46/29
f 54/56/41 8/8/41 12/12/41 53/55/41
f 55/57/42 5/5/42 4/4/42 56/58/42
f 57/59/43 58/60/43 5/5/43 55/57/43
f 45/47/44 14/14/7 15/15/9 27/27/44
f 9/61/45 59/62/45 60/63/45
f 9/61/46 60/63/46 61/64/46 62/65/46
f 62/65/47 61/64/47 63/66/47 64/67/47
f 65/68/48 44/46/29 46/48/32 66/69/49
f 56/58/50 4/4/50 17/17/50 52/54/50
f 40/41/51 26/26/51 28/42/51 36/36/51 35/35/51
f 58/60/52 67/70/53 39/40/53 38/39/54
f 24/71/55 68/72/55 69/73/55 2/74/55
f 22/75/56 10/76/56 68/72/56 24/71/56
f 32/77/57 47/78/57 18/18/57 7/7/57
f 29/79/58 6/6/58 38/39/58 35/38/58
f 32/77/59 7/7/59 6/6/59 29/79/59
f 2/74/60 69/73/60 43/45/60 3/80/60
f 41/81/61 13/13/62 11/11/63 21/82/63
f 28/28/64 15/15/64 13/13/62 41/81/61
f 47/78/65 48/83/65 20/20/65 18/18/65
f 3/80/66 43/45/66 20/20/66 48/83/66
f 21/82/67 11/11/67 10/10/67 22/84/67
f 5/5/3 58/60/52 38/39/54 6/6/4
f 70/85/68 67/70/69 58/60/69 57/59/68
f 9/61/70 62/65/70 68/72/70 10/76/70
f 62/65/71 64/67/71 69/73/71 68/72/71
f 64/67/72 42/44/72 43/45/72 69/73/72
f 71/86/73 56/58/73 52/54/73 72/87/73
f 73/88/74 70/85/68 57/59/68 74/89/74
f 75/90/75 76/91/75 77/92/75 78/93/75
f 79/94/76 75/90/76 78/93/76 80/95/76
f 81/96/77 65/68/48 66/69/49 82/97/78
f 74/89/79 57/59/79 55/57/79 71/86/79
f 71/86/80 55/57/80 56/58/80
f 83/98/81 54/56/81 53/55/81 84/99/81
f 84/99/82 53/55/39 44/46/29 65/68/48
f 72/87/83 52/54/83 51/53/83 85/100/83
f 85/100/84 51/53/84 49/51/84 86/101/84
f 86/101/85 49/51/85 50/52/85 87/102/85
f 88/103/86 89/104/86 76/91/86 90/105/86
f 91/106/87 92/107/87 89/104/87 88/103/87
f 93/108/88 94/109/88 92/107/88 91/106/88
f 95/110/89 96/111/90 81/96/77 97/112/91
f 98/113/92 99/114/92 96/111/90 95/110/89
f 100/115/93 101/116/93 99/114/93 98/113/93
f 102/117/94 103/118/94 104/119/95 105/120/95
f 106/121/96 107/122/97 103/118/94 102/117/94
f 108/123/98 79/94/98 109/124/98 110/125/98
f 111/126/99 75/90/99 79/94/99 108/123/99
f 112/127/100 76/91/100 75/90/100 111/126/100
f 110/125/101 109/124/101 101/128/101 100/129/101
f 113/130/102 114/131/103 107/122/97 106/121/96
f 105/120/104 104/119/104 94/109/104 93/108/104
f 90/105/105 76/91/105 112/127/105
f 78/93/106 77/92/106 115/132/106
f 87/102/107 50/52/107 116/133/107
f 101/128/108 109/124/108 117/134/108 118/135/108
f 109/124/109 79/94/109 80/95/109 117/134/109
f 119/136/110 60/63/110 59/62/110 120/137/110
f 116/133/111 50/52/111 63/66/111 121/138/111
f 121/138/112 63/66/112 61/64/112 122/139/112
f 122/139/113 61/64/113 60/63/113 119/136/113
f 54/56/114 59/140/114 9/9/114 8/8/114
f 118/135/115 117/134/115 123/141/115 124/142/115
f 117/134/116 80/95/116 125/143/116 123/141/116
f 80/95/117 78/93/117 115/132/117 125/143/117
f 120/144/118 59/140/118 54/56/118 83/98/118
f 125/143/119 122/139/119 119/136/119 123/141/119
f 115/132/120 121/138/120 122/139/120 125/143/120
f 77/92/121 116/133/121 121/138/121 115/132/121
f 123/141/122 119/136/122 120/137/122 124/142/122
f 124/145/123 120/144/123 83/98/123 99/114/123
f 76/91/124 87/102/124 116/133/124 77/92/124
f 89/104/125 86/101/125 87/102/125 76/91/125
f 92/107/126 85/100/126 86/101/126 89/104/126
f 94/109/127 72/87/127 85/100/127 92/107/127
f 96/111/90 84/99/82 65/68/48 81/96/77
f 99/114/128 83/98/128 84/99/128 96/111/128
f 118/146/129 124/145/129 99/114/129 101/116/129
f 103/118/130 71/86/130 104/119/130
f 107/122/131 74/89/131 71/86/131 103/118/131
f 114/131/103 73/88/74 74/89/74 107/122/97
f 104/119/132 71/86/132 72/87/132 94/109/132
f 64/67/133 63/66/133 50/52/133 42/44/133
f 114/131/134 113/130/135 126/147/135 82/97/134
f 39/40/136 67/70/136 45/47/136 27/27/136
f 40/41/137 39/40/137 27/27/137 26/26/137
f 67/70/138 70/85/139 46/48/139 45/47/138
f 73/88/140 114/131/134 82/97/134 66/69/140
f 70/85/139 73/88/140 66/69/140 46/48/139
f 97/112/91 81/96/77 82/97/141 126/147/141
