# Blender v2.90.0 OBJ File: ''
# www.blender.org
mtllib PlatformGenericSlim.mtl
o Cube.013_Cube.012
v -2.821311 0.299951 -1.410654
v -2.821311 0.299951 1.410656
v -3.000000 0.299951 1.500001
v -3.000000 0.299951 -1.499999
v -2.816656 0.523389 -1.408326
v 2.816656 0.523389 -1.408326
v 2.995048 0.523389 -1.497522
v -2.995048 0.523389 -1.497522
v 2.821314 0.299951 1.410656
v 3.000000 0.299951 1.500001
v 2.821314 0.299951 -1.410654
v 3.000000 0.299951 -1.499999
v -2.865691 -0.476611 -1.432845
v 2.865691 -0.476611 -1.432845
v 2.865691 -0.476611 1.432848
v -2.865691 -0.476611 1.432848
v -2.816656 0.523389 1.408329
v 2.816656 0.523389 1.408329
v 2.858270 -0.346728 1.429137
v -2.858270 -0.346728 1.429137
v 2.858270 -0.346728 -1.429134
v -2.858270 -0.346728 -1.429134
v -2.995048 0.523389 1.497524
v 2.995048 0.523389 1.497524
v 2.985006 -0.467542 -1.492501
v 2.985006 -0.467542 1.492504
v -2.977274 -0.355795 -1.488635
v -2.977274 -0.355795 1.488638
v 2.977274 -0.355795 1.488638
v 2.977274 -0.355795 -1.488635
v -2.985006 -0.467542 1.492504
v -2.985006 -0.467542 -1.492501
vt 0.687686 0.216370
vt 0.662088 0.255108
vt 0.658852 0.252838
vt 0.685274 0.214719
vt 0.558008 0.034814
vt 0.558008 0.163645
vt 0.555757 0.168153
vt 0.555757 0.030309
vt 0.703848 0.376502
vt 0.702266 0.381538
vt 0.782530 0.213425
vt 0.786014 0.211598
vt 0.791941 0.237034
vt 0.791935 0.357751
vt 0.719581 0.356289
vt 0.719587 0.235571
vt 0.624448 0.034986
vt 0.624448 0.163818
vt 0.967367 0.266379
vt 0.982399 0.268133
vt 0.974614 0.402030
vt 0.959480 0.402030
vt 0.976783 0.201515
vt 0.991693 0.204107
vt 0.961315 0.467548
vt 0.976425 0.466701
vt 0.991693 0.599951
vt 0.976783 0.602544
vt 0.653334 0.252007
vt 0.683387 0.211065
vt 0.785811 0.207847
vt 0.786014 0.408682
vt 0.783021 0.417230
vt 0.696853 0.386702
vt 0.626699 0.168322
vt 0.784859 0.400650
vt 0.626699 0.030479
vt 0.793830 0.361240
vt 0.717693 0.359734
vt 0.694363 0.010973
vt 0.646426 0.057546
vt 0.643667 0.054831
vt 0.692356 0.008678
vt 0.794033 0.073984
vt 0.774776 0.027895
vt 0.776855 0.026939
vt 0.796428 0.074110
vt 0.717693 0.232082
vt 0.793830 0.233588
vt 0.691509 0.006241
vt 0.640444 0.053421
vt 0.665561 0.204872
vt 0.661987 0.205650
vt 0.798285 0.073406
vt 0.778233 0.025490
vt 0.667847 0.197664
vn 0.0000 -1.0000 -0.0000
vn 0.0000 1.0000 -0.0000
vn 0.0000 0.0286 0.9996
vn 0.9984 0.0571 0.0000
vn 0.0000 0.0286 -0.9996
vn -0.9984 0.0571 0.0000
vn -0.9998 0.0222 0.0000
vn 0.0000 0.0111 -0.9999
vn 0.9998 0.0222 0.0000
vn 0.0000 0.0111 0.9999
vn 0.0758 -0.9971 -0.0000
vn -0.0760 0.9971 0.0000
vn 0.0760 0.9971 0.0000
vn -0.0758 -0.9971 -0.0000
vn -0.9976 0.0690 0.0000
vn 0.0000 0.0346 -0.9994
vn 0.9976 0.0690 0.0000
vn 0.0000 0.0346 0.9994
vn 0.0000 0.9886 0.1506
vn 0.0000 -0.9886 0.1503
vn 0.0000 0.9886 -0.1506
vn 0.0000 -0.9886 -0.1503
usemtl Material.009
s 1
f 1/1/1 2/2/1 3/3/1 4/4/1
f 5/5/2 6/6/2 7/7/2 8/8/2
f 2/2/1 9/9/1 10/10/1 3/3/1
f 11/11/1 1/1/1 4/4/1 12/12/1
f 13/13/1 14/14/1 15/15/1 16/16/1
f 6/6/2 5/5/2 17/17/2 18/18/2
f 19/19/3 9/20/3 2/21/3 20/22/3
f 21/23/4 11/24/4 9/20/4 19/19/4
f 22/25/5 1/26/5 11/27/5 21/28/5
f 20/22/6 2/21/6 1/26/6 22/25/6
f 3/3/7 23/29/7 8/30/7 4/4/7
f 4/4/8 8/30/8 7/31/8 12/12/8
f 12/32/9 7/33/9 24/34/9 10/10/9
f 10/10/10 24/34/10 23/29/10 3/3/10
f 6/6/2 18/18/2 24/35/2 7/7/2
f 9/9/1 11/36/1 12/32/1 10/10/1
f 17/17/2 5/5/2 8/8/2 23/37/2
f 18/18/2 17/17/2 23/37/2 24/35/2
f 15/15/11 14/14/11 25/38/11 26/39/11
f 20/40/12 22/41/12 27/42/12 28/43/12
f 21/44/13 19/45/13 29/46/13 30/47/13
f 13/13/14 16/16/14 31/48/14 32/49/14
f 31/50/15 28/43/15 27/42/15 32/51/15
f 32/51/16 27/42/16 30/52/16 25/53/16
f 25/54/17 30/47/17 29/46/17 26/55/17
f 26/55/18 29/46/18 28/43/18 31/50/18
f 19/45/19 20/40/19 28/43/19 29/46/19
f 16/16/20 15/15/20 26/39/20 31/48/20
f 22/41/21 21/56/21 30/52/21 27/42/21
f 14/14/22 13/13/22 32/49/22 25/38/22
