# Blender v2.90.0 OBJ File: ''
# www.blender.org
mtllib Wall1.mtl
o wall_Cube.019_Cube.020
v -1.950357 0.870714 -0.016316
v -1.000357 0.870714 -0.016316
v -1.025416 0.895773 0.063595
v -1.925297 0.895773 0.063595
v 0.899643 0.870714 -0.367749
v 0.899643 1.820714 -0.367749
v 1.849643 1.820714 -0.367749
v 1.849643 0.870714 -0.367749
v -1.950357 0.870714 -0.367750
v -1.950357 -0.079286 -0.367750
v -1.950357 -0.079286 -0.016316
v 1.849643 0.870714 -0.016316
v 1.849643 -0.079286 -0.016316
v 1.849643 -0.079286 -0.367749
v 0.899644 -1.979286 -0.016316
v 0.899644 -1.979286 -0.367749
v 1.849644 -1.979286 -0.367749
v 1.849644 -1.979286 -0.016316
v 0.899641 -1.029282 -0.367748
v 0.899643 -0.079286 -0.367749
v 1.849643 -1.029286 -0.367749
v -1.000356 -1.029286 -0.367750
v -1.000357 -0.079286 -0.367750
v -0.050357 -0.079286 -0.367750
v -0.050356 -1.029286 -0.367750
v -1.000357 0.870714 -0.367750
v -1.000357 1.820714 -0.367750
v -0.050357 1.820714 -0.367750
v -0.050357 0.870714 -0.367750
v -1.950356 -1.029286 -0.016316
v -1.923200 -1.002130 0.074214
v -1.923200 -0.106443 0.074214
v -0.050357 1.820714 -0.016316
v -0.039268 0.865625 -0.016299
v -0.015460 0.919753 0.008713
v -0.014785 1.785142 0.011875
v -0.032537 -0.066128 -0.031279
v -0.019581 0.077199 0.135451
v -0.019503 0.810609 0.149122
v 1.837680 0.858751 0.222956
v 1.837680 -0.067323 0.222956
v 1.849643 1.820714 -0.016316
v 0.899643 1.820714 -0.016316
v 0.945511 1.790166 0.118342
v 1.804233 1.790166 0.118342
v 0.850123 -0.963584 0.007717
v 0.805997 -1.017308 0.089812
v 0.851392 -1.931033 0.067780
v 0.919443 -1.959487 0.091740
v 0.869204 -0.982429 0.116123
v 0.899643 -0.079286 -0.016316
v 0.925493 -0.105136 0.045332
v 1.823793 -0.105136 0.045332
v -1.000356 -1.979286 -0.016316
v -1.000356 -1.029286 -0.016316
v -1.042297 -1.071226 0.071091
v -1.042296 -1.937346 0.071091
v -0.975678 -1.954607 0.176831
v -0.975678 -1.053964 0.176831
v -1.000357 -0.079286 -0.016316
v -0.982074 -1.011004 0.034612
v -0.982074 -0.097569 0.034612
v -1.950356 -1.029286 -0.367750
v -1.950356 -1.979286 -0.367750
v -1.950356 -1.979286 -0.016316
v -1.950357 1.820714 -0.367750
v -1.000356 -1.979286 -0.367750
v -0.050356 -1.979286 -0.367750
v 1.849643 -1.029286 -0.016316
v -0.050356 -1.979286 -0.016316
v -1.000357 1.820714 -0.016316
v -1.950357 1.820714 -0.016316
v -0.919938 0.786094 0.113076
v -1.023201 -0.056442 0.088590
v -0.066328 0.861032 0.044780
v -0.054893 -0.122388 0.033399
v -0.077963 1.793108 0.107062
v -0.078111 0.901281 0.106366
v 1.829844 -1.959486 0.091740
v 1.829844 -1.049084 0.091740
v -0.053250 -1.032887 -0.016721
v -0.053323 -1.034535 0.161054
v -0.030030 -0.159278 0.146345
v 0.893261 -0.085668 0.162361
v 0.850810 -0.966580 0.182965
v -0.075034 -1.954607 0.176831
v -0.080283 -1.060494 0.176096
v 1.526647 0.708946 0.232251
v 1.526647 0.385209 0.232251
v 0.911606 -0.067323 0.222956
v 0.899201 0.879531 -0.018387
v 0.911590 0.859067 0.222882
v -0.972751 1.793108 0.107061
v -0.972751 0.898319 0.107061
v -0.881423 0.793268 0.070673
v -0.984686 -0.063615 0.046187
v 0.864071 1.785142 0.011876
v 0.863396 0.919753 0.008713
v 1.804233 0.931446 0.118342
v 0.945512 0.931446 0.118342
v 0.842536 0.813521 0.164521
v 0.831806 0.048452 0.159326
v -0.072119 -1.015333 0.034126
v -0.057947 -0.154007 0.022333
v -1.124104 -0.963698 0.056161
v -1.027513 -0.106443 0.074214
v -1.908416 -1.071226 0.071091
v -1.908416 -1.937346 0.071091
v -1.927512 0.847869 0.088590
v -1.927512 -0.056442 0.088590
v -1.025416 1.795654 0.063595
v -1.925297 1.795654 0.063595
v 1.823794 -1.003436 0.045332
v 0.871821 -0.932224 0.071381
v -0.002105 -1.931034 0.067780
v -0.014255 -1.092653 0.066081
v 1.492163 0.419694 0.232251
v 1.237395 0.419694 0.232251
v 1.237395 0.419694 0.191061
v 1.492163 0.419694 0.191061
v 1.202911 0.385209 0.232251
v 1.202911 0.708946 0.232251
v 1.492163 0.674460 0.232251
v 1.237395 0.674460 0.232251
v 1.526647 0.708946 0.191061
v 1.526647 0.385209 0.191061
v 1.237395 0.674460 0.191061
v 1.202911 0.708946 0.191061
v 1.492163 0.674460 0.191061
v 1.202911 0.385209 0.191061
vt 0.547990 0.548359
vt 0.543034 0.592173
vt 0.540069 0.588992
vt 0.544784 0.549252
vt 0.494502 0.918888
vt 0.492724 0.961101
vt 0.458216 0.954159
vt 0.452228 0.918295
vt 0.638448 0.929324
vt 0.621275 0.924887
vt 0.626252 0.881552
vt 0.643786 0.882566
vt 0.435293 0.920263
vt 0.433711 0.873932
vt 0.451573 0.874348
vt 0.496503 0.773117
vt 0.498522 0.789799
vt 0.462790 0.795682
vt 0.452823 0.782655
vt 0.497699 0.832078
vt 0.495770 0.875748
vt 0.455629 0.829668
vt 0.584541 0.836061
vt 0.582414 0.878954
vt 0.539195 0.877180
vt 0.540945 0.833713
vt 0.579793 0.921315
vt 0.579747 0.963236
vt 0.537231 0.964331
vt 0.537745 0.920441
vt 0.598237 0.546937
vt 0.646067 0.549660
vt 0.644419 0.554515
vt 0.599323 0.551947
vt 0.489614 0.634560
vt 0.535517 0.642044
vt 0.532628 0.643843
vt 0.490183 0.636053
vt 0.537014 0.641289
vt 0.583263 0.648113
vt 0.573357 0.652984
vt 0.541160 0.647866
vt 0.569123 0.747336
vt 0.531441 0.749907
vt 0.531241 0.739994
vt 0.567975 0.737488
vt 0.456219 0.734437
vt 0.468201 0.683385
vt 0.475323 0.687657
vt 0.464493 0.733804
vt 0.661793 0.707334
vt 0.622950 0.696831
vt 0.626284 0.694529
vt 0.661120 0.703858
vt 0.659646 0.710636
vt 0.620030 0.700346
vt 0.576583 0.737261
vt 0.576260 0.698917
vt 0.579648 0.701055
vt 0.577800 0.736100
vt 0.691463 0.612925
vt 0.643025 0.604096
vt 0.647298 0.600866
vt 0.692476 0.607578
vt 0.686246 0.622185
vt 0.645133 0.613423
vt 0.591143 0.599096
vt 0.641470 0.604804
vt 0.638946 0.608830
vt 0.592779 0.601324
vt 0.643786 0.836534
vt 0.626869 0.837938
vt 0.622079 0.801977
vt 0.635599 0.792197
vt 0.611832 0.955535
vt 0.587645 0.793895
vt 0.542562 0.789285
vt 0.437111 0.825876
vt 0.543090 0.771281
vt 0.591934 0.774839
vt 0.582215 0.978532
vt 0.537242 0.981884
vt 0.620852 0.967266
vt 0.489064 0.980080
vt 0.445045 0.964355
vt 0.588970 0.598940
vt 0.544008 0.594911
vt 0.549256 0.592678
vt 0.586538 0.594119
vt 0.538740 0.638652
vt 0.583201 0.645532
vt 0.492563 0.629559
vt 0.532498 0.636410
vt 0.652843 0.746917
vt 0.616562 0.740114
vt 0.652780 0.751611
vt 0.614920 0.744513
vt 0.612888 0.740605
vt 0.615597 0.701818
vt 0.664341 0.710699
vt 0.657242 0.748558
vt 0.583842 0.649565
vt 0.630013 0.655724
vt 0.625957 0.660612
vt 0.589942 0.656177
vt 0.615274 0.702105
vt 0.577822 0.698179
vt 0.581521 0.693143
vt 0.617159 0.696513
vt 0.675635 0.661081
vt 0.638120 0.652254
vt 0.695275 0.623503
vt 0.684083 0.664530
vt 0.631315 0.655504
vt 0.638208 0.609695
vt 0.673239 0.669011
vt 0.632627 0.657686
vt 0.537822 0.726395
vt 0.550498 0.725922
vt 0.568934 0.703239
vt 0.529116 0.691680
vt 0.574338 0.696648
vt 0.533630 0.700032
vt 0.519541 0.741295
vt 0.526499 0.694439
vt 0.499297 0.590808
vt 0.538525 0.596657
vt 0.486673 0.629767
vt 0.493822 0.588625
vt 0.499057 0.585585
vt 0.542098 0.592527
vt 0.543284 0.594162
vt 0.536674 0.640602
vt 0.547287 0.601385
vt 0.587393 0.601646
vt 0.590423 0.599776
vt 0.526825 0.691517
vt 0.476812 0.680044
vt 0.480438 0.678929
vt 0.524766 0.688191
vt 0.511908 0.740644
vt 0.520140 0.696868
vt 0.514508 0.749610
vt 0.459144 0.743548
vt 0.535512 0.685597
vt 0.568036 0.689399
vt 0.629852 0.653648
vt 0.588266 0.647271
vt 0.638690 0.596252
vt 0.594503 0.596001
vt 0.649940 0.552117
vt 0.590508 0.597924
vt 0.595400 0.551623
vt 0.653510 0.555512
vt 0.701036 0.559744
vt 0.709457 0.556565
vt 0.697719 0.611233
vt 0.703620 0.554175
vt 0.552149 0.549615
vt 0.590864 0.553445
vt 0.551643 0.544747
vt 0.592314 0.548771
vt 0.500659 0.582756
vt 0.505969 0.543942
vt 0.505401 0.540050
vt 0.546377 0.545656
vt 0.496768 0.583324
vt 0.502374 0.542349
vt 0.611131 0.739420
vt 0.612799 0.703152
vt 0.611835 0.742080
vt 0.576585 0.738569
vt 0.669339 0.671347
vt 0.635596 0.662300
vt 0.547861 0.723206
vt 0.548094 0.716178
vt 0.548784 0.715511
vt 0.548498 0.723864
vt 0.550939 0.713445
vt 0.538640 0.712694
vt 0.540820 0.723166
vt 0.541125 0.715906
vt 0.538767 0.725386
vt 0.549664 0.725057
vt 0.540526 0.715121
vt 0.539431 0.713702
vt 0.540091 0.723959
vt 0.550037 0.714312
vt 0.673608 0.670470
vt 0.664460 0.706658
vt 0.631987 0.658650
vt 0.527575 0.690361
vt 0.535254 0.643072
vt 0.583048 0.652010
vt 0.575517 0.695336
vt 0.477795 0.680153
vt 0.488329 0.633806
vn 0.0000 -0.9542 0.2992
vn 0.0000 0.0000 -1.0000
vn -1.0000 -0.0000 0.0000
vn 1.0000 0.0000 0.0000
vn 0.0000 -1.0000 -0.0000
vn -0.9578 -0.0000 0.2873
vn -0.6664 -0.0051 0.7456
vn -0.9950 -0.0057 0.0995
vn 0.9988 0.0000 0.0499
vn -0.0000 0.9752 0.2212
vn 0.8732 0.0313 0.4864
vn -0.9828 -0.0535 0.1768
vn -0.0000 0.9222 0.3867
vn 0.9016 0.0000 0.4326
vn -0.9919 -0.0000 0.1267
vn -0.9412 -0.0000 0.3379
vn -0.0000 1.0000 0.0000
vn 0.9665 -0.0522 -0.2513
vn 0.9301 0.0038 0.3673
vn 0.9654 0.0056 0.2606
vn 0.0126 -0.0126 0.9998
vn 0.9836 0.0000 0.1802
vn 0.0706 0.9819 0.1755
vn 0.0000 -0.9836 0.1802
vn -0.9996 0.0241 0.0133
vn 0.9986 -0.0517 0.0147
vn 0.0004 0.0004 1.0000
vn 0.0000 -0.9919 0.1267
vn 0.0055 0.9909 0.1343
vn 0.9911 0.0045 0.1328
vn 0.0299 0.0000 0.9996
vn 0.0000 -0.9988 0.0499
vn -0.9987 -0.0002 0.0506
vn 0.0048 0.9977 0.0673
vn 0.0004 -0.0004 1.0000
vn -0.0000 0.9759 0.2184
vn -0.9759 -0.0000 0.2184
vn -0.0010 -0.9685 0.2490
vn 0.0223 -0.0206 0.9995
vn -0.7359 0.0329 0.6762
vn -0.0273 -0.9519 -0.3052
vn -0.0234 0.8682 0.4956
vn 0.6123 -0.0027 0.7906
vn -0.0000 -0.0000 1.0000
vn 0.9476 0.0000 0.3195
vn -0.9469 -0.0001 0.3216
vn -0.0049 -0.9236 0.3834
vn 0.9443 -0.0062 0.3290
vn 0.0072 0.0066 1.0000
vn 0.9235 -0.0121 0.3833
vn -0.0039 -0.9432 0.3321
vn 0.0263 0.7005 0.7132
vn 0.0109 -0.0109 0.9999
vn 0.0242 -0.8627 0.5052
vn 0.7277 -0.0457 0.6844
vn -0.0000 0.9578 0.2873
vn 0.0000 -0.9016 0.4326
vn -0.0000 0.9016 0.4326
vn -0.9016 -0.0000 0.4326
vn -0.0132 -0.0132 0.9998
vn 0.0237 0.9126 0.4081
vn -0.9771 -0.0000 0.2128
vn 0.0000 -0.9771 0.2128
vn -0.9542 0.0000 0.2992
vn 0.9542 0.0000 0.2992
vn -0.0000 0.9542 0.2992
vn 0.0146 0.0146 0.9998
vn -0.9339 0.0666 0.3514
vn 0.9222 0.0000 0.3867
vn -0.0532 -0.9091 0.4133
vn -0.8864 -0.0069 0.4629
vn -0.0320 0.0001 0.9995
vn -0.0000 -0.0205 0.9998
vn -0.0000 0.0621 0.9981
vn 0.0000 -0.8674 0.4977
vn -0.0847 0.8220 0.5631
vn -0.0136 -0.0121 0.9998
vn -0.0112 0.9449 0.3271
vn -0.0319 -0.7861 0.6173
vn -0.0231 -0.0124 0.9997
vn 0.0047 -0.4830 0.8756
vn -0.0000 0.6211 0.7837
vn -0.0000 -0.0037 1.0000
vn 0.0761 -0.9970 -0.0132
vn -0.0224 0.0209 0.9995
vn -0.0358 0.9626 0.2685
usemtl Material.005
s 1
f 1/1/1 2/2/1 3/3/1 4/4/1
f 5/5/2 6/6/2 7/7/2 8/8/2
f 1/9/3 9/10/3 10/11/3 11/12/3
f 8/8/4 12/13/4 13/14/4 14/15/4
f 15/16/5 16/17/5 17/18/5 18/19/5
f 19/20/2 20/21/2 14/15/2 21/22/2
f 22/23/2 23/24/2 24/25/2 25/26/2
f 26/27/2 27/28/2 28/29/2 29/30/2
f 11/31/6 30/32/6 31/33/6 32/34/6
f 33/35/7 34/36/7 35/37/7 36/38/7
f 34/39/8 37/40/8 38/41/8 39/42/8
f 13/43/9 12/44/9 40/45/9 41/46/9
f 42/47/10 43/48/10 44/49/10 45/50/10
f 15/51/11 46/52/11 47/53/11 48/54/11
f 46/52/12 15/51/12 49/55/12 50/56/12
f 13/57/13 51/58/13 52/59/13 53/60/13
f 54/61/14 55/62/14 56/63/14 57/64/14
f 55/62/15 54/61/15 58/65/15 59/66/15
f 60/67/16 55/68/16 61/69/16 62/70/16
f 30/71/3 63/72/3 64/73/3 65/74/3
f 11/12/3 10/11/3 63/72/3 30/71/3
f 23/24/2 26/27/2 29/30/2 24/25/2
f 10/11/2 9/10/2 26/27/2 23/24/2
f 9/10/2 66/75/2 27/28/2 26/27/2
f 67/76/2 22/23/2 25/26/2 68/77/2
f 64/73/2 63/72/2 22/23/2 67/76/2
f 63/72/2 10/11/2 23/24/2 22/23/2
f 16/17/2 19/20/2 21/22/2 17/18/2
f 21/22/4 69/78/4 18/19/4 17/18/4
f 14/15/4 13/14/4 69/78/4 21/22/4
f 67/76/5 68/77/5 70/79/5 54/80/5
f 65/74/5 64/73/5 67/76/5 54/80/5
f 71/81/17 33/82/17 28/29/17 27/28/17
f 66/75/17 72/83/17 71/81/17 27/28/17
f 6/6/17 43/84/17 42/85/17 7/7/17
f 7/7/4 42/85/4 12/13/4 8/8/4
f 20/21/2 5/5/2 8/8/2 14/15/2
f 72/83/3 66/75/3 9/10/3 1/9/3
f 60/86/18 2/87/18 73/88/18 74/89/18
f 37/40/19 34/39/19 75/90/19 76/91/19
f 34/36/20 33/35/20 77/92/20 78/93/20
f 79/94/21 80/95/21 50/56/21 49/55/21
f 18/96/22 69/97/22 80/95/22 79/94/22
f 69/98/23 46/99/23 50/56/23 80/95/23
f 15/100/24 18/101/24 79/94/24 49/55/24
f 37/102/25 81/103/25 82/104/25 83/105/25
f 46/106/26 51/107/26 84/108/26 85/109/26
f 86/110/27 87/111/27 59/66/27 58/65/27
f 54/112/28 70/113/28 86/110/28 58/65/28
f 81/114/29 55/115/29 59/66/29 87/111/29
f 70/116/30 81/117/30 87/111/30 86/110/30
f 41/46/31 40/45/31 88/118/31 89/119/31
f 51/58/32 13/57/32 41/46/32 90/120/32
f 91/121/33 51/122/33 90/120/33 92/123/33
f 12/124/34 91/125/34 92/123/34 40/45/34
f 78/93/35 77/92/35 93/126/35 94/127/35
f 33/128/36 71/129/36 93/126/36 77/92/36
f 71/130/37 2/131/37 94/127/37 93/126/37
f 2/132/38 34/133/38 78/93/38 94/127/38
f 76/91/39 75/90/39 95/134/39 96/135/39
f 2/87/40 60/86/40 96/135/40 95/134/40
f 60/136/41 37/40/41 76/91/41 96/135/41
f 34/133/42 2/132/42 95/134/42 75/90/42
f 91/137/43 43/138/43 97/139/43 98/140/43
f 99/141/44 45/50/44 44/49/44 100/142/44
f 12/143/45 42/144/45 45/50/45 99/141/45
f 43/138/46 91/137/46 100/142/46 44/49/46
f 91/125/47 12/124/47 99/141/47 100/142/47
f 51/122/48 91/121/48 101/145/48 102/146/48
f 103/147/49 104/148/49 62/70/49 61/69/49
f 81/103/50 37/102/50 104/148/50 103/147/50
f 55/115/51 81/114/51 103/147/51 61/69/51
f 37/40/52 60/136/52 62/70/52 104/148/52
f 105/149/53 106/150/53 32/34/53 31/33/53
f 30/151/54 55/62/54 105/149/54 31/33/54
f 55/68/55 60/67/55 106/150/55 105/149/55
f 60/152/56 11/153/56 32/34/56 106/150/56
f 57/64/44 56/63/44 107/154/44 108/155/44
f 65/156/57 54/157/57 57/64/57 108/155/57
f 55/62/58 30/151/58 107/154/58 56/63/58
f 30/151/59 65/158/59 108/155/59 107/154/59
f 74/89/60 73/88/60 109/159/60 110/160/60
f 2/2/61 1/1/61 109/159/61 73/88/61
f 1/161/62 11/162/62 110/160/62 109/159/62
f 11/153/63 60/152/63 74/89/63 110/160/63
f 3/3/44 111/163/44 112/164/44 4/4/44
f 72/165/64 1/166/64 4/4/64 112/164/64
f 2/131/65 71/130/65 111/163/65 3/3/65
f 71/167/66 72/168/66 112/164/66 111/163/66
f 113/169/67 53/60/67 52/59/67 114/170/67
f 51/107/68 46/106/68 114/170/68 52/59/68
f 69/171/69 13/172/69 53/60/69 113/169/69
f 46/99/70 69/98/70 113/169/70 114/170/70
f 81/117/71 70/116/71 115/173/71 116/174/71
f 117/175/5 118/176/5 119/177/5 120/178/5
f 92/123/72 90/120/72 121/179/72 122/180/72
f 90/120/73 41/46/73 89/119/73 121/179/73
f 40/45/74 92/123/74 122/180/74 88/118/74
f 117/175/44 123/181/44 124/182/44 118/176/44
f 89/119/3 88/118/3 125/183/3 126/184/3
f 118/176/3 124/182/3 127/185/3 119/177/3
f 88/118/5 122/180/5 128/186/5 125/183/5
f 125/183/44 128/186/44 127/185/44 129/187/44
f 126/184/44 125/183/44 129/187/44 120/178/44
f 128/186/44 130/188/44 119/177/44 127/185/44
f 130/188/44 126/184/44 120/178/44 119/177/44
f 122/180/4 121/179/4 130/188/4 128/186/4
f 121/179/17 89/119/17 126/184/17 130/188/17
f 124/182/17 123/181/17 129/187/17 127/185/17
f 123/181/4 117/175/4 120/178/4 129/187/4
f 70/189/75 15/190/75 48/54/75 115/173/75
f 46/52/76 81/191/76 116/174/76 47/53/76
f 47/53/77 116/174/77 115/173/77 48/54/77
f 91/192/78 34/193/78 39/42/78 101/145/78
f 37/194/79 51/195/79 102/146/79 38/41/79
f 101/145/80 39/42/80 38/41/80 102/146/80
f 34/193/81 91/192/81 98/140/81 35/37/81
f 43/196/82 33/197/82 36/38/82 97/139/82
f 97/139/83 36/38/83 35/37/83 98/140/83
f 81/191/84 46/52/84 85/109/84 82/104/84
f 84/108/85 83/105/85 82/104/85 85/109/85
f 28/29/2 6/6/2 5/5/2 29/30/2
f 29/30/2 5/5/2 20/21/2 24/25/2
f 15/16/5 70/79/5 68/77/5 16/17/5
f 6/6/17 28/29/17 33/82/17 43/84/17
f 24/25/2 20/21/2 19/20/2 25/26/2
f 25/26/2 19/20/2 16/17/2 68/77/2
f 51/195/86 37/194/86 83/105/86 84/108/86
