# Blender v2.90.0 OBJ File: ''
# www.blender.org
mtllib WallWithIndent.mtl
o Cube.004_Cube.006
v 2.027096 1.146703 -0.299929
v 2.027096 1.865884 -0.299929
v 2.027096 1.865884 0.148824
v 2.027096 1.146703 0.148824
v -0.508955 0.170348 0.148824
v -0.508954 1.146704 0.148824
v -0.602519 1.137215 0.306212
v -0.690024 0.276765 0.310331
v -2.199654 1.146704 -0.299929
v -2.199654 1.865885 -0.299929
v -2.199654 1.865885 -0.429832
v -2.199654 1.146704 -0.429832
v 1.181745 1.146704 -0.429833
v 1.181746 1.865884 -0.429833
v 2.027096 1.865884 -0.429833
v 2.027096 1.146703 -0.429834
v -1.354305 -2.039541 -0.299929
v -2.199655 -2.039541 -0.299929
v -2.199655 -2.039541 -0.429833
v -1.354305 -2.039541 -0.429833
v 1.181746 1.865884 -0.299929
v -1.354304 1.865885 -0.299929
v -1.354304 1.865885 -0.429833
v -0.508954 1.865884 -0.299929
v -0.508954 1.865884 -0.429833
v 0.336396 1.865884 -0.299929
v 0.336396 1.865884 -0.429833
v 2.027096 -2.039541 -0.299930
v 1.181745 -2.039541 -0.299930
v 1.181745 -2.039541 -0.429833
v 2.027096 -2.039541 -0.429834
v 0.386957 -2.039541 -0.299930
v 0.336395 -2.039541 -0.429833
v -0.559517 -2.039541 -0.299929
v -0.508955 -2.039541 -0.429833
v -1.354305 1.146704 -0.429833
v -0.508954 1.146704 -0.429833
v 0.336396 1.146704 -0.429833
v 1.181745 0.170348 0.148824
v 2.027096 0.170348 0.148824
v 2.006510 0.251649 0.233889
v 1.182674 0.214132 0.243003
v 2.027096 1.146703 0.250350
v 0.336396 1.146704 0.148824
v 0.336396 1.865884 0.148824
v -0.508954 1.865884 0.148824
v -1.354305 0.170348 0.148824
v -1.301016 0.242040 0.249818
v -1.354305 -2.039541 0.148824
v -0.605283 -2.039541 0.148824
v -0.688565 -1.915465 0.318909
v -1.356619 -1.915465 0.318909
v -1.356619 0.055538 0.318910
v -0.602650 0.055538 0.318910
v -2.199654 1.865885 0.148825
v -2.199654 1.146704 0.148825
v -2.113558 1.180504 0.249818
v -2.106090 1.776797 0.306212
v 0.336395 -0.806009 -0.429833
v -0.508955 -0.806009 -0.429833
v -0.605283 -0.806009 0.148824
v 0.432723 -0.806009 0.148824
v 0.297391 -0.678714 0.313355
v -0.469950 -0.678714 0.313356
v -0.471280 1.051783 0.284507
v 0.247604 1.095880 0.263560
v 0.432723 -2.039541 0.148824
v 0.501126 -2.002912 0.232520
v 0.501126 -0.882280 0.232520
v 1.181745 -0.806009 0.148824
v 1.142723 0.122554 0.308922
v 1.142723 -0.758217 0.308922
v 1.181746 1.865884 0.148824
v 1.191226 1.918285 0.240803
v 2.051893 1.905850 0.260513
v 1.181745 -2.039541 0.148824
v 2.027096 -2.039541 0.148823
v 2.017119 -1.976294 0.269394
v 1.237239 -2.007205 0.283707
v 1.294736 -0.741458 0.402442
v 1.315228 0.098935 0.415155
v 0.336396 0.170348 0.148824
v 0.436888 0.344248 0.231643
v 0.369406 1.146704 0.263420
v 1.181745 -0.806009 -0.429833
v 0.336396 0.170348 -0.429833
v 1.181745 0.170348 -0.429833
v -0.508955 0.170348 -0.429833
v -1.354305 -0.806009 -0.429833
v -1.354305 0.170348 -0.429833
v -2.199655 -0.806009 -0.429833
v -2.199655 0.170348 -0.429833
v 2.027096 -0.806010 -0.429834
v 2.027096 0.170348 -0.429834
v -2.199655 -0.806009 -0.299929
v -2.199655 0.170348 -0.299929
v -2.199655 -0.806009 0.148825
v -2.199655 -2.039541 0.148824
v -1.923049 -1.859501 0.335897
v -1.991004 -0.836984 0.315006
v -2.199655 0.170348 0.148825
v -2.026185 0.033259 0.314369
v -0.602519 1.776797 0.306212
v 2.027096 -0.806010 -0.299930
v 2.027096 -0.806010 0.148823
v 2.027096 0.170348 -0.299929
v -0.559517 -0.806009 -0.299929
v 0.386958 -0.806009 -0.299930
v 1.193134 1.126085 0.304750
v 0.351608 1.921711 0.245255
v -1.301016 1.180504 0.249818
v -1.354304 1.776797 0.306212
v -2.113558 0.242040 0.249818
v -1.354304 1.865885 0.148824
v 0.298721 0.265267 0.269290
v -0.420163 0.221171 0.290237
v 1.971602 -0.838345 0.246799
v 1.191722 -0.869256 0.261111
v -0.688565 -0.815275 0.318909
v -1.356619 -0.815275 0.318909
v 0.380133 0.122555 0.308922
v 0.560613 -0.597831 0.249096
v 2.033199 -0.726204 0.399623
v 2.053692 0.114190 0.412336
v 0.226181 0.043053 0.313355
v -0.398740 0.043053 0.313356
v 1.043399 -2.011099 0.248021
v 1.043399 -0.890466 0.248021
vt 0.669575 0.055814
vt 0.623698 0.074719
vt 0.595407 0.051337
vt 0.657238 0.017187
vt 0.388081 0.183051
vt 0.391088 0.096508
vt 0.405619 0.097366
vt 0.408927 0.165775
vt 0.683532 0.410905
vt 0.639510 0.394949
vt 0.644904 0.388650
vt 0.685281 0.401861
vt 0.675237 0.132321
vt 0.618471 0.132888
vt 0.630550 0.080281
vt 0.672341 0.066697
vt 0.946666 0.337938
vt 0.923806 0.394418
vt 0.917425 0.387677
vt 0.936903 0.335347
vt 0.608707 0.131480
vt 0.616771 0.345317
vt 0.627194 0.342510
vt 0.606593 0.274785
vt 0.617654 0.273821
vt 0.604063 0.201341
vt 0.615074 0.201459
vt 0.913588 0.065402
vt 0.941847 0.115922
vt 0.931151 0.119708
vt 0.908390 0.072591
vt 0.956183 0.185531
vt 0.944998 0.191109
vt 0.957373 0.270223
vt 0.946228 0.265097
vt 0.684165 0.336839
vt 0.678785 0.269734
vt 0.676007 0.200525
vt 0.242243 0.153381
vt 0.179845 0.143005
vt 0.182809 0.134572
vt 0.243176 0.145666
vt 0.175523 0.139912
vt 0.184075 0.066581
vt 0.191697 0.067435
vt 0.324686 0.089107
vt 0.332459 0.035095
vt 0.393997 0.041344
vt 0.462861 0.176111
vt 0.457898 0.166393
vt 0.482726 0.382160
vt 0.417523 0.390559
vt 0.422412 0.371298
vt 0.480525 0.363862
vt 0.464139 0.193104
vt 0.407267 0.195193
vt 0.533241 0.040689
vt 0.531759 0.095242
vt 0.521717 0.092642
vt 0.519169 0.047070
vt 0.837283 0.196117
vt 0.839446 0.265742
vt 0.381927 0.281359
vt 0.288244 0.270856
vt 0.302563 0.253450
vt 0.371817 0.261214
vt 0.381110 0.108390
vt 0.333269 0.098622
vt 0.827410 0.900486
vt 0.825047 0.796201
vt 0.834255 0.799091
vt 0.836402 0.893831
vt 0.900596 0.905005
vt 0.918089 0.983198
vt 0.903152 0.982048
vt 0.894467 0.921797
vt 0.202169 0.002048
vt 0.265153 0.012014
vt 0.263218 0.019794
vt 0.198912 0.010570
vt 0.907102 0.785795
vt 0.977740 0.789824
vt 0.976319 0.801161
vt 0.911078 0.797650
vt 0.926328 0.924060
vt 0.931512 0.977693
vt 0.305218 0.161622
vt 0.299524 0.147262
vt 0.315668 0.087228
vt 0.833406 0.127290
vt 0.756645 0.198249
vt 0.754523 0.128682
vt 0.758961 0.267362
vt 0.839629 0.334966
vt 0.760723 0.336370
vt 0.840538 0.403545
vt 0.760182 0.406879
vt 0.831852 0.055434
vt 0.752603 0.056164
vt 0.842000 0.414774
vt 0.759986 0.417435
vt 0.546916 0.258900
vt 0.559714 0.365248
vt 0.529056 0.353191
vt 0.524512 0.264110
vt 0.537326 0.176819
vt 0.518515 0.190699
vt 0.406485 0.048182
vt 0.832748 0.045808
vt 0.837498 0.009246
vt 0.934957 0.036834
vt 0.751930 0.045271
vt 0.749839 0.005203
vt 0.706318 0.699257
vt 0.612593 0.736879
vt 0.609211 0.637750
vt 0.697341 0.653069
vt 0.253618 0.078792
vt 0.325739 0.029789
vt 0.328144 0.021659
vt 0.190025 0.012647
vt 0.304861 0.162629
vt 0.458904 0.094175
vt 0.462681 0.048381
vt 0.523391 0.163451
vt 0.399545 0.034685
vt 0.462551 0.034844
vt 0.525859 0.033362
vt 0.533490 0.168603
vt 0.530919 0.173054
vt 0.315443 0.157583
vt 0.373756 0.167544
vt 0.310038 0.171193
vt 0.971196 0.896360
vt 0.909661 0.893776
vt 0.896496 0.794789
vt 0.986748 0.796493
vt 0.980470 0.899544
vt 0.975180 0.903609
vt 0.412539 0.273248
vt 0.470420 0.267979
vt 0.406652 0.384289
vt 0.394504 0.273679
vt 0.555979 0.372542
vt 0.388162 0.183601
vt 0.838330 0.992346
vt 0.843910 0.928463
vt 0.829858 0.904805
vt 0.900151 0.905148
vt 0.823680 0.994864
vt 0.829798 0.910644
vt 0.299794 0.174527
vt 0.243305 0.166184
vt 0.976049 0.923509
vt 0.978871 0.977342
vt 0.977433 0.994642
vt 0.923236 0.995507
vt 0.991744 0.917294
vt 0.996063 0.979748
vt 0.316293 0.189030
vt 0.368468 0.197839
vt 0.281710 0.262003
vt 0.300283 0.174859
vt 0.881784 0.797621
vt 0.885679 0.891668
vt 0.827862 0.791398
vt 0.893418 0.787953
vt 0.617602 0.600207
vt 0.720267 0.623155
vt 0.749602 0.714268
vt 0.637009 0.785238
vt 0.758821 0.455871
vt 0.674392 0.445852
vt 0.847182 0.452348
vt 0.949678 0.420285
vt 0.997598 0.282071
vt 0.982867 0.349997
vt 0.978287 0.100881
vt 0.997598 0.170990
vt 0.564084 0.200373
vt 0.570998 0.123912
vt 0.566354 0.278859
vt 0.580510 0.356880
vt 0.617489 0.421405
vn 1.0000 -0.0000 -0.0000
vn 0.7521 -0.0344 0.6582
vn -1.0000 0.0000 0.0000
vn -0.0000 0.0000 -1.0000
vn -0.0000 -1.0000 -0.0000
vn 0.0000 1.0000 0.0000
vn 0.0215 -0.8188 0.5737
vn 0.9933 -0.0119 0.1148
vn 0.0000 -0.0000 1.0000
vn -0.0035 -0.8283 0.5603
vn 0.0000 -0.8079 0.5893
vn 0.0000 0.8288 0.5595
vn -0.8228 -0.0197 0.5679
vn 0.0000 -0.7909 0.6119
vn -0.0177 0.8657 0.5002
vn -0.7743 -0.0000 0.6328
vn 0.9716 -0.0000 0.2368
vn 0.0114 0.9099 -0.4146
vn 0.0209 -0.9376 0.3471
vn -0.9036 0.0072 0.4284
vn -0.8105 -0.0412 0.5844
vn -0.5865 -0.0102 0.8099
vn -0.6586 -0.0123 0.7524
vn 0.8596 -0.0000 0.5110
vn 0.0203 0.0343 0.9992
vn -0.0214 0.0520 0.9984
vn -0.0388 -0.0557 0.9977
vn 0.0398 -0.0439 0.9982
vn 0.0004 0.8671 -0.4981
vn -0.9743 -0.0089 0.2250
vn 0.9935 -0.0159 -0.1126
vn -0.0558 -0.6141 0.7873
vn 0.0000 -0.0942 0.9956
vn -0.0402 -0.0473 0.9981
vn -0.0889 0.0066 0.9960
vn 0.0000 0.8703 0.4926
vn -0.7610 0.0000 0.6488
vn 0.0000 -0.8154 0.5789
vn 0.0286 0.0087 0.9996
vn 0.8825 0.0265 0.4696
vn -0.9109 -0.0245 0.4118
vn 0.0311 -0.8759 0.4814
vn 0.0175 0.0206 0.9996
vn -0.9670 -0.0161 0.2541
vn 0.9585 0.0211 0.2842
vn -0.0137 0.9114 0.4113
vn -0.0022 0.0001 1.0000
vn -0.0032 0.0001 1.0000
vn 0.0112 0.0102 0.9999
vn -0.0065 0.0002 1.0000
vn 0.8981 -0.0000 0.4398
vn -0.0219 -0.7528 0.6579
vn -0.0135 0.7964 0.6046
vn 0.8965 -0.0884 0.4341
vn -0.0495 -0.0429 0.9979
vn -0.1151 -0.6884 0.7161
vn -0.7810 -0.1488 0.6065
vn 0.0000 0.9582 0.2860
vn 0.0041 -0.0152 0.9999
vn -0.0089 0.9716 0.2366
vn 0.9980 -0.0108 -0.0630
vn 0.0098 -0.9620 0.2730
vn 0.7990 0.0788 0.5962
vn 0.0000 0.7909 0.6119
vn -0.7990 0.0788 0.5962
vn -0.0286 -0.0000 0.9996
vn -0.0032 0.7518 0.6594
vn 0.5827 -0.0000 0.8127
vn -0.0100 -0.9433 0.3318
vn -0.9948 0.0000 0.1015
vn 0.9948 0.0000 0.1015
usemtl Material.011
s 1
f 1/1/1 2/2/1 3/3/1 4/4/1
f 5/5/2 6/6/2 7/7/2 8/8/2
f 9/9/3 10/10/3 11/11/3 12/12/3
f 13/13/4 14/14/4 15/15/4 16/16/4
f 17/17/5 18/18/5 19/19/5 20/20/5
f 21/21/6 2/2/6 15/15/6 14/14/6
f 10/10/6 22/22/6 23/23/6 11/11/6
f 22/22/6 24/24/6 25/25/6 23/23/6
f 24/24/6 26/26/6 27/27/6 25/25/6
f 26/26/6 21/21/6 14/14/6 27/27/6
f 28/28/5 29/29/5 30/30/5 31/31/5
f 29/29/5 32/32/5 33/33/5 30/30/5
f 34/34/5 17/17/5 20/20/5 35/35/5
f 12/12/4 11/11/4 23/23/4 36/36/4
f 36/36/4 23/23/4 25/25/4 37/37/4
f 37/37/4 25/25/4 27/27/4 38/38/4
f 38/38/4 27/27/4 14/14/4 13/13/4
f 39/39/7 40/40/7 41/41/7 42/42/7
f 40/43/8 4/44/8 43/45/8 41/41/8
f 44/46/9 45/47/9 46/48/9 6/6/9
f 47/49/10 5/5/10 8/8/10 48/50/10
f 49/51/11 50/52/11 51/53/11 52/54/11
f 5/5/12 47/49/12 53/55/12 54/56/12
f 55/57/13 56/58/13 57/59/13 58/60/13
f 59/61/4 33/33/4 35/35/4 60/62/4
f 61/63/14 62/64/14 63/65/14 64/66/14
f 44/46/15 6/6/15 65/67/15 66/68/15
f 62/69/16 67/70/16 68/71/16 69/72/16
f 70/73/17 39/74/17 71/75/17 72/76/17
f 3/77/18 73/78/18 74/79/18 75/80/18
f 76/81/19 77/82/19 78/83/19 79/84/19
f 39/74/20 70/73/20 80/85/20 81/86/20
f 44/46/21 82/87/21 83/88/21 84/89/21
f 33/33/4 59/61/4 85/90/4 30/30/4
f 59/61/4 86/91/4 87/92/4 85/90/4
f 86/91/4 38/38/4 13/13/4 87/92/4
f 60/62/4 88/93/4 86/91/4 59/61/4
f 88/93/4 37/37/4 38/38/4 86/91/4
f 20/20/4 89/94/4 60/62/4 35/35/4
f 89/94/4 90/95/4 88/93/4 60/62/4
f 90/95/4 36/36/4 37/37/4 88/93/4
f 19/19/4 91/96/4 89/94/4 20/20/4
f 91/96/4 92/97/4 90/95/4 89/94/4
f 92/97/4 12/12/4 36/36/4 90/95/4
f 30/30/4 85/90/4 93/98/4 31/31/4
f 85/90/4 87/92/4 94/99/4 93/98/4
f 87/92/4 13/13/4 16/16/4 94/99/4
f 18/18/3 95/100/3 91/96/3 19/19/3
f 95/100/3 96/101/3 92/97/3 91/96/3
f 96/101/3 9/9/3 12/12/3 92/97/3
f 97/102/22 98/103/22 99/104/22 100/105/22
f 101/106/23 97/102/23 100/105/23 102/107/23
f 6/6/24 46/48/24 103/108/24 7/7/24
f 28/28/1 104/109/1 105/110/1 77/111/1
f 104/109/1 106/112/1 40/113/1 105/110/1
f 106/112/1 1/1/1 4/4/1 40/113/1
f 34/34/5 35/35/5 33/33/5 32/32/5
f 107/114/9 34/115/9 32/116/9 108/117/9
f 43/45/25 75/80/25 74/79/25 109/118/25
f 109/118/26 74/79/26 110/119/26 84/89/26
f 42/42/27 109/118/27 84/89/27 83/88/27
f 41/41/28 43/45/28 109/118/28 42/42/28
f 73/78/29 45/120/29 110/119/29 74/79/29
f 45/47/30 44/46/30 84/89/30 110/119/30
f 4/44/31 3/121/31 75/80/31 43/45/31
f 82/122/32 39/39/32 42/42/32 83/88/32
f 111/123/33 112/124/33 58/60/33 57/59/33
f 7/7/34 103/108/34 112/124/34 111/123/34
f 8/8/35 7/7/35 111/123/35 48/50/35
f 48/50/9 111/123/9 57/59/9 113/125/9
f 46/126/36 114/127/36 112/124/36 103/108/36
f 114/127/36 55/128/36 58/60/36 112/124/36
f 56/58/37 101/129/37 113/125/37 57/59/37
f 101/130/38 47/49/38 48/50/38 113/125/38
f 115/131/39 66/68/39 65/67/39 116/132/39
f 82/87/40 44/46/40 66/68/40 115/131/40
f 6/6/41 5/5/41 116/132/41 65/67/41
f 5/5/42 82/133/42 115/131/42 116/132/42
f 78/83/43 117/134/43 118/135/43 79/84/43
f 70/73/44 76/136/44 79/84/44 118/135/44
f 77/137/45 105/138/45 117/134/45 78/83/45
f 105/139/46 70/73/46 118/135/46 117/134/46
f 51/53/9 119/140/9 120/141/47 52/54/9
f 119/140/9 54/56/9 53/55/48 120/141/47
f 52/54/49 120/141/49 100/105/49 99/104/49
f 120/141/47 53/55/48 102/107/50 100/105/50
f 50/142/51 61/143/51 119/140/51 51/53/51
f 98/144/52 49/51/52 52/54/52 99/104/52
f 47/49/53 101/130/53 102/107/53 53/55/53
f 61/143/54 5/145/54 54/56/54 119/140/54
f 72/76/55 71/75/55 121/146/55 122/147/55
f 62/148/56 70/149/56 72/76/56 122/147/56
f 82/150/57 62/151/57 122/147/57 121/146/57
f 39/39/58 82/122/58 121/152/58 71/153/58
f 123/154/59 124/155/59 81/86/59 80/85/59
f 40/156/60 39/157/60 81/86/60 124/155/60
f 105/158/61 40/159/61 124/155/61 123/154/61
f 70/73/62 105/139/62 123/154/62 80/85/62
f 63/65/9 125/160/9 126/161/9 64/66/9
f 62/162/63 82/163/63 125/160/63 63/65/63
f 82/133/64 5/5/64 126/161/64 125/160/64
f 5/145/65 61/143/65 64/66/65 126/161/65
f 127/164/66 128/165/66 69/72/66 68/71/66
f 70/149/67 62/148/67 69/72/67 128/165/67
f 76/136/68 70/73/68 128/165/68 127/164/68
f 67/166/69 76/167/69 127/164/69 68/71/69
f 67/168/70 62/169/70 108/117/70 32/116/70
f 61/170/71 50/171/71 34/115/71 107/114/71
f 94/99/1 16/16/1 1/1/1 106/112/1
f 93/98/1 94/99/1 106/112/1 104/109/1
f 31/31/1 93/98/1 104/109/1 28/28/1
f 101/172/3 56/173/3 9/9/3 96/101/3
f 97/174/3 101/172/3 96/101/3 95/100/3
f 98/175/3 97/174/3 95/100/3 18/18/3
f 62/169/5 61/170/5 107/114/5 108/117/5
f 50/176/5 49/177/5 17/17/5 34/34/5
f 76/178/5 67/179/5 32/32/5 29/29/5
f 77/111/5 76/178/5 29/29/5 28/28/5
f 45/180/6 73/181/6 21/21/6 26/26/6
f 46/182/6 45/180/6 26/26/6 24/24/6
f 114/183/6 46/182/6 24/24/6 22/22/6
f 55/184/6 114/183/6 22/22/6 10/10/6
f 73/181/6 3/3/6 2/2/6 21/21/6
f 49/177/5 98/175/5 18/18/5 17/17/5
f 56/173/3 55/184/3 10/10/3 9/9/3
f 16/16/1 15/15/1 2/2/1 1/1/1
