# Blender v2.90.0 OBJ File: ''
# www.blender.org
mtllib Wall2.mtl
o Cube.010_Cube.016
v -1.596197 1.660844 -0.296009
v -2.735310 1.661731 -0.296009
v -2.734423 2.799662 -0.296008
v -1.595310 2.798774 -0.296009
v -2.735310 1.661731 -0.006282
v -2.734423 2.799662 -0.006282
v 2.961142 2.795223 -0.006282
v 2.832289 2.784743 0.030342
v 2.831524 1.802955 0.030342
v 2.960256 1.657292 -0.006282
v 2.960256 1.657292 -0.296009
v 2.961142 2.795223 -0.296009
v 1.817594 -2.893539 -0.296010
v 2.956707 -2.894426 -0.296010
v 2.956707 -2.894426 -0.006283
v 1.817594 -2.893539 -0.006283
v 1.822029 2.796110 -0.006282
v 1.822029 2.796110 -0.296009
v 2.957594 -1.756496 -0.296010
v 2.957594 -1.756496 -0.006283
v 2.958481 -0.618567 -0.296009
v 2.958481 -0.618567 -0.006283
v 2.959368 0.519362 -0.296009
v 2.959368 0.519362 -0.006283
v 1.818481 -1.755608 -0.006283
v 1.876318 -1.621774 0.104333
v 1.914120 -0.617753 0.104367
v 1.819369 -0.617679 -0.006283
v 2.905697 0.412341 0.110482
v 2.904894 -0.618525 0.110482
v 1.821143 1.658180 -0.006282
v 1.887197 1.592090 0.118679
v 2.840266 1.583054 0.134981
v -2.738858 -2.889987 -0.296009
v -2.738858 -2.889987 -0.006283
v -2.737971 -1.752057 -0.006282
v -2.737971 -1.752057 -0.296009
v -2.737084 -0.614127 -0.006282
v -2.737084 -0.614127 -0.296009
v -2.736197 0.523803 -0.006282
v -2.736197 0.523803 -0.296009
v -1.599745 -2.890875 -0.296009
v -1.598858 -1.752944 -0.296009
v -1.597971 -0.615016 -0.296009
v -1.597084 0.522915 -0.296009
v 1.820256 0.520251 -0.296009
v 1.821143 1.658180 -0.296009
v 0.681142 0.521139 -0.296009
v 0.682029 1.659068 -0.296009
v -0.457971 0.522027 -0.296009
v -0.457084 1.659956 -0.296009
v 1.819369 -0.617679 -0.296009
v 0.680256 -0.616792 -0.296009
v -0.458858 -0.615903 -0.296009
v 1.818481 -1.755608 -0.296010
v 0.679368 -1.754720 -0.296009
v -0.459745 -1.753832 -0.296009
v 0.678482 -2.892651 -0.296010
v -0.460632 -2.891763 -0.296010
v -2.667787 1.589376 0.073905
v -1.661931 1.599212 0.068967
v -1.596197 1.660844 -0.006282
v -1.597084 0.522915 -0.006282
v -1.533525 0.586308 0.176229
v -1.418753 1.597263 0.176229
v 1.658415 2.747314 0.171370
v 1.649634 1.648441 0.205224
v 1.820256 0.520251 -0.006282
v 1.608025 0.682793 0.213321
v 0.647794 0.577955 0.199369
v 0.681142 0.521139 -0.006282
v -2.470862 -0.472184 0.303991
v -2.679249 0.495303 0.276884
v -1.591447 0.535272 0.202430
v 0.679368 -1.754720 -0.006283
v 0.710541 -1.588523 0.143978
v -0.262244 -1.630395 0.146801
v -0.459745 -1.753832 -0.006283
v -0.292529 -0.658663 0.152260
v -0.458858 -0.615903 -0.006282
v -1.597971 -0.615016 -0.006282
v -1.679519 -0.656878 0.231813
v -1.699482 -1.577040 0.230570
v -1.598858 -1.752944 -0.006283
v -0.501780 -1.711775 0.131336
v -1.556757 -1.710953 0.131337
v 1.653041 -0.574920 0.146616
v 1.683325 -1.546651 0.141156
v -0.457971 0.522027 -0.006282
v -0.322815 0.313069 0.157720
v 0.649970 0.354941 0.154898
v -2.591722 -2.801444 0.149594
v -2.505885 -1.840992 0.157195
v -1.610559 -1.809074 0.111740
v -0.576641 -1.772344 0.143912
v -0.460632 -2.891763 -0.006283
v -0.372361 -2.839433 0.133957
v -0.370688 -1.857655 0.136230
v 1.741162 -1.895712 0.146024
v 1.687277 -2.826089 0.156292
v -1.595310 2.798774 -0.006282
v -0.456197 2.797886 -0.006282
v -0.456197 2.797886 -0.296009
v 0.682916 2.796998 -0.006282
v 0.682916 2.796998 -0.296009
v -1.599745 -2.890875 -0.006283
v 0.678482 -2.892651 -0.006283
v -1.587950 1.750413 0.050618
v -2.631803 1.753114 0.151401
v -1.483935 2.701553 0.065666
v -0.599304 2.672399 0.192554
v -0.290177 0.550807 0.170001
v 0.558046 2.756036 0.136535
v 0.680256 -0.616792 0.149438
v 1.622755 0.396813 0.152075
v -2.668582 0.569110 0.073905
v -1.662727 0.578944 0.068966
v -0.521430 0.585519 0.176229
v -0.634626 1.596652 0.176229
v -0.457084 1.659956 -0.006282
v 0.549264 1.657163 0.170389
v -0.443670 1.708040 0.126278
v -0.415867 2.755889 0.109920
v 0.626070 -2.840211 0.135355
v 0.627742 -1.858433 0.137628
v 0.755800 -2.752546 0.152410
v 0.809686 -1.822170 0.142143
v 2.908257 -1.622579 0.104333
v 2.022183 0.328367 0.100163
v 1.886414 0.586237 0.118679
v 2.893313 0.585452 0.118679
v 1.848715 1.803722 0.030342
v 1.849480 2.785509 0.030342
v -1.611462 -2.816056 0.111259
v -0.577578 -2.831073 0.143216
v -0.500958 -0.657894 0.131337
v -1.555936 -0.657073 0.131337
v -2.620593 -1.549914 0.228812
v -2.600630 -0.629752 0.230055
v -1.582142 -0.393156 0.198577
v -0.635964 -0.506236 0.277850
v -0.635232 0.432562 0.277850
v -1.588252 2.802871 0.037912
v -2.632105 2.805573 0.138696
v -1.498323 1.800238 0.040198
v -0.613693 1.771084 0.167086
vt 0.401267 0.399266
vt 0.402528 0.352225
vt 0.441343 0.358450
vt 0.448233 0.397195
vt 0.405865 0.332615
vt 0.452417 0.347186
vt 0.789534 0.426704
vt 0.787030 0.432972
vt 0.741706 0.418743
vt 0.737003 0.410212
vt 0.406780 0.614813
vt 0.403453 0.597431
vt 0.440183 0.586320
vt 0.453406 0.599317
vt 0.205734 0.552637
vt 0.212624 0.591383
vt 0.201550 0.602647
vt 0.186183 0.556306
vt 0.468103 0.552388
vt 0.450666 0.549363
vt 0.251439 0.597607
vt 0.248102 0.617217
vt 0.302605 0.601317
vt 0.302146 0.620616
vt 0.354283 0.600886
vt 0.355233 0.619705
vt 0.518373 0.444945
vt 0.525941 0.412833
vt 0.557016 0.416820
vt 0.560553 0.465767
vt 0.568087 0.458712
vt 0.609511 0.457018
vt 0.609620 0.465429
vt 0.658542 0.405895
vt 0.654182 0.413835
vt 0.608863 0.415778
vt 0.608461 0.408178
vt 0.722111 0.466333
vt 0.714115 0.458646
vt 0.722064 0.414210
vt 0.735053 0.410158
vt 0.213784 0.363513
vt 0.200561 0.350516
vt 0.247187 0.335019
vt 0.250514 0.352401
vt 0.298734 0.330127
vt 0.299683 0.348947
vt 0.351821 0.329216
vt 0.351362 0.348516
vt 0.203300 0.400470
vt 0.252443 0.401560
vt 0.301348 0.400076
vt 0.351455 0.399366
vt 0.352619 0.549757
vt 0.401524 0.548272
vt 0.352143 0.499675
vt 0.402175 0.499295
vt 0.351860 0.449584
vt 0.402025 0.449128
vt 0.302512 0.550466
vt 0.302107 0.500249
vt 0.301824 0.450158
vt 0.252700 0.550566
vt 0.251942 0.500705
vt 0.251792 0.450537
vt 0.201146 0.501485
vt 0.200691 0.449749
vt 0.434510 0.897351
vt 0.438631 0.891576
vt 0.485992 0.893205
vt 0.490544 0.898445
vt 0.489686 0.842175
vt 0.497887 0.848191
vt 0.503451 0.890028
vt 0.491387 0.897481
vt 0.772489 0.481069
vt 0.767962 0.490945
vt 0.720087 0.483204
vt 0.722018 0.466517
vt 0.664021 0.467755
vt 0.678277 0.484059
vt 0.675386 0.523145
vt 0.663019 0.521040
vt 0.428164 0.769904
vt 0.450187 0.778930
vt 0.440182 0.821679
vt 0.422073 0.819977
vt 0.437310 0.839796
vt 0.489955 0.824542
vt 0.490585 0.839720
vt 0.551522 0.516266
vt 0.564466 0.516336
vt 0.560298 0.561497
vt 0.547641 0.570242
vt 0.554439 0.574959
vt 0.604929 0.562940
vt 0.606680 0.575674
vt 0.492585 0.749459
vt 0.484212 0.748163
vt 0.484272 0.715165
vt 0.493154 0.710405
vt 0.539344 0.700205
vt 0.536520 0.708818
vt 0.492379 0.709709
vt 0.490054 0.699935
vt 0.611126 0.478099
vt 0.571977 0.475315
vt 0.661207 0.569326
vt 0.648176 0.563588
vt 0.650631 0.521951
vt 0.434807 0.647914
vt 0.446296 0.650668
vt 0.452355 0.690677
vt 0.438864 0.695491
vt 0.489740 0.691455
vt 0.535320 0.690543
vt 0.490593 0.571249
vt 0.493736 0.561773
vt 0.537066 0.565346
vt 0.540800 0.575561
vt 0.548587 0.468280
vt 0.516189 0.456291
vt 0.467784 0.393526
vt 0.472110 0.447558
vt 0.452821 0.448347
vt 0.472110 0.500709
vt 0.453276 0.500083
vt 0.185864 0.397444
vt 0.181857 0.449123
vt 0.181857 0.502275
vt 0.489214 0.904573
vt 0.438435 0.908874
vt 0.493389 0.954273
vt 0.499249 0.949029
vt 0.538679 0.948389
vt 0.542356 0.962873
vt 0.672167 0.562297
vt 0.771884 0.530836
vt 0.762883 0.534485
vt 0.779156 0.486187
vt 0.607818 0.519925
vt 0.654736 0.482384
vt 0.663624 0.467804
vt 0.657499 0.575693
vt 0.560449 0.466040
vt 0.439838 0.844850
vt 0.485923 0.845451
vt 0.433792 0.842615
vt 0.432445 0.894730
vt 0.539233 0.846920
vt 0.535947 0.888272
vt 0.493461 0.899578
vt 0.544169 0.898208
vt 0.541378 0.835834
vt 0.548783 0.891057
vt 0.550272 0.844686
vt 0.718143 0.529643
vt 0.717530 0.569813
vt 0.758637 0.573406
vt 0.765208 0.576009
vt 0.715013 0.577117
vt 0.759807 0.580370
vt 0.670238 0.574144
vt 0.497410 0.517711
vt 0.539135 0.518167
vt 0.534356 0.511155
vt 0.495603 0.510661
vt 0.488356 0.514643
vt 0.484261 0.564922
vt 0.505545 0.495651
vt 0.541560 0.506721
vt 0.507697 0.447806
vt 0.493422 0.495420
vt 0.566084 0.418187
vt 0.653091 0.453831
vt 0.559886 0.411497
vt 0.664016 0.467747
vt 0.663184 0.411362
vt 0.673152 0.460453
vt 0.671338 0.413904
vt 0.725336 0.402129
vt 0.667615 0.404360
vt 0.731065 0.466438
vt 0.772786 0.478343
vt 0.774856 0.480386
vt 0.791366 0.427799
vt 0.487482 0.647449
vt 0.532791 0.642921
vt 0.546675 0.690891
vt 0.544053 0.638226
vt 0.536491 0.632617
vt 0.487348 0.639518
vt 0.439891 0.640836
vt 0.444314 0.700047
vt 0.536277 0.751633
vt 0.491818 0.751679
vt 0.491579 0.710349
vt 0.490820 0.749958
vt 0.544451 0.753387
vt 0.544713 0.707157
vt 0.489376 0.762668
vt 0.538920 0.759263
vt 0.449570 0.714673
vt 0.449003 0.747708
vt 0.441989 0.759736
vt 0.436972 0.707079
vt 0.435897 0.747915
vt 0.490206 0.780691
vt 0.533217 0.777368
vt 0.532970 0.818659
vt 0.552458 0.822717
vt 0.552758 0.772668
vt 0.491909 0.955457
vt 0.441446 0.960122
vt 0.493727 0.954491
vt 0.492142 0.899244
vt 0.426027 0.905330
vt 0.430171 0.960673
vt 0.438926 0.970964
vt 0.492271 0.958503
vt 0.498180 0.907415
vt 0.538400 0.909028
vt 0.552758 0.953384
vt 0.551039 0.903766
vn -0.0000 0.0000 -1.0000
vn -1.0000 0.0008 0.0000
vn 0.2734 -0.0002 0.9619
vn 1.0000 -0.0008 0.0000
vn -0.0008 -1.0000 0.0000
vn 0.0008 1.0000 0.0000
vn 0.0000 -0.0000 1.0000
vn -0.8273 0.0149 0.5615
vn 0.9089 -0.0007 0.4171
vn 0.9099 -0.0004 0.4148
vn 0.0006 0.8846 0.4664
vn -0.0017 0.7574 0.6529
vn -0.8337 0.0449 0.5504
vn 0.7572 0.0066 0.6531
vn 0.0403 -0.8783 0.4764
vn -0.8690 -0.0794 0.4884
vn -0.0164 0.9993 0.0349
vn 0.0151 -0.7288 0.6845
vn -0.6491 -0.0110 0.7607
vn 0.9327 -0.0097 0.3605
vn -0.0007 -0.9564 0.2921
vn 0.7091 0.0081 0.7051
vn -0.0117 0.6531 0.7572
vn -0.6439 0.0238 0.7647
vn -0.0198 0.9656 0.2592
vn -0.8471 0.0005 0.5314
vn 0.8367 -0.0194 0.5473
vn 0.0281 -0.7713 0.6358
vn -0.0282 0.7736 0.6330
vn 0.0093 -0.9764 0.2156
vn -0.0001 0.9630 0.2697
vn 0.0031 -0.0055 1.0000
vn 0.6491 0.0071 0.7606
vn -0.0136 0.7457 0.6662
vn -0.7352 -0.0120 0.6778
vn 0.0131 -0.6193 0.7850
vn 0.0049 -0.0000 1.0000
vn 0.0048 -0.8377 0.5461
vn 0.7533 -0.0006 0.6576
vn -0.7647 0.0006 0.6444
vn 0.0007 0.9446 0.3283
vn -0.0007 -0.9446 0.3283
vn 0.8337 0.0436 0.5504
vn -0.0377 0.0282 0.9989
vn -0.0349 0.0278 0.9990
vn -0.0382 0.0289 0.9989
vn -0.0245 0.0174 0.9995
vn -0.0333 0.0275 0.9991
vn -0.0353 0.0240 0.9991
vn -0.0314 0.0310 0.9990
vn -0.0035 0.9527 0.3040
vn -0.9774 0.0144 0.2108
vn 0.7447 -0.0125 0.6673
vn -0.8564 -0.0471 0.5142
vn -0.0014 -0.0023 1.0000
vn 0.0002 0.8098 0.5867
vn 0.9397 -0.0015 0.3421
vn -0.0010 -0.9373 0.3485
vn -0.0033 0.0112 0.9999
vn -0.0313 -0.8419 0.5387
vn -0.8309 0.0248 0.5559
vn 0.0286 0.8250 0.5644
vn -0.0030 -0.0030 1.0000
vn -0.0060 -0.0002 1.0000
vn -0.0098 0.0039 0.9999
vn -0.0089 0.0026 1.0000
vn -0.5768 0.0318 0.8163
vn 0.9110 -0.0001 0.4124
vn -0.0283 0.5890 0.8076
vn -0.0005 -0.6370 0.7709
vn -0.0084 -0.0084 0.9999
vn 0.8194 0.0156 0.5731
vn -0.0007 -0.8841 0.4672
vn -0.8839 0.0007 0.4676
vn -0.0002 -0.2440 0.9698
vn -0.8001 0.0006 0.5999
vn 0.0007 0.9607 0.2775
vn 0.0447 -0.0061 0.9990
vn -0.0310 -0.0005 0.9995
vn 0.7883 -0.0008 0.6152
vn -0.0131 -0.8942 0.4474
vn 0.0030 -0.8591 0.5118
vn -0.0033 0.8879 0.4601
vn -0.9563 0.0007 0.2923
vn 0.9563 -0.0007 0.2923
vn 0.0007 0.9564 0.2920
vn -0.0019 -0.0013 1.0000
vn 0.0134 0.9928 0.1188
vn -0.0111 -0.7802 0.6254
vn -0.8819 0.0086 0.4714
vn 0.0893 0.0225 0.9958
vn -0.0813 -0.0024 0.9967
vn 0.0608 -0.8307 0.5534
vn 0.8485 -0.0007 0.5292
vn 0.0426 0.9847 0.1689
vn -0.0664 -0.8359 0.5448
vn 0.0961 0.0120 0.9953
vn 0.9889 -0.0011 -0.1487
vn -0.8274 0.0035 0.5616
vn -0.0008 0.9986 -0.0524
vn -0.1428 -0.0257 0.9894
vn -0.4914 -0.0072 0.8709
vn -0.0565 -0.6660 0.7438
vn 0.7791 -0.0137 0.6268
usemtl Material.013
s 1
f 1/1/1 2/2/1 3/3/1 4/4/1
f 2/2/2 5/5/2 6/6/2 3/3/2
f 7/7/3 8/8/3 9/9/3 10/10/3
f 10/11/4 11/12/4 12/13/4 7/14/4
f 13/15/5 14/16/5 15/17/5 16/18/5
f 17/19/6 7/14/6 12/13/6 18/20/6
f 15/17/4 14/16/4 19/21/4 20/22/4
f 20/22/4 19/21/4 21/23/4 22/24/4
f 22/24/4 21/23/4 23/25/4 24/26/4
f 24/26/4 23/25/4 11/12/4 10/11/4
f 16/27/7 15/28/7 20/29/7 25/30/7
f 25/30/8 26/31/8 27/32/8 28/33/8
f 24/34/9 29/35/9 30/36/10 22/37/10
f 31/38/11 32/39/11 33/40/11 10/41/11
f 34/42/2 35/43/2 36/44/2 37/45/2
f 37/45/2 36/44/2 38/46/2 39/47/2
f 39/47/2 38/46/2 40/48/2 41/49/2
f 41/49/2 40/48/2 5/5/2 2/2/2
f 42/50/1 34/42/1 37/45/1 43/51/1
f 43/51/1 37/45/1 39/47/1 44/52/1
f 44/52/1 39/47/1 41/49/1 45/53/1
f 45/53/1 41/49/1 2/2/1 1/1/1
f 23/25/1 46/54/1 47/55/1 11/12/1
f 46/54/1 48/56/1 49/57/1 47/55/1
f 48/56/1 50/58/1 51/59/1 49/57/1
f 50/58/1 45/53/1 1/1/1 51/59/1
f 21/23/1 52/60/1 46/54/1 23/25/1
f 52/60/1 53/61/1 48/56/1 46/54/1
f 53/61/1 54/62/1 50/58/1 48/56/1
f 54/62/1 44/52/1 45/53/1 50/58/1
f 19/21/1 55/63/1 52/60/1 21/23/1
f 55/63/1 56/64/1 53/61/1 52/60/1
f 56/64/1 57/65/1 54/62/1 53/61/1
f 57/65/1 43/51/1 44/52/1 54/62/1
f 14/16/1 13/15/1 55/63/1 19/21/1
f 13/15/1 58/66/1 56/64/1 55/63/1
f 58/66/1 59/67/1 57/65/1 56/64/1
f 59/67/1 42/50/1 43/51/1 57/65/1
f 5/68/12 60/69/12 61/70/12 62/71/12
f 63/72/13 64/73/13 65/74/13 62/75/13
f 17/76/14 66/77/14 67/78/14 31/79/14
f 68/80/15 69/81/15 70/82/15 71/83/15
f 38/84/16 72/85/16 73/86/16 40/87/16
f 40/88/17 73/86/17 74/89/17 63/90/17
f 75/91/18 76/92/18 77/93/18 78/94/18
f 78/95/19 77/93/19 79/96/19 80/97/19
f 81/98/20 82/99/20 83/100/20 84/101/20
f 78/102/21 85/103/21 86/104/21 84/105/21
f 28/33/22 87/106/22 88/107/22 25/30/22
f 89/108/23 90/109/23 91/110/23 71/83/23
f 35/111/24 92/112/24 93/113/24 36/114/24
f 84/105/25 94/115/25 95/116/25 78/102/25
f 96/117/26 97/118/26 98/119/26 78/120/26
f 25/30/27 99/121/27 100/122/27 16/27/27
f 6/6/6 101/123/6 4/4/6 3/3/6
f 101/123/6 102/124/6 103/125/6 4/4/6
f 102/124/6 104/126/6 105/127/6 103/125/6
f 104/126/6 17/19/6 18/20/6 105/127/6
f 34/42/5 42/50/5 106/128/5 35/43/5
f 42/50/5 59/67/5 96/129/5 106/128/5
f 59/67/5 58/66/5 107/130/5 96/129/5
f 58/66/5 13/15/5 16/18/5 107/130/5
f 62/71/28 108/131/28 109/132/28 5/68/28
f 101/133/29 110/134/29 111/135/29 102/136/29
f 71/83/30 70/82/30 112/137/30 89/108/30
f 104/138/31 113/139/31 66/77/31 17/140/31
f 11/12/1 47/55/1 18/20/1 12/13/1
f 47/55/1 49/57/1 105/127/1 18/20/1
f 49/57/1 51/59/1 103/125/1 105/127/1
f 51/59/1 1/1/1 4/4/1 103/125/1
f 79/96/32 114/141/32 91/110/32 90/109/32
f 114/141/32 87/106/32 115/142/32 91/110/32
f 77/93/32 76/92/32 114/141/32 79/96/32
f 76/92/32 88/107/32 87/106/32 114/141/32
f 68/143/33 115/142/33 87/106/33 28/33/33
f 71/83/34 91/110/34 115/142/34 68/80/34
f 80/97/35 79/96/35 90/109/35 89/144/35
f 25/145/36 88/107/36 76/92/36 75/91/36
f 116/146/37 117/147/37 61/70/37 60/69/37
f 63/90/38 117/147/38 116/146/38 40/88/38
f 62/75/39 61/70/39 117/147/39 63/72/39
f 40/148/40 116/146/40 60/69/40 5/149/40
f 64/73/7 118/150/7 119/151/7 65/74/7
f 62/152/41 65/74/41 119/151/41 120/153/41
f 89/154/42 118/150/42 64/73/42 63/90/42
f 120/155/43 119/151/43 118/150/43 89/156/43
f 112/137/44 70/82/44 121/157/45 122/158/46
f 70/82/47 69/81/47 67/78/47 121/157/47
f 122/158/46 121/157/45 113/139/48 123/159/49
f 121/157/45 67/78/50 66/77/50 113/139/48
f 102/160/51 123/159/51 113/139/51 104/138/51
f 120/161/52 122/158/52 123/159/52 102/162/52
f 31/79/53 67/78/53 69/81/53 68/80/53
f 89/163/54 112/137/54 122/158/54 120/161/54
f 97/118/55 124/164/55 125/165/55 98/119/55
f 78/94/56 98/119/56 125/165/56 75/91/56
f 75/166/57 125/165/57 124/164/57 107/167/57
f 107/168/58 124/164/58 97/118/58 96/169/58
f 126/170/59 100/122/59 99/121/59 127/171/59
f 16/172/60 100/122/60 126/170/60 107/173/60
f 107/167/61 126/170/61 127/171/61 75/166/61
f 75/91/62 127/171/62 99/121/62 25/145/62
f 26/31/63 128/174/63 30/36/64 27/32/65
f 27/32/65 30/36/64 29/35/66 129/175/66
f 28/33/67 27/32/67 129/175/67 68/143/67
f 22/37/10 30/36/10 128/174/68 20/176/68
f 68/177/69 129/175/69 29/35/69 24/178/69
f 20/29/70 128/174/70 26/31/70 25/30/70
f 130/179/71 131/180/71 33/40/71 32/39/71
f 10/181/72 33/40/72 131/180/72 24/182/72
f 24/178/73 131/180/73 130/179/73 68/177/73
f 68/80/74 130/179/74 32/39/74 31/79/74
f 132/183/7 9/9/7 8/8/7 133/184/7
f 10/41/75 9/9/75 132/183/75 31/38/75
f 31/79/76 132/183/76 133/184/76 17/76/76
f 17/185/77 133/184/77 8/8/77 7/186/77
f 92/112/78 134/187/78 94/115/78 93/113/78
f 134/187/79 135/188/79 95/116/79 94/115/79
f 78/189/80 95/116/80 135/188/80 96/190/80
f 96/191/81 135/188/81 134/187/81 106/192/81
f 106/192/82 134/187/82 92/112/82 35/193/82
f 36/194/83 93/113/83 94/115/83 84/105/83
f 86/104/7 85/103/7 136/195/7 137/196/7
f 84/197/84 86/104/84 137/196/84 81/198/84
f 80/199/85 136/195/85 85/103/85 78/200/85
f 81/201/86 137/196/86 136/195/86 80/202/86
f 138/203/87 83/100/87 82/99/87 139/204/87
f 38/205/88 139/204/88 82/99/88 81/201/88
f 84/105/89 83/100/89 138/203/89 36/194/89
f 36/206/90 138/203/90 139/204/90 38/207/90
f 72/85/91 140/208/91 74/89/91 73/86/91
f 140/208/92 141/209/92 142/210/92 74/89/92
f 81/201/93 140/208/93 72/85/93 38/205/93
f 89/211/94 142/210/94 141/209/94 80/212/94
f 63/90/95 74/89/95 142/210/95 89/154/95
f 80/202/96 141/209/96 140/208/96 81/201/96
f 109/132/97 108/131/97 143/213/97 144/214/97
f 101/215/98 143/213/98 108/131/98 62/216/98
f 5/217/99 109/132/99 144/214/99 6/218/99
f 6/219/100 144/214/100 143/213/100 101/220/100
f 145/221/101 146/222/101 111/135/101 110/134/101
f 62/216/102 145/221/102 110/134/102 101/215/102
f 120/153/103 146/222/103 145/221/103 62/152/103
f 102/223/104 111/135/104 146/222/104 120/224/104
