# Blender v2.90.0 OBJ File: 'Basic_Building mats.blend'
# www.blender.org
mtllib door.mtl
o Cube.018_Cube.019
v 0.095202 -1.024097 -0.790052
v 0.095202 1.143954 -0.790052
v 0.390829 -1.024097 -0.790052
v 0.390829 1.143954 -0.790052
v 0.095202 -1.024097 0.819998
v 0.095202 1.143954 0.819998
v 0.390829 -1.024097 0.819998
v 0.390829 1.143954 0.819998
v -0.068362 -0.074352 0.188226
v 0.003440 -0.085687 0.354377
v -0.051174 0.036151 0.185491
v -0.013705 0.017044 0.331644
v 0.012610 -0.024267 0.562089
v -0.001803 0.068818 0.488280
v 0.038243 0.097548 0.703230
v 0.020165 0.165929 0.630766
v 0.060827 0.212049 0.753844
v 0.061211 0.268280 0.702594
v -0.012307 0.087152 0.178429
v -0.036538 0.096532 0.321413
v -0.026218 0.138476 0.457576
v 0.009920 0.233943 0.603780
v 0.046621 0.327995 0.626125
v -0.032588 0.161284 0.314718
v -0.030488 0.199378 0.429148
v -0.063634 0.237892 0.329904
v -0.059504 0.249439 0.403286
v 0.031736 0.302171 0.541361
v -0.054752 0.304392 0.440356
v 0.048742 0.427605 0.559054
v -0.057517 0.350019 0.427576
v 0.049582 0.546058 0.471020
v -0.062303 0.393338 0.386302
v 0.005118 0.499010 0.267862
v -0.065934 0.381588 0.325387
v 0.032226 0.414663 0.131176
v -0.070375 0.320917 0.287584
v 0.001886 0.177606 0.159704
v -0.068415 0.272330 0.291794
v -0.047565 0.268513 0.339572
v -0.045259 0.274960 0.380539
v -0.042607 0.305638 0.401234
v -0.044151 0.331110 0.394099
v -0.046822 0.355293 0.371057
v -0.048849 0.348733 0.337050
v -0.051329 0.314863 0.315947
v -0.050234 0.287739 0.318297
v 0.039565 0.505832 0.067498
v -0.093311 0.199874 0.087745
v -0.147858 0.077041 0.098590
v -0.141224 -0.022422 0.135667
v -0.119174 -0.123512 0.134591
v 0.047002 -0.173465 0.141949
v 0.028909 0.449217 0.609108
v -0.007969 0.584260 0.536927
v -0.035488 0.592199 0.294421
v 0.043869 0.578157 0.048137
v -0.004057 0.526417 0.134759
v 0.003700 0.773115 0.570293
v 0.018434 0.656076 0.069667
v -0.003403 0.767808 0.209963
v 0.037703 0.604456 0.734766
v 0.029488 -0.140099 0.197372
v 0.061436 0.420476 0.760777
v 0.092670 -0.165382 0.371800
v 0.091964 -0.080873 0.561112
v 0.056212 0.074203 0.713442
v 0.062793 -0.222812 0.176207
v 0.081405 -0.212705 0.255084
v 0.093819 -0.216307 0.370073
v 0.084350 -0.217090 0.567359
v -0.104902 -0.424392 0.163763
v -0.072988 -0.420701 0.279700
v -0.049314 -0.424604 0.383532
v 0.032095 -0.424366 0.578055
v -0.077346 -0.464912 0.120883
v -0.056341 -0.461628 0.255851
v -0.015270 -0.471279 0.405777
v 0.042296 -0.474729 0.570895
v -0.036776 -0.552770 0.055164
v 0.018148 -0.747674 0.049957
v -0.025876 -0.578320 0.079223
v 0.032887 -0.755789 0.080572
v -0.035354 -0.573433 0.125552
v 0.002265 -0.733040 0.127616
v -0.027593 -0.577884 0.206894
v 0.004250 -0.733716 0.199750
v -0.017534 -0.574826 0.240221
v 0.032606 -0.752591 0.256410
v -0.034626 -0.574609 0.295702
v 0.005634 -0.734282 0.303292
v -0.032392 -0.574840 0.369531
v 0.020381 -0.724981 0.365476
v 0.032896 -0.576047 0.448927
v 0.073583 -0.720309 0.426056
v -0.068362 -0.074352 -0.189498
v 0.003440 -0.085687 -0.355649
v -0.051174 0.036151 -0.186763
v -0.013705 0.017044 -0.332916
v 0.012609 -0.024267 -0.563361
v -0.001803 0.068817 -0.489552
v 0.038243 0.097548 -0.704502
v 0.020165 0.165929 -0.632038
v 0.060827 0.212049 -0.755116
v 0.061211 0.268280 -0.703865
v -0.012307 0.087151 -0.179701
v -0.036538 0.096532 -0.322685
v -0.026218 0.138476 -0.458848
v 0.009920 0.233943 -0.605052
v 0.046621 0.327995 -0.627397
v -0.032588 0.161284 -0.315990
v -0.030489 0.199377 -0.430420
v -0.063634 0.237892 -0.331176
v -0.059504 0.249439 -0.404559
v 0.031736 0.302171 -0.542632
v -0.054752 0.304392 -0.441628
v 0.048742 0.427605 -0.560326
v -0.057518 0.350019 -0.428848
v 0.049582 0.546058 -0.472292
v -0.062303 0.393338 -0.387573
v 0.005118 0.499010 -0.269134
v -0.065934 0.381588 -0.326659
v 0.032226 0.414663 -0.132447
v -0.070375 0.320917 -0.288856
v 0.001886 0.177606 -0.160976
v -0.068415 0.272330 -0.293066
v -0.047565 0.268513 -0.340844
v -0.045260 0.274960 -0.381811
v -0.042607 0.305638 -0.402506
v -0.044151 0.331110 -0.395371
v -0.046822 0.355293 -0.372329
v -0.048849 0.348733 -0.338322
v -0.051329 0.314863 -0.317219
v -0.050234 0.287739 -0.319569
v 0.039565 0.505832 -0.068770
v -0.093311 0.199874 -0.089017
v 0.041904 0.510627 -0.000636
v -0.116196 0.220577 -0.000636
v -0.147858 0.077041 -0.099862
v -0.186049 0.103446 -0.000636
v -0.141224 -0.022422 -0.136939
v -0.204566 -0.020946 -0.000636
v -0.119174 -0.123512 -0.135863
v -0.126135 -0.171416 -0.000636
v 0.047002 -0.173465 -0.143221
v 0.079436 -0.221675 -0.000636
v 0.028909 0.449217 -0.610380
v -0.007969 0.584260 -0.538199
v -0.035488 0.592199 -0.295693
v 0.043869 0.578157 -0.049409
v -0.004057 0.526417 -0.136031
v 0.057941 0.667794 -0.000636
v 0.003700 0.773115 -0.571565
v 0.018434 0.656076 -0.070939
v 0.000609 0.709249 -0.000636
v -0.003403 0.767808 -0.211236
v 0.037703 0.604456 -0.736038
v 0.029488 -0.140099 -0.198644
v 0.061436 0.420476 -0.762048
v 0.092670 -0.165382 -0.373072
v 0.091964 -0.080873 -0.562384
v 0.056211 0.074203 -0.714714
v 0.062793 -0.222812 -0.177479
v 0.091075 -0.265798 -0.000636
v 0.081405 -0.212705 -0.256356
v 0.093819 -0.216307 -0.371345
v 0.084350 -0.217091 -0.568632
v -0.104902 -0.424392 -0.165035
v -0.106872 -0.423295 -0.000636
v -0.072989 -0.420701 -0.280972
v -0.049315 -0.424604 -0.384804
v 0.032095 -0.424366 -0.579327
v -0.077346 -0.464912 -0.122156
v -0.066739 -0.469650 -0.000636
v -0.056341 -0.461629 -0.257123
v -0.015270 -0.471279 -0.407049
v 0.042295 -0.474729 -0.572167
v -0.036776 -0.552770 -0.056436
v -0.038327 -0.550616 -0.000636
v 0.018148 -0.747674 -0.051229
v 0.000887 -0.745221 -0.000636
v -0.025876 -0.578320 -0.080495
v 0.032886 -0.755789 -0.081844
v -0.035354 -0.573434 -0.126824
v 0.002265 -0.733040 -0.128888
v -0.027593 -0.577884 -0.208166
v 0.004250 -0.733716 -0.201022
v -0.017534 -0.574826 -0.241493
v 0.032606 -0.752591 -0.257682
v -0.034626 -0.574609 -0.296974
v 0.005634 -0.734282 -0.304564
v -0.032392 -0.574840 -0.370803
v 0.020380 -0.724982 -0.366748
v 0.032896 -0.576047 -0.450199
v 0.073583 -0.720309 -0.427328
v 0.026096 -0.768295 -0.000636
vt 0.375556 0.178638
vt 0.304386 0.177752
vt 0.304507 0.168048
vt 0.375676 0.168933
vt 0.376562 0.097763
vt 0.429415 0.098421
vt 0.428529 0.169591
vt 0.499699 0.170477
vt 0.499578 0.180181
vt 0.428408 0.179296
vt 0.430421 0.017547
vt 0.429535 0.088717
vt 0.376683 0.088059
vt 0.377569 0.016889
vt 0.583411 0.295941
vt 0.596431 0.293313
vt 0.595282 0.300990
vt 0.584956 0.303767
vt 0.611441 0.297355
vt 0.606653 0.304037
vt 0.622571 0.304764
vt 0.617401 0.310246
vt 0.627182 0.313215
vt 0.623605 0.317634
vt 0.604572 0.309205
vt 0.594793 0.306780
vt 0.585480 0.307774
vt 0.615525 0.315239
vt 0.618017 0.322302
vt 0.594745 0.311390
vt 0.602831 0.313573
vt 0.600725 0.317356
vt 0.596067 0.316768
vt 0.611783 0.320654
vt 0.603107 0.320746
vt 0.613132 0.329600
vt 0.602380 0.323634
vt 0.606455 0.337131
vt 0.599844 0.326377
vt 0.591931 0.335211
vt 0.596058 0.325723
vt 0.581286 0.329331
vt 0.593539 0.322101
vt 0.584549 0.313251
vt 0.593732 0.319065
vt 0.600616 0.320906
vt 0.599319 0.319134
vt 0.596890 0.323530
vt 0.598897 0.323896
vt 0.596861 0.318859
vt 0.600225 0.322425
vt 0.595580 0.321604
vt 0.595653 0.320027
vt 0.576473 0.335908
vt 0.577152 0.312995
vt 0.571503 0.336252
vt 0.571501 0.313671
vt 0.571500 0.306348
vt 0.576856 0.305291
vt 0.571499 0.300711
vt 0.578574 0.300137
vt 0.571497 0.293100
vt 0.578084 0.295017
vt 0.571495 0.281365
vt 0.581543 0.284749
vt 0.616894 0.331451
vt 0.611381 0.341886
vt 0.594016 0.342785
vt 0.582184 0.337747
vt 0.574986 0.341116
vt 0.571503 0.346477
vt 0.576769 0.347071
vt 0.571503 0.351099
vt 0.587466 0.355755
vt 0.614299 0.355913
vt 0.626671 0.342881
vt 0.628467 0.328805
vt 0.585255 0.287623
vt 0.598687 0.284701
vt 0.612941 0.290489
vt 0.623522 0.302637
vt 0.584080 0.280874
vt 0.590034 0.281497
vt 0.598408 0.280951
vt 0.613076 0.280130
vt 0.571494 0.278446
vt 0.571489 0.262500
vt 0.582057 0.262749
vt 0.589941 0.262990
vt 0.597337 0.262934
vt 0.612942 0.263612
vt 0.579533 0.259377
vt 0.588637 0.259700
vt 0.571488 0.258569
vt 0.599707 0.259189
vt 0.612931 0.259705
vt 0.571486 0.252885
vt 0.575313 0.252732
vt 0.571482 0.239700
vt 0.575012 0.239023
vt 0.577292 0.238079
vt 0.576964 0.250893
vt 0.580631 0.240768
vt 0.580147 0.251526
vt 0.585256 0.240710
vt 0.585788 0.251257
vt 0.589614 0.238553
vt 0.588056 0.250767
vt 0.592693 0.241490
vt 0.591689 0.252014
vt 0.596721 0.241708
vt 0.596772 0.251957
vt 0.601942 0.239710
vt 0.604221 0.250969
vt 0.571481 0.237336
vt 0.559585 0.295946
vt 0.558043 0.303772
vt 0.547718 0.300999
vt 0.546565 0.293324
vt 0.536349 0.304050
vt 0.531560 0.297371
vt 0.525607 0.310261
vt 0.520436 0.304782
vt 0.519407 0.317649
vt 0.515830 0.313232
vt 0.548208 0.306788
vt 0.538432 0.309216
vt 0.557521 0.307778
vt 0.527484 0.315252
vt 0.524995 0.322314
vt 0.548258 0.311397
vt 0.546938 0.316774
vt 0.542281 0.317364
vt 0.540174 0.313582
vt 0.539900 0.320754
vt 0.531227 0.320664
vt 0.540628 0.323641
vt 0.529880 0.329608
vt 0.543164 0.326383
vt 0.536557 0.337135
vt 0.546949 0.325728
vt 0.551077 0.335214
vt 0.549466 0.322106
vt 0.561720 0.329333
vt 0.549273 0.319071
vt 0.558453 0.313255
vt 0.543687 0.319141
vt 0.542391 0.320913
vt 0.544110 0.323902
vt 0.546117 0.323536
vt 0.546145 0.318865
vt 0.542783 0.322432
vt 0.547426 0.321610
vt 0.547353 0.320033
vt 0.565850 0.312997
vt 0.566533 0.335908
vt 0.566143 0.305293
vt 0.564424 0.300140
vt 0.564911 0.295019
vt 0.561448 0.284754
vt 0.531633 0.341890
vt 0.526120 0.331459
vt 0.548993 0.342787
vt 0.560823 0.337748
vt 0.568021 0.341116
vt 0.566238 0.347070
vt 0.555543 0.355752
vt 0.528719 0.355913
vt 0.516348 0.342888
vt 0.514550 0.328817
vt 0.544306 0.284714
vt 0.557737 0.287629
vt 0.530057 0.290508
vt 0.519484 0.302657
vt 0.552956 0.281506
vt 0.558910 0.280880
vt 0.529916 0.280151
vt 0.544582 0.280964
vt 0.560922 0.262756
vt 0.545644 0.262949
vt 0.553039 0.263001
vt 0.530041 0.263636
vt 0.554341 0.259710
vt 0.563444 0.259382
vt 0.530050 0.259729
vt 0.543272 0.259206
vt 0.567660 0.252734
vt 0.567950 0.239026
vt 0.566007 0.250896
vt 0.565671 0.238083
vt 0.562825 0.251532
vt 0.562334 0.240775
vt 0.557185 0.251266
vt 0.557709 0.240720
vt 0.554917 0.250778
vt 0.553350 0.238566
vt 0.551285 0.252027
vt 0.550274 0.241505
vt 0.546202 0.251974
vt 0.546247 0.241725
vt 0.538754 0.250990
vt 0.541025 0.239731
vn 0.0000 0.0000 -1.0000
vn 1.0000 0.0000 -0.0000
vn 0.0000 0.0000 1.0000
vn -1.0000 0.0000 0.0000
vn 0.0000 -1.0000 -0.0000
vn 0.0000 1.0000 0.0000
vn -0.9419 0.0400 0.3335
vn -0.9892 -0.1138 0.0926
vn -0.9820 -0.0284 0.1868
vn -0.9550 0.1295 0.2670
vn -0.9532 -0.2593 0.1553
vn -0.9905 0.1283 0.0497
vn -0.9533 -0.1247 0.2751
vn -0.8978 0.1583 0.4110
vn -0.8992 -0.4146 0.1394
vn -0.7650 -0.2405 0.5974
vn -0.7764 0.0466 0.6286
vn -0.8190 0.3460 0.4578
vn -0.8290 0.5587 0.0266
vn -0.8653 0.3245 -0.3821
vn -0.8574 0.0263 -0.5140
vn -0.9113 -0.3415 -0.2299
vn -0.9227 0.2673 -0.2779
vn -0.8979 -0.4192 0.1344
vn -0.8820 0.4706 -0.0244
vn -0.9443 -0.1406 -0.2976
vn -0.8274 -0.2521 0.5018
vn -0.8575 0.3237 0.4000
vn -0.9326 -0.2976 -0.2042
vn -0.8286 0.0151 0.5597
vn -0.6908 0.2680 0.6716
vn -0.8803 0.4361 0.1866
vn -0.8156 0.4398 0.3760
vn -0.9072 0.1152 0.4047
vn -0.8881 -0.3560 0.2908
vn -0.2541 -0.9210 0.2953
vn -0.4949 0.3480 0.7962
vn -0.5456 0.2511 0.7995
vn -0.9781 0.0831 -0.1907
vn -0.9989 0.0104 0.0462
vn -0.9531 0.2499 0.1711
vn -0.9703 0.2185 0.1038
vn -0.8508 -0.3618 -0.3811
vn -0.7254 -0.6655 0.1756
vn -0.9366 -0.3503 -0.0076
vn -0.8446 -0.2592 -0.4684
vn -0.9939 0.0819 -0.0734
vn -0.8402 -0.1105 -0.5309
vn -0.7531 -0.4328 -0.4954
vn -0.9744 0.0693 -0.2141
vn -0.9902 0.1269 0.0574
vn -0.9722 -0.0482 0.2293
vn -0.9387 -0.1785 -0.2949
vn -0.9762 -0.1059 0.1893
vn -0.9878 -0.0544 0.1460
vn -1.0000 0.0031 -0.0041
vn -0.5875 0.2480 0.7703
vn -0.5884 -0.0072 0.8086
vn -0.6199 -0.7675 0.1632
vn -0.6196 -0.7323 0.2824
vn -0.3441 -0.6952 0.6311
vn -0.5571 -0.6135 0.5597
vn -0.9063 -0.3999 0.1369
vn -0.9989 0.0337 -0.0336
vn -0.9460 -0.3110 -0.0910
vn -0.9291 -0.3028 0.2125
vn -0.6913 0.7088 -0.1403
vn -0.7976 0.5839 0.1516
vn -0.8890 0.4275 0.1638
vn -0.7740 0.6133 0.1573
vn -0.7932 -0.5807 0.1834
vn -0.7926 -0.6096 -0.0162
vn -0.8758 -0.3472 0.3353
vn -0.8483 -0.4943 0.1900
vn -0.9305 -0.3638 -0.0422
vn -0.9591 -0.2339 0.1594
vn -0.9233 -0.2846 0.2578
vn -0.9121 -0.2640 -0.3136
vn -0.9750 -0.2156 0.0547
vn -0.9114 -0.2144 0.3514
vn -0.9020 -0.2656 -0.3402
vn -0.9491 -0.2834 0.1374
vn -0.7274 -0.2879 0.6229
vn -0.9191 -0.3827 -0.0938
vn -0.9394 -0.3199 0.1232
vn -0.9467 -0.3158 -0.0633
vn -0.9818 -0.0177 0.1892
vn -0.8729 -0.2224 0.4343
vn -0.1999 -0.9550 0.2193
vn -0.5779 -0.8160 0.0123
vn -0.6870 -0.7042 0.1791
vn -0.9419 0.0400 -0.3335
vn -0.9892 -0.1138 -0.0926
vn -0.9820 -0.0284 -0.1868
vn -0.9550 0.1295 -0.2670
vn -0.9532 -0.2593 -0.1553
vn -0.9905 0.1283 -0.0497
vn -0.9533 -0.1247 -0.2751
vn -0.8978 0.1583 -0.4110
vn -0.8992 -0.4146 -0.1394
vn -0.7650 -0.2405 -0.5974
vn -0.7764 0.0466 -0.6286
vn -0.8190 0.3460 -0.4578
vn -0.8290 0.5587 -0.0266
vn -0.8653 0.3245 0.3821
vn -0.8574 0.0263 0.5140
vn -0.9113 -0.3415 0.2299
vn -0.9227 0.2673 0.2779
vn -0.8979 -0.4192 -0.1344
vn -0.8820 0.4706 0.0244
vn -0.9443 -0.1406 0.2976
vn -0.8274 -0.2521 -0.5018
vn -0.8575 0.3237 -0.4000
vn -0.9326 -0.2976 0.2042
vn -0.8286 0.0151 -0.5597
vn -0.6908 0.2680 -0.6716
vn -0.8803 0.4361 -0.1866
vn -0.8156 0.4398 -0.3760
vn -0.9072 0.1152 -0.4047
vn -0.8881 -0.3560 -0.2908
vn -0.2541 -0.9210 -0.2953
vn -0.4949 0.3480 -0.7962
vn -0.5456 0.2511 -0.7995
vn -0.9781 0.0831 0.1907
vn -0.9989 0.0104 -0.0462
vn -0.9531 0.2499 -0.1711
vn -0.9703 0.2185 -0.1038
vn -0.8508 -0.3618 0.3811
vn -0.7254 -0.6655 -0.1756
vn -0.9366 -0.3503 0.0076
vn -0.8446 -0.2592 0.4684
vn -0.9939 0.0819 0.0734
vn -0.8402 -0.1105 0.5309
vn -0.7531 -0.4328 0.4954
vn -0.9744 0.0693 0.2141
vn -0.9902 0.1269 -0.0574
vn -0.9722 -0.0482 -0.2293
vn -0.9387 -0.1785 0.2949
vn -0.9762 -0.1059 -0.1893
vn -0.9878 -0.0544 -0.1460
vn -1.0000 0.0031 0.0041
vn -0.5875 0.2480 -0.7703
vn -0.5884 -0.0072 -0.8086
vn -0.6199 -0.7675 -0.1632
vn -0.6196 -0.7323 -0.2824
vn -0.3441 -0.6952 -0.6311
vn -0.5571 -0.6135 -0.5597
vn -0.9063 -0.3999 -0.1369
vn -0.9989 0.0337 0.0336
vn -0.9460 -0.3110 0.0910
vn -0.9291 -0.3028 -0.2125
vn -0.6913 0.7088 0.1403
vn -0.7976 0.5839 -0.1516
vn -0.8890 0.4275 -0.1638
vn -0.7740 0.6133 -0.1573
vn -0.7932 -0.5807 -0.1834
vn -0.7926 -0.6096 0.0162
vn -0.8758 -0.3472 -0.3353
vn -0.8483 -0.4943 -0.1900
vn -0.9305 -0.3638 0.0422
vn -0.9591 -0.2339 -0.1594
vn -0.9233 -0.2846 -0.2578
vn -0.9121 -0.2640 0.3136
vn -0.9750 -0.2156 -0.0547
vn -0.9114 -0.2144 -0.3514
vn -0.9020 -0.2656 0.3402
vn -0.9491 -0.2834 -0.1374
vn -0.7274 -0.2879 -0.6229
vn -0.9191 -0.3827 0.0938
vn -0.9394 -0.3199 -0.1232
vn -0.9467 -0.3158 0.0633
vn -0.9818 -0.0177 -0.1892
vn -0.8729 -0.2224 -0.4343
vn -0.1999 -0.9550 -0.2193
vn -0.5779 -0.8160 -0.0123
vn -0.6870 -0.7042 -0.1791
vn -0.9981 -0.0132 0.0600
vn -0.9924 -0.0099 0.1223
vn -0.9919 -0.0163 0.1261
vn -0.9919 -0.0163 -0.1261
vn -0.9981 -0.0132 -0.0600
vn -0.9924 -0.0099 -0.1223
usemtl Material.001
s off
f 1/1/1 2/2/1 4/3/1 3/4/1
f 3/4/2 4/5/2 8/6/2 7/7/2
f 7/7/3 8/8/3 6/9/3 5/10/3
f 5/11/4 6/12/4 2/13/4 1/14/4
f 3/4/5 7/7/5 5/10/5 1/1/5
f 8/6/6 4/5/6 2/13/6 6/12/6
f 9/15/7 10/16/7 12/17/7 11/18/7
f 12/17/8 10/16/8 13/19/8 14/20/8
f 14/20/9 13/19/9 15/21/9 16/22/9
f 16/22/10 15/21/10 17/23/10 18/24/10
f 12/17/11 14/20/11 21/25/11 20/26/11
f 11/18/12 12/17/12 20/26/12 19/27/12
f 14/20/13 16/22/13 22/28/13 21/25/13
f 16/22/14 18/24/14 23/29/14 22/28/14
f 24/30/15 25/31/15 27/32/15 26/33/15
f 27/32/16 25/31/16 28/34/16 29/35/16
f 29/35/17 28/34/17 30/36/17 31/37/17
f 31/37/18 30/36/18 32/38/18 33/39/18
f 33/39/19 32/38/19 34/40/19 35/41/19
f 35/41/20 34/40/20 36/42/20 37/43/20
f 37/43/21 36/42/21 38/44/21 39/45/21
f 39/45/22 38/44/22 24/30/22 26/33/22
f 27/32/23 29/35/23 42/46/23 41/47/23
f 33/39/24 35/41/24 45/48/24 44/49/24
f 26/33/25 27/32/25 41/47/25 40/50/25
f 29/35/26 31/37/26 43/51/26 42/46/26
f 35/41/27 37/43/27 46/52/27 45/48/27
f 39/45/28 26/33/28 40/50/28 47/53/28
f 31/37/29 33/39/29 44/49/29 43/51/29
f 37/43/30 39/45/30 47/53/30 46/52/30
f 38/44/31 36/42/31 48/54/31 49/55/31
f 49/55/32 48/54/32 137/56/32 138/57/32
f 49/55/33 138/57/33 140/58/33 50/59/33
f 50/59/34 140/58/34 142/60/34 51/61/34
f 51/61/35 142/60/35 144/62/35 52/63/35
f 52/63/36 144/62/36 146/64/36 53/65/36
f 49/55/37 50/59/37 11/18/37 19/27/37
f 49/55/38 19/27/38 38/44/38
f 24/30/39 38/44/39 19/27/39 20/26/39
f 25/31/40 24/30/40 20/26/40 21/25/40
f 28/34/41 25/31/41 21/25/41 22/28/41
f 30/36/42 28/34/42 22/28/42 23/29/42
f 32/38/43 30/36/43 54/66/43 55/67/43
f 34/40/44 32/38/44 55/67/44 56/68/44
f 36/42/45 34/40/45 56/68/45 58/69/45
f 36/42/46 58/69/46 48/54/46
f 137/56/47 48/54/47 57/70/47 152/71/47
f 57/70/48 48/54/48 58/69/48 60/72/48
f 152/71/49 57/70/49 60/72/49 155/73/49
f 60/72/50 58/69/50 56/68/50 61/74/50
f 56/68/51 55/67/51 59/75/51 61/74/51
f 55/67/52 54/66/52 62/76/52 59/75/52
f 30/36/53 23/29/53 54/66/53
f 62/76/54 54/66/54 23/29/54 64/77/54
f 23/29/55 18/24/55 64/77/55
f 18/24/56 17/23/56 64/77/56
f 50/59/57 51/61/57 11/18/57
f 51/61/58 52/63/58 9/15/58 11/18/58
f 10/16/59 9/15/59 63/78/59 65/79/59
f 13/19/60 10/16/60 65/79/60 66/80/60
f 9/15/61 52/63/61 53/65/61 63/78/61
f 15/21/62 13/19/62 66/80/62 67/81/62
f 63/78/63 53/65/63 68/82/63 69/83/63
f 66/80/64 65/79/64 70/84/64 71/85/64
f 53/65/65 146/64/65 164/86/65 68/82/65
f 65/79/66 63/78/66 69/83/66 70/84/66
f 68/82/67 164/86/67 169/87/67 72/88/67
f 70/84/68 69/83/68 73/89/68 74/90/68
f 71/85/69 70/84/69 74/90/69 75/91/69
f 69/83/70 68/82/70 72/88/70 73/89/70
f 73/89/71 72/88/71 76/92/71 77/93/71
f 72/88/72 169/87/72 174/94/72 76/92/72
f 75/91/73 74/90/73 78/95/73 79/96/73
f 74/90/74 73/89/74 77/93/74 78/95/74
f 76/92/75 174/94/75 179/97/75 80/98/75
f 80/98/76 179/97/76 181/99/76 81/100/76
f 80/98/77 81/100/77 83/101/77 82/102/77
f 82/102/78 83/101/78 85/103/78 84/104/78
f 84/104/79 85/103/79 87/105/79 86/106/79
f 86/106/80 87/105/80 89/107/80 88/108/80
f 88/108/81 89/107/81 91/109/81 90/110/81
f 90/110/82 91/109/82 93/111/82 92/112/82
f 92/112/83 93/111/83 95/113/83 94/114/83
f 82/102/84 84/104/84 76/92/84 80/98/84
f 84/104/85 86/106/85 77/93/85 76/92/85
f 77/93/86 86/106/86 88/108/86 90/110/86
f 90/110/87 92/112/87 78/95/87 77/93/87
f 92/112/88 94/114/88 79/96/88 78/95/88
f 93/111/89 91/109/89 89/107/89 95/113/89
f 89/107/90 87/105/90 85/103/90 83/101/90
f 81/100/91 181/99/91 196/115/91 83/101/91
f 96/116/92 98/117/92 99/118/92 97/119/92
f 99/118/93 101/120/93 100/121/93 97/119/93
f 101/120/94 103/122/94 102/123/94 100/121/94
f 103/122/95 105/124/95 104/125/95 102/123/95
f 99/118/96 107/126/96 108/127/96 101/120/96
f 98/117/97 106/128/97 107/126/97 99/118/97
f 101/120/98 108/127/98 109/129/98 103/122/98
f 103/122/99 109/129/99 110/130/99 105/124/99
f 111/131/100 113/132/100 114/133/100 112/134/100
f 114/133/101 116/135/101 115/136/101 112/134/101
f 116/135/102 118/137/102 117/138/102 115/136/102
f 118/137/103 120/139/103 119/140/103 117/138/103
f 120/139/104 122/141/104 121/142/104 119/140/104
f 122/141/105 124/143/105 123/144/105 121/142/105
f 124/143/106 126/145/106 125/146/106 123/144/106
f 126/145/107 113/132/107 111/131/107 125/146/107
f 114/133/108 128/147/108 129/148/108 116/135/108
f 120/139/109 131/149/109 132/150/109 122/141/109
f 113/132/110 127/151/110 128/147/110 114/133/110
f 116/135/111 129/148/111 130/152/111 118/137/111
f 122/141/112 132/150/112 133/153/112 124/143/112
f 126/145/113 134/154/113 127/151/113 113/132/113
f 118/137/114 130/152/114 131/149/114 120/139/114
f 124/143/115 133/153/115 134/154/115 126/145/115
f 125/146/116 136/155/116 135/156/116 123/144/116
f 136/155/117 138/57/117 137/56/117 135/156/117
f 136/155/118 139/157/118 140/58/118 138/57/118
f 139/157/119 141/158/119 142/60/119 140/58/119
f 141/158/120 143/159/120 144/62/120 142/60/120
f 143/159/121 145/160/121 146/64/121 144/62/121
f 136/155/122 106/128/122 98/117/122 139/157/122
f 136/155/123 125/146/123 106/128/123
f 111/131/124 107/126/124 106/128/124 125/146/124
f 112/134/125 108/127/125 107/126/125 111/131/125
f 115/136/126 109/129/126 108/127/126 112/134/126
f 117/138/127 110/130/127 109/129/127 115/136/127
f 119/140/128 148/161/128 147/162/128 117/138/128
f 121/142/129 149/163/129 148/161/129 119/140/129
f 123/144/130 151/164/130 149/163/130 121/142/130
f 123/144/131 135/156/131 151/164/131
f 137/56/132 152/71/132 150/165/132 135/156/132
f 150/165/133 154/166/133 151/164/133 135/156/133
f 152/71/134 155/73/134 154/166/134 150/165/134
f 154/166/135 156/167/135 149/163/135 151/164/135
f 149/163/136 156/167/136 153/168/136 148/161/136
f 148/161/137 153/168/137 157/169/137 147/162/137
f 117/138/138 147/162/138 110/130/138
f 157/169/139 159/170/139 110/130/139 147/162/139
f 110/130/140 159/170/140 105/124/140
f 105/124/141 159/170/141 104/125/141
f 139/157/142 98/117/142 141/158/142
f 141/158/143 98/117/143 96/116/143 143/159/143
f 97/119/144 160/171/144 158/172/144 96/116/144
f 100/121/145 161/173/145 160/171/145 97/119/145
f 96/116/146 158/172/146 145/160/146 143/159/146
f 102/123/147 162/174/147 161/173/147 100/121/147
f 158/172/148 165/175/148 163/176/148 145/160/148
f 161/173/149 167/177/149 166/178/149 160/171/149
f 145/160/150 163/176/150 164/86/150 146/64/150
f 160/171/151 166/178/151 165/175/151 158/172/151
f 163/176/152 168/179/152 169/87/152 164/86/152
f 166/178/153 171/180/153 170/181/153 165/175/153
f 167/177/154 172/182/154 171/180/154 166/178/154
f 165/175/155 170/181/155 168/179/155 163/176/155
f 170/181/156 175/183/156 173/184/156 168/179/156
f 168/179/157 173/184/157 174/94/157 169/87/157
f 172/182/158 177/185/158 176/186/158 171/180/158
f 171/180/159 176/186/159 175/183/159 170/181/159
f 173/184/160 178/187/160 179/97/160 174/94/160
f 178/187/161 180/188/161 181/99/161 179/97/161
f 178/187/162 182/189/162 183/190/162 180/188/162
f 182/189/163 184/191/163 185/192/163 183/190/163
f 184/191/164 186/193/164 187/194/164 185/192/164
f 186/193/165 188/195/165 189/196/165 187/194/165
f 188/195/166 190/197/166 191/198/166 189/196/166
f 190/197/167 192/199/167 193/200/167 191/198/167
f 192/199/168 194/201/168 195/202/168 193/200/168
f 182/189/169 178/187/169 173/184/169 184/191/169
f 184/191/170 173/184/170 175/183/170 186/193/170
f 175/183/171 190/197/171 188/195/171 186/193/171
f 190/197/172 175/183/172 176/186/172 192/199/172
f 192/199/173 176/186/173 177/185/173 194/201/173
f 193/200/174 195/202/174 189/196/174 191/198/174
f 189/196/175 183/190/175 185/192/175 187/194/175
f 180/188/176 183/190/176 196/115/176 181/99/176
f 44/49/177 45/48/177 40/50/177 41/47/177
f 43/51/178 44/49/178 41/47/178 42/46/178
f 47/53/179 40/50/179 45/48/179 46/52/179
f 133/153/180 132/150/180 127/151/180 134/154/180
f 132/150/181 131/149/181 128/147/181 127/151/181
f 131/149/182 130/152/182 129/148/182 128/147/182
