# Blender v2.90.0 OBJ File: 'Basic_Building mats.blend'
# www.blender.org
mtllib Pillar.mtl
o Cube.008_Cube.010
v -0.356723 -1.639014 0.335735
v -0.304840 1.985152 0.286905
v -0.356723 -1.639014 -0.335734
v -0.304840 1.985152 -0.286904
v 0.356722 -1.639014 0.335735
v 0.304840 1.985152 0.286905
v 0.356722 -1.639014 -0.335734
v 0.304840 1.985152 -0.286904
v -0.304840 1.417635 0.286905
v -0.304840 1.417635 -0.286904
v 0.304840 1.417635 -0.286904
v 0.304840 1.417635 0.286905
v -0.419893 1.417635 0.395189
v -0.419893 1.985152 0.395189
v -0.419893 1.985152 -0.395187
v 0.419892 1.985152 -0.395187
v 0.419892 1.985152 0.395189
v -0.419893 1.417635 -0.395187
v 0.419892 1.417635 -0.395187
v 0.419892 1.417635 0.395189
v -0.356723 1.283110 -0.335734
v 0.356722 1.283110 -0.335734
v 0.356722 1.283110 0.335735
v -0.356723 1.283110 0.335735
v -0.356723 -1.294405 -0.335734
v 0.356722 -1.294405 -0.335734
v 0.356722 -1.294405 0.335735
v -0.356723 -1.294405 0.335735
v -0.356723 -1.187978 0.335735
v -0.356723 -1.187978 -0.335734
v 0.356722 -1.187978 -0.335734
v 0.356722 -1.187978 0.335735
v -0.356723 -0.961863 0.335735
v -0.356723 -0.961863 -0.335734
v 0.356722 -0.961863 -0.335734
v 0.356722 -0.961863 0.335735
v -0.334688 1.109328 0.314996
v -0.334688 1.109328 -0.314996
v 0.334687 1.109328 -0.314996
v 0.334687 1.109328 0.314996
v -0.356723 0.968504 -0.335734
v 0.356722 0.968504 -0.335734
v 0.356722 0.968504 0.335735
v -0.356723 0.968504 0.335735
v -0.405814 -1.639014 -0.381937
v -0.405814 -1.639014 0.381938
v -0.405814 -1.294405 -0.381937
v 0.405813 -1.639014 -0.381937
v 0.405813 -1.294405 -0.381937
v 0.405813 -1.639014 0.381938
v 0.405813 -1.294405 0.381938
v -0.405814 -1.294405 0.381938
v -0.392829 -0.961863 -0.369716
v -0.392829 -1.187978 -0.369716
v 0.392828 -0.961863 -0.369716
v 0.392828 -1.187978 -0.369716
v 0.392828 -0.961863 0.369717
v 0.392828 -1.187978 0.369717
v -0.392829 -1.187978 0.369717
v -0.392829 -0.961863 0.369717
vt 0.732940 0.731774
vt 0.688071 0.731774
vt 0.679604 0.722777
vt 0.741407 0.722777
vt 0.819782 0.704105
vt 0.769972 0.718550
vt 0.755049 0.709981
vt 0.819122 0.691863
vt 0.688071 0.779447
vt 0.732940 0.779447
vt 0.741407 0.788444
vt 0.679604 0.788444
vt 0.929326 0.719822
vt 0.880304 0.707578
vt 0.884071 0.697706
vt 0.932721 0.712921
vt 0.671041 0.823146
vt 0.726829 0.823146
vt 0.726829 0.875651
vt 0.671041 0.875651
vt 0.821369 0.718535
vt 0.878851 0.719835
vt 0.769742 0.730834
vt 0.926213 0.729899
vt 0.968585 0.741426
vt 0.968162 0.747397
vt 0.898619 0.655598
vt 0.951308 0.681506
vt 0.994849 0.710685
vt 0.975130 0.740109
vt 0.743471 0.649036
vt 0.823811 0.640067
vt 0.876826 0.733922
vt 0.922378 0.742927
vt 0.963193 0.757395
vt 0.773960 0.741504
vt 0.822455 0.732635
vt 0.667202 0.819533
vt 0.730667 0.819533
vt 0.791144 0.926323
vt 0.850275 0.939582
vt 0.849741 0.943915
vt 0.789573 0.929528
vt 0.911022 0.941455
vt 0.978176 0.925792
vt 0.985352 0.929976
vt 0.910918 0.946683
vt 0.730667 0.879264
vt 0.667202 0.879264
vt 0.793817 0.918122
vt 0.851140 0.931961
vt 0.742423 0.902646
vt 0.744669 0.897462
vt 0.909432 0.931871
vt 0.976671 0.919017
vt 0.756641 0.869527
vt 0.803069 0.896331
vt 0.802007 0.898497
vt 0.753657 0.870395
vt 0.794705 0.914970
vt 0.851796 0.928989
vt 0.855907 0.906110
vt 0.908877 0.906518
vt 0.909046 0.909875
vt 0.855696 0.908948
vt 0.909036 0.929075
vt 0.978816 0.916110
vt 0.823243 0.744132
vt 0.875788 0.744589
vt 0.774570 0.751851
vt 0.919971 0.752224
vt 0.962158 0.764970
vt 0.966649 0.886834
vt 0.778993 0.953504
vt 0.841771 0.973928
vt 0.726986 0.927466
vt 0.738732 0.904004
vt 0.910142 0.981347
vt 0.992718 0.971048
vt 0.742900 0.892716
vt 0.971716 0.889171
vn 0.0000 1.0000 0.0000
vn 0.0000 -1.0000 0.0000
vn 0.0000 0.3412 0.9400
vn 0.9330 0.3598 0.0000
vn 0.0000 0.3412 -0.9400
vn -0.9330 0.3598 0.0000
vn -1.0000 0.0000 0.0000
vn 0.0000 0.0000 -1.0000
vn 1.0000 0.0000 0.0000
vn 0.0000 0.0000 1.0000
vn -0.9921 -0.1258 0.0000
vn 0.0000 -0.1185 -0.9930
vn 0.9921 -0.1258 0.0000
vn 0.0000 -0.1185 0.9930
vn 0.0000 0.1457 0.9893
vn 0.9880 0.1546 0.0000
vn 0.0000 0.1457 -0.9893
vn -0.9880 0.1546 0.0000
usemtl Material.001
s off
f 2/1/1 4/2/1 15/3/1 14/4/1
f 12/5/2 11/6/2 19/7/2 20/8/2
f 8/9/1 6/10/1 17/11/1 16/12/1
f 10/13/2 9/14/2 13/15/2 18/16/2
f 3/17/2 7/18/2 5/19/2 1/20/2
f 8/9/1 4/2/1 2/1/1 6/10/1
f 23/21/3 12/5/3 9/14/3 24/22/3
f 22/23/4 11/6/4 12/5/4 23/21/4
f 21/24/5 10/13/5 11/25/5 22/26/5
f 24/22/6 9/14/6 10/13/6 21/24/6
f 13/15/7 14/27/7 15/28/7 18/16/7
f 18/16/8 15/28/8 16/29/8 19/30/8
f 19/7/9 16/31/9 17/32/9 20/8/9
f 20/8/10 17/32/10 14/27/10 13/15/10
f 6/10/1 2/1/1 14/4/1 17/11/1
f 11/25/2 10/13/2 18/16/2 19/30/2
f 9/14/2 12/5/2 20/8/2 13/15/2
f 4/2/1 8/9/1 16/12/1 15/3/1
f 37/33/11 24/22/11 21/24/11 38/34/11
f 38/34/12 21/24/12 22/26/12 39/35/12
f 39/36/13 22/23/13 23/21/13 40/37/13
f 40/37/14 23/21/14 24/22/14 37/33/14
f 7/18/2 3/17/2 45/38/2 48/39/2
f 27/40/1 28/41/1 52/42/1 51/43/1
f 25/44/1 26/45/1 49/46/1 47/47/1
f 1/20/2 5/19/2 50/48/2 46/49/2
f 27/40/10 32/50/10 29/51/10 28/41/10
f 26/52/9 31/53/9 32/50/9 27/40/9
f 25/44/8 30/54/8 31/55/8 26/45/8
f 28/41/7 29/51/7 30/54/7 25/44/7
f 35/56/1 36/57/1 57/58/1 55/59/1
f 29/51/2 32/50/2 58/60/2 59/61/2
f 33/62/1 34/63/1 53/64/1 60/65/1
f 31/55/2 30/54/2 54/66/2 56/67/2
f 43/68/15 40/37/15 37/33/15 44/69/15
f 42/70/16 39/36/16 40/37/16 43/68/16
f 41/71/17 38/34/17 39/35/17 42/72/17
f 44/69/18 37/33/18 38/34/18 41/71/18
f 33/62/7 44/69/7 41/71/7 34/63/7
f 34/63/8 41/71/8 42/72/8 35/73/8
f 35/56/9 42/70/9 43/68/9 36/57/9
f 36/57/10 43/68/10 44/69/10 33/62/10
f 50/74/10 51/43/10 52/42/10 46/75/10
f 48/76/9 49/77/9 51/43/9 50/74/9
f 45/78/8 47/47/8 49/46/8 48/79/8
f 46/75/7 52/42/7 47/47/7 45/78/7
f 3/17/2 1/20/2 46/49/2 45/38/2
f 28/41/1 25/44/1 47/47/1 52/42/1
f 5/19/2 7/18/2 48/39/2 50/48/2
f 26/52/1 27/40/1 51/43/1 49/77/1
f 58/60/10 57/58/10 60/65/10 59/61/10
f 56/80/9 55/59/9 57/58/9 58/60/9
f 54/66/8 53/64/8 55/81/8 56/67/8
f 59/61/7 60/65/7 53/64/7 54/66/7
f 30/54/2 29/51/2 59/61/2 54/66/2
f 32/50/2 31/53/2 56/80/2 58/60/2
f 34/63/1 35/73/1 55/81/1 53/64/1
f 36/57/1 33/62/1 60/65/1 57/58/1
