# Blender v2.90.0 OBJ File: 'Basic_Building mats.blend'
# www.blender.org
mtllib rock3.mtl
o Cube.012_Cube.009
v -0.974162 -1.023802 0.499739
v -1.138462 1.038429 -0.139818
v -0.768927 -0.788509 -0.323454
v -0.913789 0.902101 -0.459773
v 0.104975 -0.829009 0.705370
v 0.087158 1.242919 0.761565
v 1.923602 -0.457174 -0.210563
v 0.822357 0.171036 -0.327304
v -0.862223 -0.822489 -0.033909
v -0.554087 -0.311277 0.430972
v -0.805412 0.606427 -0.178047
v -0.647582 0.091031 -0.421539
v 0.182347 -0.671983 -0.485987
v -0.216451 1.230131 -0.995486
v 1.929575 -0.187164 -0.155124
v 0.757237 -0.746614 0.503107
v 0.512549 0.818752 -0.363321
v 0.410095 0.086954 0.711524
v -0.225081 -1.051720 0.469886
v -0.302333 1.151061 0.799216
v -0.180540 1.634943 -0.670410
v -0.067771 -0.662728 -0.122820
v -0.493694 -0.154944 0.895691
v 0.980705 -0.348479 0.587830
v 0.276803 -0.319570 -0.624675
v -1.005221 -0.514208 -0.081135
v -0.896113 -0.911990 0.007862
v -1.066784 0.569275 0.091818
v -0.819278 0.733034 -0.224797
v -0.859067 -0.489816 -0.315450
v -0.182582 -0.627697 -0.462514
v 0.358073 0.601039 -0.704243
v 1.915881 -0.349367 -0.131275
v 1.709769 -0.566511 -0.053082
v 0.449581 0.634415 -0.010229
v 0.137306 -0.674139 0.791032
v -0.028771 -0.805349 0.504459
v -0.840063 1.094296 0.067606
v -0.894744 -0.825129 -0.137031
v -0.651246 -0.800440 0.497594
v -1.117599 0.917235 -0.175386
v -0.707648 0.384622 -0.502162
v 1.185593 -0.559131 -0.427663
v -0.482386 0.728579 -0.448747
v 1.299548 -0.115647 -0.195580
v 0.297143 -0.820957 0.389603
v 0.718475 0.478596 -0.372790
v 0.221072 1.304177 1.026566
v -0.684659 -1.125871 0.434877
v -0.033856 1.173985 0.785567
v 0.303894 1.708956 -0.023464
v -0.064687 1.689790 -1.063894
v 0.098115 1.535157 -0.739509
v -0.369818 1.235281 -0.425197
v -0.409712 -1.025261 -0.050359
v 0.148065 -0.703740 -0.330889
v -0.582066 -0.902245 -0.096045
v 0.494509 -0.701128 0.047450
v -0.543743 -0.288393 0.702203
v -0.081242 0.586943 0.882877
v -0.330647 -0.637328 0.707016
v -0.310587 0.269355 0.779021
v 0.503918 -0.185609 0.532187
v 1.872427 -0.233362 -0.019142
v 1.082487 -0.608335 0.753251
v 0.928119 0.068285 0.025090
v 1.669368 -0.208188 -0.441438
v -0.281299 -0.082627 -0.537632
v 0.310034 -0.494867 -0.602672
v 0.228957 -0.155580 -0.549968
v -1.187655 -0.678027 -0.316988
v -0.612321 -0.053203 0.182461
v -0.823625 -0.637043 -0.007283
v -0.761387 0.145225 -0.123751
v -0.979258 0.450535 -0.060156
v -0.503580 -0.872832 0.010548
v -1.218968 -0.911651 -0.239640
v -0.373147 0.508223 -0.636175
v -0.203224 -0.425658 -0.522197
v 1.692686 -0.375994 -0.447066
v 1.120361 0.050323 -0.169661
v 1.928791 -0.404780 -0.089745
v 0.357705 -0.688524 0.525280
v -0.122983 1.527953 1.221889
v -0.124289 -0.504768 0.759250
v -0.308535 -0.830419 0.652783
v 1.137931 -0.607352 -0.050101
v -0.245390 -0.641712 -0.293130
v -0.786708 -0.983825 -0.042840
v -0.436817 0.837130 -0.317755
v 0.083001 1.535486 -0.935276
v 0.355731 1.222747 0.069876
v -0.567016 0.954884 0.019315
v 0.093424 -0.793079 0.159184
v -0.841557 0.550754 0.217462
v 0.485860 0.601440 0.443205
v 1.056960 -0.044998 -0.394033
v -0.741374 0.170736 -0.371905
vt 0.254639 0.540873
vt 0.279413 0.558270
vt 0.277497 0.571890
vt 0.258977 0.554755
vt 0.275162 0.289421
vt 0.220550 0.303208
vt 0.256153 0.285561
vt 0.287048 0.274807
vt 0.116919 0.254115
vt 0.098130 0.247321
vt 0.143311 0.222015
vt 0.156068 0.229732
vt 0.301172 0.531461
vt 0.316694 0.554979
vt 0.301179 0.564937
vt 0.293108 0.541539
vt 0.272487 0.410643
vt 0.288148 0.415074
vt 0.288474 0.429963
vt 0.276859 0.430763
vt 0.394996 0.572394
vt 0.373375 0.556718
vt 0.376124 0.552407
vt 0.389658 0.558107
vt 0.460032 0.582210
vt 0.446257 0.598715
vt 0.431524 0.550641
vt 0.443160 0.551257
vt 0.175252 0.300658
vt 0.166120 0.305952
vt 0.163399 0.288722
vt 0.176536 0.291877
vt 0.380787 0.594109
vt 0.369343 0.578250
vt 0.373381 0.573576
vt 0.401406 0.602526
vt 0.230726 0.422758
vt 0.245927 0.417874
vt 0.261889 0.433961
vt 0.241796 0.443648
vt 0.247483 0.395729
vt 0.263894 0.386632
vt 0.258362 0.399684
vt 0.236690 0.414764
vt 0.306014 0.378387
vt 0.320604 0.369114
vt 0.307007 0.401640
vt 0.285946 0.394600
vt 0.268387 0.446299
vt 0.287157 0.473765
vt 0.274883 0.483718
vt 0.254634 0.460571
vt 0.288804 0.448880
vt 0.333785 0.482656
vt 0.291305 0.475562
vt 0.276756 0.452284
vt 0.379390 0.529337
vt 0.353612 0.539931
vt 0.350373 0.527116
vt 0.320748 0.489560
vt 0.298177 0.419616
vt 0.323803 0.429660
vt 0.329910 0.446373
vt 0.292743 0.434826
vt 0.327791 0.363248
vt 0.335310 0.362552
vt 0.333112 0.405809
vt 0.321316 0.398342
vt 0.272991 0.273706
vt 0.238749 0.282170
vt 0.218588 0.279798
vt 0.264600 0.261584
vt 0.316992 0.355207
vt 0.317686 0.347997
vt 0.332943 0.355445
vt 0.328568 0.360510
vt 0.241237 0.377102
vt 0.230176 0.363370
vt 0.260747 0.362132
vt 0.264643 0.369066
vt 0.361169 0.614134
vt 0.372112 0.599161
vt 0.397827 0.632280
vt 0.327897 0.638357
vt 0.206139 0.425563
vt 0.201508 0.413493
vt 0.208497 0.364738
vt 0.212497 0.396780
vt 0.246383 0.480287
vt 0.270672 0.505556
vt 0.235296 0.499473
vt 0.238924 0.489580
vt 0.282893 0.541676
vt 0.295578 0.561817
vt 0.277189 0.552280
vt 0.264889 0.529244
vt 0.234163 0.478153
vt 0.234250 0.482649
vt 0.235238 0.457511
vt 0.221218 0.414985
vt 0.224927 0.404377
vt 0.214872 0.490516
vt 0.229742 0.484411
vt 0.219265 0.500756
vt 0.333109 0.618184
vt 0.320442 0.639450
vt 0.338499 0.603067
vt 0.350605 0.599511
vt 0.358839 0.579616
vt 0.246737 0.386472
vt 0.262616 0.379783
vt 0.301002 0.365481
vt 0.324019 0.361549
vt 0.311306 0.260395
vt 0.278579 0.230297
vt 0.314955 0.266173
vt 0.343431 0.493896
vt 0.300982 0.470492
vt 0.371874 0.495440
vt 0.369879 0.518427
vt 0.145541 0.215638
vt 0.172284 0.215816
vt 0.243314 0.447783
vt 0.223218 0.419524
vt 0.224639 0.424800
vt 0.227658 0.449525
vt 0.420445 0.639558
vt 0.420186 0.620790
vt 0.182791 0.316814
vt 0.105460 0.222087
vt 0.200345 0.258384
vt 0.226161 0.262219
vt 0.179458 0.257129
vt 0.359862 0.449078
vt 0.228219 0.242620
vt 0.257968 0.227093
vt 0.307170 0.280559
vt 0.253480 0.327853
vt 0.247282 0.323062
vt 0.247263 0.542895
vn -0.9670 -0.2387 -0.0893
vn 0.6477 0.7480 -0.1448
vn 0.7810 0.5888 -0.2082
vn -0.5308 0.2663 0.8046
vn -0.0702 -0.9955 -0.0640
vn 0.2962 0.5786 -0.7599
vn 0.6068 0.5226 0.5989
vn 0.4881 0.8573 0.1637
vn -0.2796 -0.1294 -0.9514
vn 0.0443 -0.9829 -0.1787
vn 0.1641 -0.9436 -0.2875
vn 0.0934 -0.9788 -0.1822
vn -0.7677 -0.0922 0.6341
vn 0.1889 -0.1772 0.9659
vn -0.9465 0.2885 0.1444
vn 0.7322 -0.2054 0.6494
vn 0.5551 0.3676 0.7462
vn 0.7174 0.6380 0.2799
vn 0.7802 -0.0118 -0.6254
vn -0.1842 -0.1101 -0.9767
vn -0.4902 -0.3008 -0.8181
vn 0.1537 -0.2605 -0.9532
vn -0.3074 -0.1917 0.9321
vn -0.3890 -0.2390 -0.8897
vn -0.8953 0.0144 0.4452
vn -0.7608 -0.5936 -0.2622
vn -0.9418 -0.2802 -0.1858
vn -0.1110 0.0838 0.9903
vn -0.3441 0.9380 -0.0416
vn -0.9927 0.0009 -0.1205
vn -0.0370 -0.4663 -0.8838
vn -0.3681 -0.4296 0.8246
vn -0.6504 0.0474 0.7582
vn -0.0294 -0.0370 -0.9989
vn -0.3414 -0.2426 -0.9081
vn -0.1386 0.2400 -0.9608
vn -0.1570 -0.3798 -0.9117
vn -0.2394 -0.1519 -0.9589
vn -0.3080 -0.0802 -0.9480
vn 0.4410 -0.6242 -0.6449
vn 0.1270 -0.5384 -0.8330
vn 0.1234 -0.0270 -0.9920
vn 0.2864 0.8250 0.4872
vn 0.2750 0.9200 -0.2791
vn 0.5363 0.2878 -0.7934
vn 0.3878 -0.8855 0.2558
vn 0.7458 -0.6223 0.2378
vn 0.9550 0.0822 0.2850
vn 0.6613 -0.5801 0.4755
vn -0.0784 -0.7775 0.6240
vn -0.2108 0.2107 0.9546
vn -0.2543 -0.1297 0.9584
vn 0.1839 -0.2670 0.9460
vn 0.0448 0.8584 -0.5111
vn 0.2819 -0.4887 0.8256
vn -0.6072 -0.5280 0.5937
vn 0.1410 -0.0476 0.9889
vn -0.1739 -0.1691 0.9701
vn 0.1934 -0.5807 0.7908
vn -0.6788 -0.4061 0.6118
vn 0.0481 -0.9982 -0.0371
vn 0.1251 -0.9838 -0.1285
vn 0.1406 -0.9663 -0.2158
vn -0.0842 -0.7121 -0.6970
vn 0.2697 -0.9629 0.0059
vn -0.1509 -0.9716 -0.1822
vn -0.4422 -0.8703 -0.2169
vn -0.3102 -0.0928 -0.9461
vn 0.0319 -0.3083 -0.9507
vn -0.9293 0.1492 -0.3378
vn -0.9353 0.3368 -0.1088
vn 0.0969 0.9873 0.1262
vn 0.8656 0.5001 -0.0234
vn 0.6848 0.0470 -0.7272
vn 0.3546 -0.1663 -0.9201
vn 0.8918 0.3013 0.3375
vn 0.9319 0.3628 -0.0010
vn 0.8233 0.4500 -0.3458
vn -0.4761 0.8774 -0.0591
vn -0.6625 0.6847 0.3038
vn -0.4750 0.6567 -0.5857
vn 0.5814 -0.8099 -0.0782
vn 0.3344 -0.7680 -0.5462
vn 0.1851 -0.9559 -0.2280
vn -0.8484 -0.1578 0.5053
vn -0.7496 0.2278 0.6215
vn -0.7638 0.0637 0.6423
vn 0.9287 0.0546 0.3669
vn 0.5869 0.4118 0.6971
vn 0.7427 0.6400 0.1970
vn 0.1844 0.9786 -0.0910
vn 0.0833 0.4916 -0.8669
vn 0.2172 -0.2305 -0.9485
vn -0.4392 0.0420 -0.8974
vn -0.8902 0.4189 0.1790
vn -0.9908 -0.1110 -0.0779
usemtl Material.001
s off
f 98/1/1 29/2/1 4/3/1 42/4/1
f 97/5/2 32/6/2 8/7/2 45/8/2
f 96/9/3 35/10/3 6/11/3 48/12/3
f 95/13/4 38/14/4 2/15/4 28/16/4
f 94/17/5 46/18/5 5/19/5 37/20/5
f 93/21/6 41/22/6 2/23/6 38/24/6
f 92/25/7 51/26/7 20/27/7 50/28/7
f 91/29/8 52/30/8 21/31/8 53/32/8
f 90/33/9 29/34/9 11/35/9 54/36/9
f 89/37/10 55/38/10 19/39/10 49/40/10
f 88/41/11 56/42/11 22/43/11 57/44/11
f 87/45/12 34/46/12 16/47/12 58/48/12
f 86/49/13 59/50/13 10/51/13 40/52/13
f 85/53/14 60/54/14 23/55/14 61/56/14
f 84/57/15 50/58/15 20/59/15 62/60/15
f 83/61/16 63/62/16 18/63/16 36/64/16
f 82/65/17 64/66/17 24/67/17 65/68/17
f 81/69/18 47/70/18 17/71/18 66/72/18
f 80/73/19 67/74/19 15/75/19 33/76/19
f 79/77/20 68/78/20 25/79/20 69/80/20
f 78/81/21 44/82/21 14/83/21 70/84/21
f 77/85/22 71/86/22 12/87/22 30/88/22
f 76/89/23 72/90/23 26/91/23 73/92/23
f 75/93/24 41/94/24 11/95/24 74/96/24
f 72/90/25 75/93/25 74/96/25 26/91/25
f 10/51/26 28/16/26 75/93/26 72/90/26
f 28/16/27 2/15/27 41/94/27 75/93/27
f 27/97/28 76/89/28 73/92/28 9/98/28
f 1/99/29 40/52/29 76/89/29 27/97/29
f 40/52/30 10/51/30 72/90/30 76/89/30
f 39/100/31 77/85/31 30/88/31 3/101/31
f 9/98/32 73/92/32 77/102/32 39/103/32
f 73/92/33 26/91/33 71/104/33 77/102/33
f 68/105/34 78/81/34 70/84/34 25/106/34
f 12/107/35 42/108/35 78/81/35 68/105/35
f 42/108/36 4/109/36 44/82/36 78/81/36
f 31/110/37 79/77/37 69/80/37 13/111/37
f 3/101/38 30/88/38 79/77/38 31/110/38
f 30/88/39 12/87/39 68/78/39 79/77/39
f 43/112/40 80/73/40 33/76/40 7/113/40
f 13/111/41 69/80/41 80/73/41 43/112/41
f 69/80/42 25/79/42 67/74/42 80/73/42
f 64/114/43 81/69/43 66/72/43 24/115/43
f 15/116/44 45/8/44 81/69/44 64/114/44
f 45/8/45 8/7/45 47/70/45 81/69/45
f 34/46/46 82/65/46 65/68/46 16/47/46
f 7/113/47 33/76/47 82/65/47 34/46/47
f 33/76/48 15/75/48 64/66/48 82/65/48
f 46/18/49 83/61/49 36/64/49 5/19/49
f 16/47/50 65/68/50 83/61/50 46/18/50
f 65/68/51 24/67/51 63/62/51 83/61/51
f 60/117/52 84/57/52 62/60/52 23/118/52
f 18/63/53 48/119/53 84/120/53 60/54/53
f 48/12/54 6/11/54 50/121/54 84/122/54
f 37/20/55 85/53/55 61/56/55 19/39/55
f 5/19/56 36/64/56 85/53/56 37/20/56
f 36/64/57 18/63/57 60/54/57 85/53/57
f 49/123/58 86/49/58 40/52/58 1/99/58
f 19/39/59 61/56/59 86/49/59 49/40/59
f 61/56/60 23/118/60 59/50/60 86/49/60
f 56/42/61 87/45/61 58/48/61 22/43/61
f 13/111/62 43/112/62 87/45/62 56/42/62
f 43/112/63 7/113/63 34/46/63 87/45/63
f 39/100/64 88/41/64 57/44/64 9/124/64
f 3/101/65 31/110/65 88/41/65 39/100/65
f 31/110/66 13/111/66 56/42/66 88/41/66
f 27/125/67 89/37/67 49/40/67 1/126/67
f 9/124/68 57/44/68 89/37/68 27/125/68
f 57/44/69 22/43/69 55/38/69 89/37/69
f 52/127/70 90/33/70 54/36/70 21/128/70
f 14/83/71 44/82/71 90/33/71 52/127/71
f 44/82/72 4/109/72 29/34/72 90/33/72
f 47/70/73 91/29/73 53/32/73 17/71/73
f 8/7/74 32/6/74 91/29/74 47/70/74
f 32/6/75 14/129/75 52/30/75 91/29/75
f 35/10/76 92/130/76 50/121/76 6/11/76
f 17/71/77 53/32/77 92/131/77 35/132/77
f 53/32/78 21/31/78 51/133/78 92/131/78
f 51/26/79 93/21/79 38/24/79 20/27/79
f 21/128/80 54/36/80 93/21/80 51/26/80
f 54/36/81 11/35/81 41/22/81 93/21/81
f 55/38/82 94/17/82 37/20/82 19/39/82
f 22/43/83 58/48/83 94/17/83 55/38/83
f 58/48/84 16/47/84 46/18/84 94/17/84
f 59/50/85 95/13/85 28/16/85 10/51/85
f 23/118/86 62/60/86 95/13/86 59/50/86
f 62/60/87 20/59/87 38/14/87 95/13/87
f 63/62/88 96/134/88 48/119/88 18/63/88
f 24/115/89 66/72/89 96/135/89 63/136/89
f 66/72/90 17/71/90 35/132/90 96/135/90
f 67/137/91 97/5/91 45/8/91 15/116/91
f 25/138/92 70/139/92 97/5/92 67/137/92
f 70/139/93 14/129/93 32/6/93 97/5/93
f 71/104/94 98/1/94 42/4/94 12/140/94
f 26/91/95 74/96/95 98/1/95 71/104/95
f 74/96/96 11/95/96 29/2/96 98/1/96
