# Blender v2.90.0 OBJ File: 'Basic_Building mats.blend'
# www.blender.org
mtllib rock2.mtl
o Cube.011_Cube.007
v -0.681473 0.198666 0.643457
v 0.117440 1.574286 0.021191
v -0.801898 -0.525166 0.188395
v -0.088241 0.330001 -0.945395
v 0.545539 -0.256044 0.887187
v 0.552221 0.588322 -0.203618
v 0.253966 -0.850183 0.418654
v 0.657995 -0.310927 -0.863695
v -0.948564 -0.180385 0.425828
v -0.392947 0.706555 0.395369
v -0.120777 0.855831 -0.196912
v -0.585044 -0.160957 -0.447684
v -0.154085 -0.866499 0.154123
v 0.207832 -0.149798 -1.001703
v 0.385603 -0.676483 -0.009890
v 0.412541 -0.625250 0.717855
v 0.641374 0.016629 -0.901385
v 0.493922 0.306203 0.448479
v -0.386727 0.011826 0.731428
v 0.258261 0.720070 0.088505
v 0.331136 0.298007 -0.754453
v -0.360389 -0.589949 0.563633
v -0.178935 0.679286 0.621201
v 0.538879 -0.391466 0.379955
v -0.035408 -0.593340 -1.018789
v -0.683830 0.146559 0.093534
v -0.823955 0.038864 0.539629
v -0.192406 1.226702 0.176750
v -0.143505 0.557196 -0.456235
v -0.651084 -0.367064 -0.111617
v -0.469770 -0.722908 0.107771
v 0.453847 -0.210235 -1.014011
v 0.308775 -0.784390 0.233416
v 0.313468 -0.749335 0.571059
v 0.612765 0.313417 -0.624832
v 0.579270 -0.082921 0.772156
v 0.288375 -0.170772 0.818535
v 0.177835 1.108986 0.054615
v -0.937786 -0.404826 0.313431
v -0.537017 0.358456 0.554175
v 0.101170 1.458310 -0.066661
v -0.363004 0.084103 -0.814156
v 0.099243 -0.885135 0.263871
v -0.014086 0.002287 -0.942003
v 0.573962 -0.533197 -0.353645
v 0.497579 -0.477442 0.831921
v 0.695176 -0.123866 -1.009162
v 0.618393 0.791845 -0.001021
v -0.628649 0.127474 0.673870
v 0.472609 0.673932 -0.088231
v 0.348169 0.567051 -0.454234
v 0.267781 0.077925 -0.831507
v 0.504605 0.166045 -0.889476
v 0.126212 0.459110 -0.505643
v -0.626308 -0.326234 0.664483
v -0.230875 -0.789843 0.439020
v -0.910757 -0.397763 0.508369
v 0.194409 -0.657953 0.656293
v -0.333591 0.711750 0.540009
v 0.233311 0.505569 0.501722
v -0.276586 0.438779 0.730926
v 0.067464 0.777372 0.369982
v 0.556657 -0.031787 0.418828
v 0.479347 -0.577656 0.233395
v 0.503534 -0.554578 0.627444
v 0.724659 -0.218528 -0.243119
v 0.198830 -0.660515 -0.850612
v -0.385226 -0.499533 -0.845446
v -0.291012 -1.081235 -0.683224
v 0.174035 -0.286604 -1.134284
v -0.763611 -0.136947 -0.107411
v -0.405427 0.677198 0.216370
v -0.831545 -0.054658 0.261658
v -0.446241 0.605579 -0.086725
v -0.218744 1.188866 0.083335
v -0.609991 0.257139 0.391410
v -0.887491 -0.280028 0.139551
v -0.197225 -0.242713 -0.970262
v -0.479827 -0.809881 -0.561432
v -0.010594 -0.999004 -0.406151
v 0.723316 -0.452663 -0.333093
v 0.391885 -0.681674 0.474626
v 0.614621 -0.364077 0.719231
v 0.440500 0.819585 0.111123
v 0.163765 0.210103 0.756964
v -0.432100 0.408799 0.655525
v 0.101846 -0.802864 0.514866
v -0.641650 -0.635189 0.365452
v -0.886238 -0.124696 0.592110
v 0.084939 0.280008 -0.671414
v 0.466454 -0.018007 -0.979710
v 0.544200 0.502231 -0.588618
v 0.204034 0.816222 -0.217466
v 0.235294 -0.488691 0.763950
v -0.078110 1.047848 0.291940
v 0.673370 0.320552 -0.155512
v 0.438041 -0.358591 -0.978670
v -0.527718 0.208895 -0.399471
vt 0.436108 0.440979
vt 0.433649 0.468544
vt 0.412129 0.451948
vt 0.418558 0.441055
vt 0.385212 0.419426
vt 0.380278 0.425395
vt 0.376280 0.411674
vt 0.392522 0.388150
vt 0.421147 0.278717
vt 0.398662 0.261598
vt 0.429754 0.262179
vt 0.443210 0.266808
vt 0.490837 0.236341
vt 0.467452 0.225169
vt 0.477631 0.194110
vt 0.495559 0.220539
vt 0.450262 0.373551
vt 0.450299 0.361307
vt 0.460119 0.358450
vt 0.465692 0.370892
vt 0.441510 0.235526
vt 0.469092 0.198708
vt 0.407422 0.253772
vt 0.418397 0.243372
vt 0.456309 0.252068
vt 0.439509 0.258762
vt 0.367040 0.250775
vt 0.377416 0.235665
vt 0.392516 0.240988
vt 0.380719 0.252638
vt 0.402914 0.468357
vt 0.458185 0.480175
vt 0.417338 0.481368
vt 0.453230 0.411821
vt 0.452524 0.404167
vt 0.466010 0.402686
vt 0.463339 0.411986
vt 0.441864 0.405596
vt 0.437487 0.394334
vt 0.444963 0.396852
vt 0.448371 0.409957
vt 0.435553 0.383067
vt 0.435148 0.374037
vt 0.442064 0.366473
vt 0.442061 0.377031
vt 0.476800 0.416459
vt 0.490585 0.430471
vt 0.484273 0.438737
vt 0.470411 0.419858
vt 0.487175 0.381332
vt 0.512850 0.392882
vt 0.497616 0.420587
vt 0.483739 0.411267
vt 0.451400 0.263512
vt 0.481314 0.258596
vt 0.452010 0.349587
vt 0.445177 0.318479
vt 0.459045 0.298586
vt 0.464954 0.334061
vt 0.429647 0.369634
vt 0.415061 0.368415
vt 0.417318 0.353577
vt 0.437790 0.358504
vt 0.382070 0.312882
vt 0.360007 0.266728
vt 0.372257 0.263269
vt 0.396557 0.304679
vt 0.413871 0.404058
vt 0.399811 0.412320
vt 0.410333 0.381335
vt 0.421545 0.379533
vt 0.420029 0.414995
vt 0.415224 0.423346
vt 0.405051 0.419983
vt 0.414826 0.411555
vt 0.408945 0.431267
vt 0.402236 0.442957
vt 0.391331 0.433948
vt 0.395626 0.427039
vt 0.444303 0.416598
vt 0.440480 0.423830
vt 0.429945 0.428851
vt 0.435392 0.418416
vt 0.462192 0.424059
vt 0.475291 0.445950
vt 0.450960 0.428625
vt 0.450119 0.419342
vt 0.489056 0.479525
vt 0.493752 0.510180
vt 0.458172 0.452909
vt 0.496203 0.478604
vt 0.503883 0.512629
vt 0.456232 0.414871
vt 0.450165 0.413890
vt 0.462923 0.415026
vt 0.445765 0.412315
vt 0.441522 0.411469
vt 0.433482 0.405734
vt 0.428690 0.396602
vt 0.426979 0.387182
vt 0.429723 0.379638
vt 0.384488 0.382589
vt 0.380073 0.368674
vt 0.365076 0.420364
vt 0.470854 0.352967
vt 0.429898 0.339091
vt 0.476249 0.283893
vt 0.505414 0.271064
vt 0.489435 0.308028
vt 0.395641 0.224444
vt 0.411740 0.227991
vt 0.384940 0.451755
vt 0.373283 0.435875
vt 0.446195 0.500506
vt 0.513168 0.262570
vt 0.519332 0.253889
vn -0.6733 0.6187 -0.4048
vn 0.4109 -0.7872 -0.4598
vn 0.8927 0.3537 -0.2793
vn 0.3845 0.3053 0.8712
vn -0.2708 -0.1432 0.9519
vn 0.9749 0.1601 -0.1550
vn 0.0372 0.9558 -0.2918
vn -0.3630 0.4328 -0.8252
vn 0.1004 0.6538 -0.7499
vn -0.2632 -0.0213 0.9645
vn -0.3360 -0.6951 0.6356
vn -0.0481 -0.7141 0.6984
vn -0.7807 0.4662 0.4161
vn 0.3110 0.4667 0.8279
vn -0.3661 0.7843 -0.5008
vn 0.9861 0.1615 -0.0397
vn 0.8881 -0.4588 -0.0276
vn 0.9887 0.1488 -0.0197
vn 0.7103 -0.6876 -0.1506
vn -0.6077 -0.3031 -0.7340
vn -0.1740 0.4646 -0.8683
vn -0.7899 -0.3774 -0.4833
vn -0.8632 0.5042 0.0268
vn -0.6022 0.4028 -0.6892
vn -0.9128 0.4076 0.0266
vn -0.9305 0.3638 0.0429
vn -0.7375 0.5905 -0.3277
vn -0.7849 0.5934 -0.1782
vn -0.7417 0.6684 -0.0553
vn -0.8991 0.4337 0.0590
vn -0.7542 -0.3713 -0.5417
vn -0.9289 0.2402 -0.2818
vn -0.8838 0.3949 -0.2507
vn -0.4345 -0.0763 -0.8975
vn -0.7967 0.0626 -0.6011
vn -0.3211 0.1020 -0.9415
vn -0.6015 -0.7700 0.2129
vn -0.8362 -0.5247 -0.1599
vn -0.9413 -0.0959 -0.3237
vn 0.4359 -0.8997 0.0225
vn -0.0430 -0.9747 0.2195
vn 0.4573 -0.7329 -0.5038
vn 0.9228 -0.2816 0.2629
vn 0.5721 -0.8197 0.0301
vn 0.7317 -0.6307 -0.2586
vn 0.6962 -0.7100 0.1056
vn 0.7634 -0.6435 0.0562
vn 0.7712 -0.6363 -0.0168
vn 0.8896 -0.1173 0.4414
vn 0.7659 -0.5939 0.2463
vn 0.9634 -0.1780 -0.2007
vn 0.4281 0.5921 0.6827
vn 0.5212 0.5059 0.6873
vn -0.2268 0.7447 -0.6277
vn -0.0732 0.0751 0.9945
vn 0.0571 0.3117 0.9485
vn 0.4599 0.5795 0.6728
vn -0.4932 0.5464 0.6769
vn -0.2848 0.1485 0.9470
vn -0.3949 0.4698 0.7896
vn -0.2011 -0.6118 0.7650
vn -0.1353 -0.9549 0.2644
vn -0.0199 -0.9092 0.4158
vn -0.8132 -0.5665 0.1333
vn -0.5632 -0.8263 -0.0037
vn -0.3917 -0.9149 0.0976
vn -0.6270 0.2817 0.7263
vn -0.9404 0.1657 0.2970
vn -0.3445 -0.4401 0.8293
vn -0.3025 0.5520 -0.7771
vn 0.1324 0.6275 -0.7673
vn 0.7629 0.5174 -0.3878
vn 0.2648 0.5115 -0.8175
vn 0.1243 -0.2941 -0.9477
vn -0.1569 0.4542 -0.8770
vn 0.8386 0.5276 -0.1355
vn 0.6773 0.4894 -0.5493
vn -0.1329 0.7046 -0.6970
vn 0.9360 0.3474 -0.0567
vn -0.1715 0.6883 -0.7048
vn -0.0089 0.4020 -0.9156
vn -0.1456 -0.1171 0.9824
vn -0.1963 -0.5064 0.8397
vn -0.1789 -0.5151 0.8382
vn -0.4231 0.5969 0.6817
vn 0.2200 0.6157 0.7566
vn 0.7093 0.3472 0.6134
vn 0.9555 0.0740 0.2856
vn 0.9694 0.0016 0.2456
vn 0.9857 0.1370 -0.0981
vn 0.5701 -0.7893 -0.2281
vn 0.3392 -0.5542 -0.7601
vn 0.3223 0.2548 -0.9117
vn -0.8783 0.1932 -0.4374
vn -0.8918 0.3877 -0.2334
vn -0.6045 0.5582 -0.5683
usemtl Material.001
s off
f 98/1/1 29/2/1 4/3/1 42/4/1
f 97/5/2 32/6/2 8/7/2 45/8/2
f 96/9/3 35/10/3 6/11/3 48/12/3
f 95/13/4 38/14/4 2/15/4 28/16/4
f 94/17/5 46/18/5 5/19/5 37/20/5
f 93/21/6 41/22/6 2/15/6 38/14/6
f 92/23/7 51/24/7 20/25/7 50/26/7
f 91/27/8 52/28/8 21/29/8 53/30/8
f 90/31/9 29/2/9 11/32/9 54/33/9
f 89/34/10 55/35/10 19/36/10 49/37/10
f 88/38/11 56/39/11 22/40/11 57/41/11
f 87/42/12 34/43/12 16/44/12 58/45/12
f 86/46/13 59/47/13 10/48/13 40/49/13
f 85/50/14 60/51/14 23/52/14 61/53/14
f 84/54/15 50/26/15 20/25/15 62/55/15
f 83/56/16 63/57/16 18/58/16 36/59/16
f 82/60/17 64/61/17 24/62/17 65/63/17
f 81/64/18 47/65/18 17/66/18 66/67/18
f 80/68/19 67/69/19 15/70/19 33/71/19
f 79/72/20 68/73/20 25/74/20 69/75/20
f 78/76/21 44/77/21 14/78/21 70/79/21
f 77/80/22 71/81/22 12/82/22 30/83/22
f 76/84/23 72/85/23 26/86/23 73/87/23
f 75/88/24 41/89/24 11/32/24 74/90/24
f 72/85/25 75/88/25 74/90/25 26/86/25
f 10/48/26 28/91/26 75/88/26 72/85/26
f 28/91/27 2/92/27 41/89/27 75/88/27
f 27/93/28 76/84/28 73/87/28 9/94/28
f 1/95/29 40/49/29 76/84/29 27/93/29
f 40/49/30 10/48/30 72/85/30 76/84/30
f 39/96/31 77/80/31 30/83/31 3/97/31
f 9/94/32 73/87/32 77/80/32 39/96/32
f 73/87/33 26/86/33 71/81/33 77/80/33
f 68/73/34 78/76/34 70/79/34 25/74/34
f 12/82/35 42/4/35 78/76/35 68/73/35
f 42/4/36 4/3/36 44/77/36 78/76/36
f 31/98/37 79/72/37 69/75/37 13/99/37
f 3/97/38 30/83/38 79/72/38 31/98/38
f 30/83/39 12/82/39 68/73/39 79/72/39
f 43/100/40 80/68/40 33/71/40 7/101/40
f 13/99/41 69/75/41 80/68/41 43/100/41
f 69/75/42 25/74/42 67/69/42 80/68/42
f 64/61/43 81/102/43 66/103/43 24/62/43
f 15/70/44 45/8/44 81/102/44 64/61/44
f 45/8/45 8/7/45 47/104/45 81/102/45
f 34/43/46 82/60/46 65/63/46 16/44/46
f 7/101/47 33/71/47 82/60/47 34/43/47
f 33/71/48 15/70/48 64/61/48 82/60/48
f 46/18/49 83/56/49 36/105/49 5/19/49
f 16/44/50 65/63/50 83/56/50 46/18/50
f 65/63/51 24/106/51 63/57/51 83/56/51
f 60/107/52 84/54/52 62/55/52 23/108/52
f 18/58/53 48/12/53 84/54/53 60/107/53
f 48/12/54 6/11/54 50/26/54 84/54/54
f 37/20/55 85/50/55 61/53/55 19/36/55
f 5/19/56 36/105/56 85/50/56 37/20/56
f 36/59/57 18/58/57 60/107/57 85/109/57
f 49/37/58 86/46/58 40/49/58 1/95/58
f 19/36/59 61/53/59 86/46/59 49/37/59
f 61/53/60 23/52/60 59/47/60 86/46/60
f 56/39/61 87/42/61 58/45/61 22/40/61
f 13/99/62 43/100/62 87/42/62 56/39/62
f 43/100/63 7/101/63 34/43/63 87/42/63
f 39/96/64 88/38/64 57/41/64 9/94/64
f 3/97/65 31/98/65 88/38/65 39/96/65
f 31/98/66 13/99/66 56/39/66 88/38/66
f 27/93/67 89/34/67 49/37/67 1/95/67
f 9/94/68 57/41/68 89/34/68 27/93/68
f 57/41/69 22/40/69 55/35/69 89/34/69
f 52/28/70 90/110/70 54/111/70 21/29/70
f 14/78/71 44/77/71 90/31/71 52/112/71
f 44/77/72 4/3/72 29/2/72 90/31/72
f 47/65/73 91/27/73 53/30/73 17/66/73
f 8/7/74 32/6/74 91/113/74 47/104/74
f 32/6/75 14/78/75 52/112/75 91/113/75
f 35/10/76 92/23/76 50/26/76 6/11/76
f 17/66/77 53/30/77 92/23/77 35/10/77
f 53/30/78 21/29/78 51/24/78 92/23/78
f 51/24/79 93/21/79 38/14/79 20/25/79
f 21/29/80 54/111/80 93/21/80 51/24/80
f 54/33/81 11/32/81 41/89/81 93/114/81
f 55/35/82 94/17/82 37/20/82 19/36/82
f 22/40/83 58/45/83 94/17/83 55/35/83
f 58/45/84 16/44/84 46/18/84 94/17/84
f 59/115/85 95/13/85 28/16/85 10/116/85
f 23/108/86 62/55/86 95/13/86 59/115/86
f 62/55/87 20/25/87 38/14/87 95/13/87
f 63/57/88 96/9/88 48/12/88 18/58/88
f 24/106/89 66/67/89 96/9/89 63/57/89
f 66/67/90 17/66/90 35/10/90 96/9/90
f 67/69/91 97/5/91 45/8/91 15/70/91
f 25/74/92 70/79/92 97/5/92 67/69/92
f 70/79/93 14/78/93 32/6/93 97/5/93
f 71/81/94 98/1/94 42/4/94 12/82/94
f 26/86/95 74/90/95 98/1/95 71/81/95
f 74/90/96 11/32/96 29/2/96 98/1/96
