# Blender v2.90.0 OBJ File: 'Basic_Building mats.blend'
# www.blender.org
mtllib pillartorch.mtl
o Cube.016_Cube.015
v 0.255244 -0.988071 -0.034427
v 0.169634 -0.776035 -0.065191
v 0.255244 -0.988071 0.087351
v 0.169634 -0.776035 0.056587
v 0.171732 -0.988071 -0.034427
v 0.086121 -0.776035 -0.065191
v 0.171732 -0.988071 0.087351
v 0.086121 -0.776035 0.056587
v 0.000197 -0.578555 -0.243707
v 0.000197 0.584162 -0.224085
v 0.144070 -0.578555 -0.196960
v 0.132536 0.584162 -0.181086
v 0.232988 -0.578555 -0.074575
v 0.214326 0.584162 -0.068512
v 0.232988 -0.578555 0.076701
v 0.214326 0.584162 0.070638
v 0.144070 -0.578555 0.199086
v 0.132536 0.584162 0.183212
v 0.000197 -0.578555 0.245833
v 0.000197 0.584162 0.226211
v -0.143675 -0.578555 0.199086
v -0.132142 0.584162 0.183212
v -0.232593 -0.578555 0.076701
v -0.213931 0.584162 0.070637
v -0.232593 -0.578555 -0.074575
v -0.213931 0.584162 -0.068512
v -0.143675 -0.578555 -0.196960
v -0.132142 0.584162 -0.181086
v 0.000197 0.093512 -0.165089
v 0.097859 0.093512 -0.133357
v 0.158217 0.093512 -0.050281
v 0.158217 0.093512 0.052407
v 0.097859 0.093512 0.135483
v 0.000197 0.093512 0.167215
v -0.097464 0.093512 0.135483
v -0.157823 0.093512 0.052407
v -0.157823 0.093512 -0.050281
v -0.097464 0.093512 -0.133357
v 0.000197 0.338837 -0.179170
v 0.106135 0.338837 -0.144748
v 0.171609 0.338837 -0.054632
v 0.171609 0.338837 0.056758
v 0.106136 0.338837 0.146874
v 0.000197 0.338837 0.181296
v -0.105741 0.338837 0.146874
v -0.171214 0.338837 0.056758
v -0.171214 0.338837 -0.054632
v -0.105741 0.338837 -0.144748
v 0.110239 -0.244147 -0.150396
v 0.178248 -0.244147 -0.056789
v 0.178248 -0.244147 0.058915
v 0.110239 -0.244147 0.152522
v 0.000197 -0.244147 0.188277
v -0.109844 -0.244147 0.152522
v -0.177853 -0.244147 0.058915
v -0.177853 -0.244147 -0.056789
v -0.109844 -0.244147 -0.150396
v 0.000197 -0.244147 -0.186151
v 0.000197 -0.629663 -0.208934
v 0.123630 -0.629663 -0.168828
v 0.199916 -0.629663 -0.063830
v 0.199916 -0.629663 0.065956
v 0.123630 -0.629663 0.170954
v 0.000197 -0.629663 0.211060
v -0.123236 -0.629663 0.170954
v -0.199522 -0.629663 0.065956
v -0.199522 -0.629663 -0.063830
v -0.123236 -0.629663 -0.168828
v 0.000197 -0.723817 -0.182009
v 0.107804 -0.723817 -0.147045
v 0.174309 -0.723817 -0.055509
v 0.174309 -0.723817 0.057635
v 0.107804 -0.723817 0.149171
v 0.000197 -0.723817 0.184135
v -0.107410 -0.723817 0.149171
v -0.173914 -0.723817 0.057635
v -0.173914 -0.723817 -0.055509
v -0.107410 -0.723817 -0.147045
v 0.000197 -0.805482 -0.202829
v 0.120042 -0.805482 -0.163889
v 0.194110 -0.805482 -0.061943
v 0.194110 -0.805482 0.064069
v 0.120042 -0.805482 0.166015
v 0.000197 -0.805482 0.204955
v -0.119647 -0.805482 0.166015
v -0.193715 -0.805482 0.064069
v -0.193715 -0.805482 -0.061943
v -0.119647 -0.805482 -0.163889
v 0.137251 0.629698 -0.187576
v 0.000197 0.629698 -0.232108
v 0.221956 0.629698 -0.070991
v 0.221956 0.629698 0.073117
v 0.137252 0.629698 0.189702
v 0.000197 0.629698 0.234234
v -0.136857 0.629698 0.189702
v -0.221561 0.629698 0.073117
v -0.221561 0.629698 -0.070991
v -0.136857 0.629698 -0.187576
v 0.127839 0.643305 -0.174621
v 0.000197 0.643305 -0.216095
v 0.206727 0.643305 -0.066042
v 0.206726 0.643305 0.068168
v 0.127839 0.643305 0.176747
v 0.000197 0.643305 0.218221
v -0.127445 0.643305 0.176747
v -0.206332 0.643305 0.068168
v -0.206332 0.643305 -0.066043
v -0.127445 0.643305 -0.174622
v 0.136980 0.664795 -0.187203
v 0.000197 0.664795 -0.231647
v 0.221517 0.664795 -0.070848
v 0.221517 0.664795 0.072974
v 0.136980 0.664795 0.189329
v 0.000197 0.664795 0.233773
v -0.136586 0.664795 0.189329
v -0.221123 0.664795 0.072974
v -0.221123 0.664795 -0.070848
v -0.136586 0.664795 -0.187203
v 0.143663 0.710370 -0.196401
v 0.000197 0.710370 -0.243016
v 0.232330 0.710370 -0.074362
v 0.232330 0.710370 0.076488
v 0.143663 0.710370 0.198527
v 0.000197 0.710370 0.245142
v -0.143269 0.710370 0.198527
v -0.231936 0.710370 0.076488
v -0.231936 0.710370 -0.074362
v -0.143269 0.710370 -0.196401
v 0.135720 0.758117 -0.185468
v 0.000197 0.758117 -0.229502
v 0.219478 0.758117 -0.070186
v 0.219478 0.758117 0.072312
v 0.135720 0.758117 0.187594
v 0.000197 0.758117 0.231628
v -0.135326 0.758117 0.187594
v -0.219084 0.758117 0.072312
v -0.219084 0.758117 -0.070186
v -0.135326 0.758117 -0.185468
v 0.117297 0.758117 -0.160111
v 0.000197 0.758117 -0.198160
v 0.189669 0.758117 -0.060500
v 0.189669 0.758117 0.062626
v 0.117297 0.758117 0.162238
v 0.000197 0.758117 0.200286
v -0.116903 0.758117 0.162238
v -0.189275 0.758117 0.062626
v -0.189275 0.758117 -0.060500
v -0.116903 0.758117 -0.160112
v 0.095211 0.652967 -0.129712
v 0.000197 0.652967 -0.160583
v 0.153932 0.652967 -0.048888
v 0.153932 0.652967 0.051015
v 0.095211 0.652967 0.131838
v 0.000197 0.652967 0.162710
v -0.094816 0.652967 0.131838
v -0.153538 0.652967 0.051015
v -0.153538 0.652967 -0.048888
v -0.094816 0.652967 -0.129712
v 0.000197 -0.805482 0.001063
v 0.000197 0.652967 0.001063
v -0.257112 -0.994045 0.024324
v -0.171502 -0.782009 0.055087
v -0.257112 -0.994045 -0.097455
v -0.171502 -0.782009 -0.066691
v -0.173599 -0.994045 0.024323
v -0.087989 -0.782009 0.055087
v -0.173599 -0.994045 -0.097455
v -0.087989 -0.782009 -0.066691
v 0.053839 -1.008408 0.205170
v 0.065716 -0.781333 0.166048
v -0.067527 -1.018316 0.206575
v -0.055650 -0.791241 0.167453
v 0.051461 -0.990859 0.123556
v 0.063338 -0.763784 0.084434
v -0.069905 -1.000767 0.124961
v -0.058028 -0.773692 0.085840
v -0.055707 -1.002434 -0.215273
v -0.067584 -0.775359 -0.176151
v 0.065659 -1.012342 -0.216678
v 0.053782 -0.785267 -0.177557
v -0.053329 -0.984885 -0.133660
v -0.065207 -0.757810 -0.094538
v 0.068037 -0.994794 -0.135065
v 0.056160 -0.767718 -0.095943
vt 0.020151 0.194582
vt 0.042951 0.194582
vt 0.042951 0.217383
vt 0.020151 0.217383
vt 0.042951 0.240183
vt 0.020151 0.240183
vt 0.042951 0.262984
vt 0.020151 0.262984
vt 0.042951 0.285785
vt 0.020151 0.285785
vt -0.002650 0.240183
vt -0.002650 0.262984
vt 0.065752 0.240183
vt 0.065752 0.262984
vt 0.055840 0.044271
vt 0.039478 0.044244
vt 0.039185 0.036163
vt 0.056027 0.036193
vt 0.038603 0.027601
vt 0.056271 0.028010
vt 0.037783 0.018285
vt 0.056749 0.019704
vt 0.052162 0.099936
vt 0.034403 0.099757
vt 0.036115 0.090761
vt 0.052694 0.091919
vt 0.037399 0.082592
vt 0.053445 0.083926
vt 0.038335 0.074822
vt 0.054175 0.075989
vt 0.038978 0.067230
vt 0.054791 0.068088
vt 0.039372 0.059669
vt 0.055266 0.060190
vt 0.031043 0.099092
vt 0.033289 0.090257
vt 0.039537 0.052039
vt 0.055605 0.052261
vt 0.122451 0.053799
vt 0.122353 0.044947
vt 0.126313 0.044933
vt 0.126434 0.053818
vt 0.100285 0.053536
vt 0.074251 0.052937
vt 0.074544 0.044862
vt 0.100390 0.045048
vt 0.100045 0.062087
vt 0.073859 0.061045
vt 0.099654 0.070707
vt 0.073349 0.069162
vt 0.099087 0.079402
vt 0.072709 0.077266
vt 0.098302 0.088180
vt 0.071945 0.085323
vt 0.097224 0.097049
vt 0.071074 0.093274
vt 0.095733 0.106018
vt 0.070135 0.101050
vt 0.100154 0.028257
vt 0.074955 0.028964
vt 0.075128 0.021273
vt 0.099703 0.020166
vt 0.100358 0.036619
vt 0.074767 0.036852
vt 0.122195 0.036093
vt 0.122098 0.027122
vt 0.122481 0.017479
vt 0.121539 0.111215
vt 0.121418 0.100135
vt 0.121789 0.090274
vt 0.122122 0.080885
vt 0.122347 0.071724
vt 0.122454 0.062711
vt 0.126279 0.081035
vt 0.126425 0.071832
vt 0.133816 0.072092
vt 0.133796 0.081348
vt 0.126476 0.062773
vt 0.126070 0.090434
vt 0.125948 0.100132
vt 0.126507 0.110203
vt 0.126142 0.036071
vt 0.126448 0.018447
vt 0.125989 0.027209
vt 0.133968 0.109101
vt 0.133784 0.100160
vt 0.140294 0.100335
vt 0.140045 0.109607
vt 0.133257 0.036181
vt 0.133463 0.045028
vt 0.133766 0.062964
vt 0.133746 0.090732
vt 0.133047 0.027435
vt 0.133643 0.053949
vt 0.132921 0.019155
vt 0.024888 0.166858
vt 0.013789 0.151581
vt 0.042847 0.142139
vt 0.139497 0.036161
vt 0.139722 0.045003
vt 0.140156 0.062995
vt 0.140290 0.072174
vt 0.140352 0.090887
vt 0.139315 0.027338
vt 0.139958 0.053941
vt 0.140352 0.081476
vt 0.138860 0.018396
vt 0.034759 0.082241
vt 0.032145 0.089990
vt 0.033637 0.082041
vt 0.036821 0.044366
vt 0.036410 0.036378
vt 0.035721 0.027884
vt 0.034552 0.018438
vt 0.036952 0.052073
vt 0.036826 0.059619
vt 0.036442 0.067092
vt 0.035773 0.074588
vt 0.034357 0.028010
vt 0.035216 0.036448
vt 0.033753 0.036539
vt 0.032792 0.028171
vt 0.035739 0.059563
vt 0.035848 0.052056
vt 0.034682 0.074447
vt 0.033102 0.018968
vt 0.035684 0.044390
vt 0.035360 0.066997
vt 0.029951 0.098470
vt 0.034487 0.052032
vt 0.034400 0.059490
vt 0.031975 0.059442
vt 0.032026 0.052084
vt 0.032256 0.081772
vt 0.033339 0.074261
vt 0.031487 0.018848
vt 0.034286 0.044419
vt 0.034027 0.066872
vt 0.028158 0.098294
vt 0.030584 0.089589
vt 0.030915 0.073991
vt 0.029781 0.081340
vt 0.027206 0.080873
vt 0.028370 0.073713
vt 0.030023 0.028616
vt 0.028106 0.019087
vt 0.031763 0.044580
vt 0.031616 0.066722
vt 0.025004 0.097492
vt 0.027989 0.088915
vt 0.031131 0.036831
vt 0.024573 0.020159
vt 0.027157 0.029227
vt 0.025238 0.029630
vt 0.022617 0.021455
vt 0.029431 0.052177
vt 0.029110 0.044800
vt 0.029074 0.066583
vt 0.021948 0.095874
vt 0.025350 0.088146
vt 0.028392 0.037212
vt 0.029415 0.059420
vt 0.027446 0.066405
vt 0.026751 0.073440
vt 0.019906 0.072380
vt 0.020474 0.065767
vt 0.027758 0.052156
vt 0.027398 0.044867
vt 0.020577 0.094565
vt 0.023764 0.087546
vt 0.026622 0.037396
vt 0.027769 0.059322
vt 0.025585 0.080471
vt 0.024888 0.117420
vt 0.042847 0.111585
vt 0.014411 0.090812
vt 0.017176 0.084976
vt 0.020104 0.045339
vt 0.019220 0.038414
vt 0.020686 0.059038
vt 0.018883 0.078820
vt 0.017755 0.031516
vt 0.020569 0.052223
vt 0.015390 0.024826
vt 0.071906 0.151581
vt 0.060807 0.166858
vt 0.060807 0.117420
vt 0.013789 0.132697
vt 0.042847 0.172693
vt 0.071906 0.132697
vt 0.110490 0.174490
vt 0.096252 0.169864
vt 0.110490 0.150267
vt 0.087452 0.142781
vt 0.096252 0.130670
vt 0.124728 0.130670
vt 0.133528 0.142781
vt 0.124728 0.169864
vt 0.087452 0.157752
vt 0.110490 0.126043
vt 0.133528 0.157752
vt 0.020151 0.194582
vt 0.042951 0.194582
vt 0.042951 0.217383
vt 0.020151 0.217383
vt 0.042951 0.240183
vt 0.020151 0.240183
vt 0.042951 0.262984
vt 0.020151 0.262984
vt 0.042951 0.285785
vt 0.020151 0.285785
vt -0.002650 0.240183
vt -0.002650 0.262984
vt 0.065752 0.240183
vt 0.065752 0.262984
vt 0.020151 0.194582
vt 0.042951 0.194582
vt 0.042951 0.217383
vt 0.020151 0.217383
vt 0.042951 0.240183
vt 0.020151 0.240183
vt 0.042951 0.262984
vt 0.020151 0.262984
vt 0.042951 0.285785
vt 0.020151 0.285785
vt -0.002650 0.240183
vt -0.002650 0.262984
vt 0.065752 0.240183
vt 0.065752 0.262984
vt 0.020151 0.194582
vt 0.042951 0.194582
vt 0.042951 0.217383
vt 0.020151 0.217383
vt 0.042951 0.240183
vt 0.020151 0.240183
vt 0.042951 0.262984
vt 0.020151 0.262984
vt 0.042951 0.285785
vt 0.020151 0.285785
vt -0.002650 0.240183
vt -0.002650 0.262984
vt 0.065752 0.240183
vt 0.065752 0.262984
vn 0.9273 0.3744 -0.0000
vn 0.0000 0.1436 0.9896
vn -0.9273 -0.3744 0.0000
vn -0.0000 -0.1436 -0.9896
vn 0.0000 -1.0000 0.0000
vn 0.0000 1.0000 0.0000
vn 0.3044 -0.1715 -0.9370
vn 0.7970 -0.1715 -0.5791
vn 0.9852 -0.1715 -0.0000
vn 0.7970 -0.1715 0.5791
vn 0.3044 -0.1715 0.9370
vn -0.3044 -0.1715 0.9370
vn -0.7970 -0.1715 0.5791
vn -0.9852 -0.1715 0.0000
vn 0.7979 -0.1653 0.5797
vn -0.7970 -0.1715 -0.5791
vn -0.3044 -0.1715 -0.9370
vn -0.2594 -0.5433 -0.7985
vn -0.3085 0.0592 -0.9494
vn -0.8076 0.0592 -0.5868
vn -0.9982 0.0592 0.0000
vn -0.8076 0.0592 0.5868
vn -0.3085 0.0592 0.9494
vn 0.3085 0.0592 0.9494
vn 0.8076 0.0592 0.5868
vn 0.9982 0.0592 -0.0000
vn 0.8076 0.0592 -0.5868
vn 0.3085 0.0592 -0.9494
vn -0.3086 -0.0545 -0.9496
vn -0.8078 -0.0545 -0.5869
vn -0.9985 -0.0545 0.0000
vn -0.8078 -0.0545 0.5869
vn -0.3086 -0.0545 0.9496
vn 0.3086 -0.0545 0.9496
vn 0.8078 -0.0545 0.5869
vn 0.9985 -0.0545 -0.0000
vn 0.8078 -0.0545 -0.5869
vn 0.3086 -0.0545 -0.9496
vn 0.3050 0.1615 -0.9386
vn 0.7984 0.1615 -0.5801
vn 0.9869 0.1615 -0.0000
vn 0.7984 0.1615 0.5801
vn 0.3050 0.1615 0.9386
vn -0.3050 0.1615 0.9386
vn -0.7984 0.1615 0.5801
vn -0.9869 0.1615 -0.0000
vn -0.7984 0.1615 -0.5801
vn -0.3050 0.1615 -0.9386
vn -0.7807 -0.2624 0.5672
vn -0.6792 -0.5433 -0.4935
vn -0.8396 -0.5433 -0.0000
vn -0.6792 -0.5433 0.4935
vn -0.2594 -0.5433 0.7985
vn 0.2594 -0.5433 0.7985
vn 0.6792 -0.5433 0.4935
vn 0.2594 -0.5433 -0.7985
vn 0.8396 -0.5433 -0.0000
vn 0.6792 -0.5433 -0.4935
vn 0.7862 0.2356 0.5712
vn 0.7807 -0.2624 0.5672
vn 0.2982 -0.2624 -0.9177
vn -0.9649 -0.2624 0.0000
vn 0.2982 -0.2624 0.9177
vn 0.7807 -0.2624 -0.5672
vn -0.7807 -0.2624 -0.5672
vn -0.2982 -0.2624 0.9177
vn 0.9649 -0.2624 -0.0000
vn -0.2982 -0.2624 -0.9177
vn 0.3003 0.2356 -0.9243
vn -0.9718 0.2356 0.0000
vn 0.3003 0.2356 0.9243
vn 0.7862 0.2356 -0.5712
vn -0.7862 0.2356 -0.5712
vn -0.3003 0.2356 0.9243
vn 0.9718 0.2356 -0.0000
vn -0.3003 0.2356 -0.9243
vn -0.7862 0.2356 0.5712
vn 0.2059 0.7457 0.6337
vn 0.3048 -0.1653 -0.9380
vn 0.9863 -0.1653 -0.0000
vn 0.7979 -0.1653 -0.5797
vn -0.3048 -0.1653 -0.9380
vn -0.7979 -0.1653 -0.5797
vn -0.9863 -0.1653 0.0000
vn -0.7979 -0.1653 0.5797
vn -0.3048 -0.1653 0.9380
vn 0.3048 -0.1653 0.9380
vn 0.6664 -0.5670 -0.4842
vn 0.5390 0.7457 -0.3916
vn -0.5390 0.7457 -0.3916
vn -0.2059 0.7457 0.6337
vn 0.6663 0.7457 0.0000
vn -0.2059 0.7457 -0.6337
vn -0.5390 0.7457 0.3916
vn 0.5390 0.7457 0.3916
vn 0.2059 0.7457 -0.6337
vn -0.6663 0.7457 0.0000
vn -0.7872 -0.2309 -0.5719
vn -0.6664 -0.5670 -0.4842
vn -0.2546 -0.5670 0.7834
vn 0.8237 -0.5670 0.0000
vn -0.2545 -0.5670 -0.7834
vn -0.6664 -0.5670 0.4842
vn 0.6664 -0.5670 0.4842
vn 0.2546 -0.5670 -0.7834
vn -0.8237 -0.5670 -0.0000
vn 0.2546 -0.5670 0.7834
vn -0.2984 0.2599 0.9184
vn -0.3007 -0.2309 0.9254
vn 0.9730 -0.2309 0.0000
vn -0.3007 -0.2309 -0.9254
vn -0.7872 -0.2309 0.5719
vn 0.7872 -0.2309 0.5719
vn 0.3007 -0.2309 -0.9254
vn -0.9730 -0.2309 -0.0000
vn 0.3007 -0.2309 0.9254
vn 0.7872 -0.2309 -0.5719
vn 0.9656 0.2599 -0.0000
vn -0.2984 0.2599 -0.9184
vn -0.7812 0.2599 0.5676
vn 0.7812 0.2599 0.5676
vn 0.2984 0.2599 -0.9184
vn -0.9656 0.2599 -0.0000
vn 0.2984 0.2599 0.9184
vn 0.7812 0.2599 -0.5676
vn -0.7812 0.2599 -0.5676
vn 0.7660 0.3218 -0.5565
vn -0.7660 0.3218 -0.5565
vn -0.2926 0.3218 0.9005
vn 0.9468 0.3218 0.0000
vn -0.2926 0.3218 -0.9005
vn -0.7660 0.3218 0.5565
vn 0.7660 0.3218 0.5565
vn 0.2926 0.3218 -0.9005
vn -0.9468 0.3218 0.0000
vn 0.2926 0.3218 0.9005
vn -0.9273 0.3744 0.0000
vn 0.0000 0.1436 -0.9896
vn 0.9273 -0.3744 0.0000
vn 0.0000 -0.1436 0.9896
vn -0.0025 0.1699 0.9855
vn -0.9974 0.0594 0.0418
vn 0.0025 -0.1699 -0.9855
vn 0.9974 -0.0594 -0.0418
vn 0.0771 -0.9743 -0.2117
vn -0.0771 0.9743 0.2117
vn 0.0025 0.1699 -0.9855
vn 0.9974 0.0594 -0.0418
vn -0.0025 -0.1699 0.9855
vn -0.9974 -0.0594 0.0418
vn -0.0771 -0.9743 0.2117
vn 0.0771 0.9743 -0.2117
usemtl Material.001
s off
f 1/1/1 2/2/1 4/3/1 3/4/1
f 3/4/2 4/3/2 8/5/2 7/6/2
f 7/6/3 8/5/3 6/7/3 5/8/3
f 5/8/4 6/7/4 2/9/4 1/10/4
f 3/11/5 7/6/5 5/8/5 1/12/5
f 8/5/6 4/13/6 2/14/6 6/7/6
f 39/15/7 10/16/7 12/17/7 40/18/7
f 40/18/8 12/17/8 14/19/8 41/20/8
f 41/20/9 14/19/9 16/21/9 42/22/9
f 42/23/10 16/24/10 18/25/10 43/26/10
f 43/26/11 18/25/11 20/27/11 44/28/11
f 44/28/12 20/27/12 22/29/12 45/30/12
f 45/30/13 22/29/13 24/31/13 46/32/13
f 46/32/14 24/31/14 26/33/14 47/34/14
f 18/25/15 16/24/15 92/35/15 93/36/15
f 47/34/16 26/33/16 28/37/16 48/38/16
f 48/38/17 28/37/17 10/16/17 39/15/17
f 27/39/18 9/40/18 59/41/18 68/42/18
f 57/43/19 38/44/19 29/45/19 58/46/19
f 56/47/20 37/48/20 38/44/20 57/43/20
f 55/49/21 36/50/21 37/48/21 56/47/21
f 54/51/22 35/52/22 36/50/22 55/49/22
f 53/53/23 34/54/23 35/52/23 54/51/23
f 52/55/24 33/56/24 34/54/24 53/53/24
f 51/57/25 32/58/25 33/56/25 52/55/25
f 50/59/26 31/60/26 32/61/26 51/62/26
f 49/63/27 30/64/27 31/60/27 50/59/27
f 58/46/28 29/45/28 30/64/28 49/63/28
f 38/44/29 48/38/29 39/15/29 29/45/29
f 37/48/30 47/34/30 48/38/30 38/44/30
f 36/50/31 46/32/31 47/34/31 37/48/31
f 35/52/32 45/30/32 46/32/32 36/50/32
f 34/54/33 44/28/33 45/30/33 35/52/33
f 33/56/34 43/26/34 44/28/34 34/54/34
f 32/58/35 42/23/35 43/26/35 33/56/35
f 31/60/36 41/20/36 42/22/36 32/61/36
f 30/64/37 40/18/37 41/20/37 31/60/37
f 29/45/38 39/15/38 40/18/38 30/64/38
f 9/40/39 58/46/39 49/63/39 11/65/39
f 11/65/40 49/63/40 50/59/40 13/66/40
f 13/66/41 50/59/41 51/62/41 15/67/41
f 15/68/42 51/57/42 52/55/42 17/69/42
f 17/69/43 52/55/43 53/53/43 19/70/43
f 19/70/44 53/53/44 54/51/44 21/71/44
f 21/71/45 54/51/45 55/49/45 23/72/45
f 23/72/46 55/49/46 56/47/46 25/73/46
f 25/73/47 56/47/47 57/43/47 27/39/47
f 27/39/48 57/43/48 58/46/48 9/40/48
f 65/74/49 66/75/49 76/76/49 75/77/49
f 25/73/50 27/39/50 68/42/50 67/78/50
f 23/72/51 25/73/51 67/78/51 66/75/51
f 21/71/52 23/72/52 66/75/52 65/74/52
f 19/70/53 21/71/53 65/74/53 64/79/53
f 17/69/54 19/70/54 64/79/54 63/80/54
f 15/68/55 17/69/55 63/80/55 62/81/55
f 9/40/56 11/65/56 60/82/56 59/41/56
f 13/66/57 15/67/57 62/83/57 61/84/57
f 11/65/58 13/66/58 61/84/58 60/82/58
f 72/85/59 73/86/59 83/87/59 82/88/59
f 62/81/60 63/80/60 73/86/60 72/85/60
f 59/41/61 60/82/61 70/89/61 69/90/61
f 66/75/62 67/78/62 77/91/62 76/76/62
f 63/80/63 64/79/63 74/92/63 73/86/63
f 60/82/64 61/84/64 71/93/64 70/89/64
f 67/78/65 68/42/65 78/94/65 77/91/65
f 64/79/66 65/74/66 75/77/66 74/92/66
f 61/84/67 62/83/67 72/95/67 71/93/67
f 68/42/68 59/41/68 69/90/68 78/94/68
f 80/96/5 81/97/5 159/98/5
f 69/90/69 70/89/69 80/99/69 79/100/69
f 76/76/70 77/91/70 87/101/70 86/102/70
f 73/86/71 74/92/71 84/103/71 83/87/71
f 70/89/72 71/93/72 81/104/72 80/99/72
f 77/91/73 78/94/73 88/105/73 87/101/73
f 74/92/74 75/77/74 85/106/74 84/103/74
f 71/93/75 72/95/75 82/107/75 81/104/75
f 78/94/76 69/90/76 79/100/76 88/105/76
f 75/77/77 76/76/77 86/102/77 85/106/77
f 94/108/78 93/36/78 103/109/78 104/110/78
f 12/17/79 10/16/79 90/111/79 89/112/79
f 16/21/80 14/19/80 91/113/80 92/114/80
f 14/19/81 12/17/81 89/112/81 91/113/81
f 10/16/82 28/37/82 98/115/82 90/111/82
f 28/37/83 26/33/83 97/116/83 98/115/83
f 26/33/84 24/31/84 96/117/84 97/116/84
f 24/31/85 22/29/85 95/118/85 96/117/85
f 22/29/86 20/27/86 94/108/86 95/118/86
f 20/27/87 18/25/87 93/36/87 94/108/87
f 101/119/88 99/120/88 109/121/88 111/122/88
f 91/113/89 89/112/89 99/120/89 101/119/89
f 98/115/90 97/116/90 107/123/90 108/124/90
f 95/118/91 94/108/91 104/110/91 105/125/91
f 92/114/92 91/113/92 101/119/92 102/126/92
f 90/111/93 98/115/93 108/124/93 100/127/93
f 96/117/94 95/118/94 105/125/94 106/128/94
f 93/36/95 92/35/95 102/129/95 103/109/95
f 89/112/96 90/111/96 100/127/96 99/120/96
f 97/116/97 96/117/97 106/128/97 107/123/97
f 118/130/98 117/131/98 127/132/98 128/133/98
f 108/124/99 107/123/99 117/131/99 118/130/99
f 105/125/100 104/110/100 114/134/100 115/135/100
f 102/126/101 101/119/101 111/122/101 112/136/101
f 100/127/102 108/124/102 118/130/102 110/137/102
f 106/128/103 105/125/103 115/135/103 116/138/103
f 103/109/104 102/129/104 112/139/104 113/140/104
f 99/120/105 100/127/105 110/137/105 109/121/105
f 107/123/106 106/128/106 116/138/106 117/131/106
f 104/110/107 103/109/107 113/140/107 114/134/107
f 125/141/108 124/142/108 134/143/108 135/144/108
f 115/135/109 114/134/109 124/142/109 125/141/109
f 112/136/110 111/122/110 121/145/110 122/146/110
f 110/137/111 118/130/111 128/133/111 120/147/111
f 116/138/112 115/135/112 125/141/112 126/148/112
f 113/140/113 112/139/113 122/149/113 123/150/113
f 109/121/114 110/137/114 120/147/114 119/151/114
f 117/131/115 116/138/115 126/148/115 127/132/115
f 114/134/116 113/140/116 123/150/116 124/142/116
f 111/122/117 109/121/117 119/151/117 121/145/117
f 132/152/6 131/153/6 141/154/6 142/155/6
f 122/146/118 121/145/118 131/153/118 132/152/118
f 120/147/119 128/133/119 138/156/119 130/157/119
f 126/148/120 125/141/120 135/144/120 136/158/120
f 123/150/121 122/149/121 132/159/121 133/160/121
f 119/151/122 120/147/122 130/157/122 129/161/122
f 127/132/123 126/148/123 136/158/123 137/162/123
f 124/142/124 123/150/124 133/160/124 134/143/124
f 121/145/125 119/151/125 129/161/125 131/153/125
f 128/133/126 127/132/126 137/162/126 138/156/126
f 146/163/127 145/164/127 155/165/127 156/166/127
f 130/157/6 138/156/6 148/167/6 140/168/6
f 136/158/6 135/144/6 145/164/6 146/163/6
f 133/160/6 132/159/6 142/169/6 143/170/6
f 129/161/6 130/157/6 140/168/6 139/171/6
f 137/162/6 136/158/6 146/163/6 147/172/6
f 134/143/6 133/160/6 143/170/6 144/173/6
f 131/153/6 129/161/6 139/171/6 141/154/6
f 138/156/6 137/162/6 147/172/6 148/167/6
f 135/144/6 134/143/6 144/173/6 145/164/6
f 83/174/5 84/175/5 159/98/5
f 143/170/128 142/169/128 152/176/128 153/177/128
f 139/171/129 140/168/129 150/178/129 149/179/129
f 147/172/130 146/163/130 156/166/130 157/180/130
f 144/173/131 143/170/131 153/177/131 154/181/131
f 141/154/132 139/171/132 149/179/132 151/182/132
f 148/167/133 147/172/133 157/180/133 158/183/133
f 145/164/134 144/173/134 154/181/134 155/165/134
f 142/155/135 141/154/135 151/182/135 152/184/135
f 140/168/136 148/167/136 158/183/136 150/178/136
f 87/185/5 88/186/5 159/98/5
f 84/175/5 85/187/5 159/98/5
f 81/97/5 82/188/5 159/98/5
f 88/186/5 79/189/5 159/98/5
f 85/187/5 86/190/5 159/98/5
f 82/188/5 83/174/5 159/98/5
f 79/189/5 80/96/5 159/98/5
f 86/190/5 87/185/5 159/98/5
f 149/191/6 150/192/6 160/193/6
f 157/194/6 156/195/6 160/193/6
f 154/196/6 153/197/6 160/193/6
f 151/198/6 149/191/6 160/193/6
f 158/199/6 157/194/6 160/193/6
f 155/200/6 154/196/6 160/193/6
f 152/201/6 151/198/6 160/193/6
f 150/192/6 158/199/6 160/193/6
f 156/195/6 155/200/6 160/193/6
f 153/197/6 152/201/6 160/193/6
f 161/202/137 162/203/137 164/204/137 163/205/137
f 163/205/138 164/204/138 168/206/138 167/207/138
f 167/207/139 168/206/139 166/208/139 165/209/139
f 165/209/140 166/208/140 162/210/140 161/211/140
f 163/212/5 167/207/5 165/209/5 161/213/5
f 168/206/6 164/214/6 162/215/6 166/208/6
f 169/216/141 170/217/141 172/218/141 171/219/141
f 171/219/142 172/218/142 176/220/142 175/221/142
f 175/221/143 176/220/143 174/222/143 173/223/143
f 173/223/144 174/222/144 170/224/144 169/225/144
f 171/226/145 175/221/145 173/223/145 169/227/145
f 176/220/146 172/228/146 170/229/146 174/222/146
f 177/230/147 178/231/147 180/232/147 179/233/147
f 179/233/148 180/232/148 184/234/148 183/235/148
f 183/235/149 184/234/149 182/236/149 181/237/149
f 181/237/150 182/236/150 178/238/150 177/239/150
f 179/240/151 183/235/151 181/237/151 177/241/151
f 184/234/152 180/242/152 178/243/152 182/236/152
