# Blender v2.90.0 OBJ File: ''
# www.blender.org
mtllib Platformjohnlvl.mtl
o Platform_Cube.012
v -8.471667 -0.580873 3.418394
v -8.471667 -0.580874 -3.418394
v 7.524202 -0.580873 3.418394
v 7.524202 -0.580874 -3.418394
v -4.739358 -0.472432 -1.506948
v -4.739358 -0.472431 1.506948
v -5.113897 1.117819 1.802895
v -5.113897 1.117818 -1.802896
v 5.277047 -0.472432 -1.506948
v 5.651586 1.117818 -1.802896
v 5.277047 -0.472431 1.506948
v 5.651586 1.117819 1.802895
v -5.113897 -0.292095 1.802895
v 5.651586 -0.292095 1.802895
v 5.651586 -0.292096 -1.802895
v -5.113897 -0.292096 -1.802895
v -5.113897 1.086504 0.655203
v -5.113897 1.086504 -0.655203
v -5.113897 -0.260781 0.655203
v -5.113897 -0.260781 -0.655203
v -6.234952 1.010153 0.580941
v -6.234952 1.010152 -0.580942
v -6.234952 -0.184429 0.580941
v -6.234952 -0.184430 -0.580941
v -5.184288 -0.184430 -0.580941
v -5.184288 -0.184429 0.580941
v -5.184288 1.010153 0.580941
v -5.184288 1.010152 -0.580942
v -4.922441 1.086504 0.655203
v -4.922441 1.086504 -0.655203
v -4.922441 -0.260781 0.655203
v -4.922441 -0.260781 -0.655203
v -4.887088 -0.184429 0.580941
v -4.887088 1.010153 0.580941
v -4.887088 -0.184430 -0.580941
v -4.887088 1.010152 -0.580942
v -8.471667 -0.320433 -3.418394
v 7.524202 -0.320433 -3.418394
v 7.524202 -0.320432 3.418394
v -8.471667 -0.320432 3.418394
v -8.109535 0.622909 3.263615
v 7.162071 0.622909 3.263615
v 7.162071 0.622908 -3.263615
v -8.109535 0.622908 -3.263615
v -8.471667 1.045032 3.418393
v -7.965870 1.117819 3.175043
v -7.965870 1.117818 -3.175044
v -8.471667 1.045031 -3.418394
v 7.240843 1.117819 3.173940
v 7.524202 1.045032 3.418393
v 7.240843 1.117818 -3.173941
v 7.524202 1.045031 -3.418394
v -8.471667 0.818577 3.418393
v -7.360280 0.577699 2.943376
v -7.360280 0.577698 -2.943376
v -8.471667 0.818576 -3.418394
v 6.412817 0.577698 -2.943376
v 7.524202 0.818576 -3.418394
v 6.412817 0.577699 2.943376
v 7.524202 0.818577 3.418393
v -6.505276 1.082356 0.605393
v -6.505276 1.188098 0.605393
v -6.505276 1.082356 -0.605393
v -6.505276 1.188098 -0.605393
v -5.127188 1.082356 0.605393
v -5.127188 1.188098 0.605393
v -5.127188 1.082356 -0.605393
v -5.127188 1.188098 -0.605393
v -6.461938 1.188098 0.567317
v -6.461938 1.188098 -0.567317
v -5.170526 1.188098 -0.567317
v -5.170526 1.188098 0.567317
v -6.461938 1.142768 0.567317
v -6.461938 1.142768 -0.567317
v -5.170526 1.142768 -0.567317
v -5.170526 1.142768 0.567317
vt 0.476861 0.280915
vt 0.215088 0.282316
vt 0.242329 0.258351
vt 0.427114 0.257262
vt 0.212223 0.170770
vt 0.240923 0.194448
vt 0.086635 0.006218
vt 0.325390 0.002089
vt 0.338475 0.007471
vt 0.073743 0.012049
vt 0.366865 0.017500
vt 0.645936 0.017730
vt 0.580793 0.051078
vt 0.406043 0.050934
vt 0.452171 0.345129
vt 0.492172 0.390533
vt 0.483160 0.391334
vt 0.448435 0.350717
vt 0.293952 0.343753
vt 0.297706 0.350367
vt 0.645936 0.137007
vt 0.366866 0.137237
vt 0.406043 0.103803
vt 0.580793 0.103659
vt 0.214765 0.168360
vt 0.476884 0.169654
vt 0.427029 0.193271
vt 0.241940 0.192104
vt 0.366604 0.136777
vt 0.405927 0.103515
vt 0.980746 0.551171
vt 0.891227 0.502412
vt 0.898084 0.493422
vt 0.991833 0.542408
vt 0.164373 0.125114
vt 0.164373 0.312931
vt 0.158327 0.306397
vt 0.158326 0.131649
vt 0.249182 0.388223
vt 0.260533 0.390148
vt 0.261486 0.374904
vt 0.283508 0.353094
vt 0.188971 0.125114
vt 0.188971 0.312931
vt 0.283050 0.321846
vt 0.461117 0.318584
vt 0.515920 0.368136
vt 0.534958 0.159046
vt 0.564610 0.164754
vt 0.561144 0.182754
vt 0.531493 0.177045
vt 0.269158 0.334115
vt 0.227882 0.366419
vt 0.243354 0.354943
vt 0.581610 0.186693
vt 0.611261 0.192402
vt 0.607321 0.212867
vt 0.577670 0.207159
vt 0.614726 0.174402
vt 0.635192 0.178342
vt 0.631727 0.196342
vt 0.585075 0.168694
vt 0.274106 0.078557
vt 0.281330 0.057863
vt 0.284207 0.060484
vt 0.277780 0.077738
vt 0.535939 0.153954
vt 0.565590 0.159662
vt 0.314817 0.045011
vt 0.316327 0.049192
vt 0.586055 0.163602
vt 0.615707 0.169310
vt 0.293343 0.103147
vt 0.279736 0.078078
vt 0.294106 0.101190
vt 0.316327 0.106956
vt 0.315055 0.104089
vt 0.285693 0.061461
vt 0.314952 0.051266
vt 0.315720 0.110394
vt 0.291527 0.106122
vt 0.636172 0.173250
vt 0.549249 0.720734
vt 0.544278 0.720254
vt 0.556252 0.604831
vt 0.560018 0.607427
vt 0.685606 0.588358
vt 0.673370 0.586463
vt 0.654698 0.571295
vt 0.658549 0.575002
vt 0.618115 0.693335
vt 0.613156 0.691636
vt 0.067830 0.033569
vt 0.067752 0.028729
vt 0.345039 0.023934
vt 0.345117 0.028774
vt 1.005408 0.522450
vt 1.003387 0.526481
vt 0.899436 0.474368
vt 0.899601 0.469390
vt 0.560424 0.606537
vt 0.556658 0.603942
vt 0.779220 0.464362
vt 0.781649 0.468251
vt 0.549655 0.719845
vt 0.544684 0.719365
vt 0.638982 0.696780
vt 0.485983 0.165105
vt 0.485983 0.285464
vt 0.209602 0.163654
vt 0.209997 0.286956
vt 0.206934 0.166573
vt 0.656859 0.694677
vt 0.781244 0.469140
vt 0.770326 0.486442
vt 0.576731 0.608086
vt 0.575122 0.711624
vt 0.770732 0.485553
vt 0.577137 0.607197
vt 0.575528 0.710735
vt 0.778814 0.465252
vt 0.203794 0.094696
vt 0.205760 0.094465
vt 0.209704 0.128003
vt 0.207738 0.128234
vt 0.209651 0.129822
vt 0.233402 0.128697
vt 0.233348 0.130515
vt 0.235147 0.128697
vt 0.233402 0.098923
vt 0.235147 0.098923
vt 0.233844 0.096911
vt 0.207191 0.093152
vt 0.207634 0.091141
vt 0.232640 0.099820
vt 0.207778 0.094412
vt 0.232768 0.127774
vt 0.231861 0.127060
vt 0.231974 0.100484
vt 0.210342 0.127129
vt 0.206508 0.095238
vt 0.211117 0.126180
vt 0.207623 0.095106
vn 0.0000 1.0000 -0.0000
vn 0.0000 0.9902 0.1398
vn 0.0000 -0.9984 -0.0566
vn -0.4338 0.9010 -0.0000
vn 0.0000 0.8540 -0.5204
vn 0.0000 -0.9984 0.0566
vn 0.0290 -0.9996 0.0000
vn -0.0482 -0.9988 0.0000
vn -0.0602 0.9982 -0.0000
vn 0.0000 0.8540 0.5204
vn 0.4338 0.9010 -0.0000
vn 1.0000 0.0000 0.0000
vn 0.0000 0.0000 1.0000
vn 0.0000 -0.0000 -1.0000
vn -1.0000 0.0000 0.0000
vn 0.0000 -1.0000 0.0000
vn 0.9074 0.4202 -0.0000
vn 0.9029 -0.0000 -0.4298
vn 0.9029 0.0000 0.4298
vn 0.9074 -0.4202 0.0000
vn 0.0000 0.9902 -0.1398
vn 0.0000 0.1619 -0.9868
vn 0.9336 0.3584 -0.0000
vn 0.0000 0.1619 0.9868
vn -0.9336 0.3584 -0.0000
vn -0.1424 0.9898 -0.0000
vn 0.0000 0.9582 -0.2860
vn 0.2488 0.9686 -0.0000
vn 0.0000 0.9582 0.2860
vn 0.0602 0.9982 -0.0000
vn 0.0000 -0.8919 0.4523
vn 0.2118 -0.9773 0.0000
vn 0.0000 -0.8919 -0.4523
vn -0.2118 -0.9773 0.0000
usemtl Material.022
s 1
f 46/1/1 49/2/1 12/3/1 7/4/1
f 49/2/1 51/5/1 10/6/1 12/3/1
f 55/7/2 57/8/2 43/9/2 44/10/2
f 3/11/3 1/12/3 6/13/3 11/14/3
f 14/15/4 15/16/4 9/17/4 11/18/4
f 13/19/5 14/15/5 11/18/5 6/20/5
f 2/21/6 4/22/6 9/23/6 5/24/6
f 51/25/1 47/26/1 8/27/1 10/28/1
f 47/26/1 46/1/1 7/4/1 8/27/1
f 1/12/7 2/21/7 5/24/7 6/13/7
f 4/29/8 3/11/8 11/14/8 9/30/8
f 57/31/9 59/32/9 42/33/9 43/34/9
f 15/35/10 16/36/10 5/37/10 9/38/10
f 16/39/11 13/19/11 6/20/11 5/40/11
f 13/19/12 16/39/12 20/41/12 19/42/12
f 10/43/13 8/44/13 16/36/13 15/35/13
f 7/45/14 12/46/14 14/15/14 13/19/14
f 12/46/15 10/47/15 15/16/15 14/15/15
f 26/48/1 25/49/1 24/50/1 23/51/1
f 7/45/12 13/19/12 19/42/12 17/52/12
f 8/53/12 7/45/12 17/52/12 18/54/12
f 16/39/12 8/53/12 18/54/12 20/41/12
f 22/55/12 21/56/12 23/57/12 24/58/12
f 27/59/14 26/60/14 23/61/14 21/56/14
f 25/49/13 28/62/13 22/55/13 24/50/13
f 28/62/16 27/59/16 21/56/16 22/55/16
f 17/63/13 19/64/13 31/65/13 29/66/13
f 25/49/1 26/48/1 33/67/1 35/68/1
f 19/64/16 20/69/16 32/70/16 31/65/16
f 27/59/16 28/62/16 36/71/16 34/72/16
f 30/73/17 29/66/17 34/74/17 36/75/17
f 32/76/18 30/73/18 36/75/18 35/77/18
f 29/66/19 31/65/19 33/78/19 34/74/19
f 31/65/20 32/70/20 35/79/20 33/78/20
f 28/62/13 25/49/13 35/68/13 36/71/13
f 20/80/14 18/81/14 30/73/14 32/76/14
f 26/60/14 27/59/14 34/72/14 33/82/14
f 18/81/1 17/63/1 29/66/1 30/73/1
f 58/83/12 52/84/12 50/85/12 60/86/12
f 59/32/21 54/87/21 41/88/21 42/33/21
f 1/89/15 40/90/15 37/91/15 2/92/15
f 2/93/14 37/94/14 38/95/14 4/96/14
f 4/97/12 38/98/12 39/99/12 3/100/12
f 3/100/13 39/99/13 40/90/13 1/89/13
f 38/95/22 37/94/22 44/10/22 43/9/22
f 38/98/23 43/34/23 42/33/23 39/99/23
f 40/90/24 39/99/24 42/33/24 41/88/24
f 56/101/14 48/102/14 52/103/14 58/104/14
f 53/105/15 45/106/15 48/102/15 56/101/15
f 37/91/25 40/90/25 41/88/25 44/107/25
f 46/1/26 47/26/26 48/108/26 45/109/26
f 47/26/27 51/25/27 52/110/27 48/108/27
f 51/5/28 49/2/28 50/111/28 52/112/28
f 49/2/29 46/1/29 45/109/29 50/111/29
f 54/87/30 55/113/30 44/107/30 41/88/30
f 60/86/31 53/114/31 54/115/31 59/116/31
f 58/83/32 60/86/32 59/116/32 57/117/32
f 56/101/33 58/104/33 57/118/33 55/119/33
f 53/105/34 56/101/34 55/119/34 54/120/34
f 60/86/13 50/85/13 45/121/13 53/114/13
f 61/122/15 62/123/15 64/124/15 63/125/15
f 63/126/14 64/124/14 68/127/14 67/128/14
f 67/129/12 68/127/12 66/130/12 65/131/12
f 65/132/13 66/130/13 62/133/13 61/134/13
f 62/133/1 66/130/1 72/135/1 69/136/1
f 72/135/15 71/137/15 75/138/15 76/139/15
f 68/127/1 64/124/1 70/140/1 71/137/1
f 66/130/1 68/127/1 71/137/1 72/135/1
f 64/124/1 62/123/1 69/141/1 70/140/1
f 75/138/1 74/142/1 73/143/1 76/139/1
f 70/140/12 69/141/12 73/143/12 74/142/12
f 69/136/14 72/135/14 76/139/14 73/143/14
f 71/137/13 70/140/13 74/142/13 75/138/13
