# Blender v2.90.0 OBJ File: 'bridge.blend'
# www.blender.org
mtllib Pillar2.mtl
o Pillar2_Cube.011
v -2.032088 -17.767857 0.844346
v -1.668458 9.458086 1.456260
v -1.299067 -17.110626 -2.157722
v -1.188248 7.608943 -1.342649
v 0.571823 -17.929417 2.099931
v 1.519207 8.884138 1.711171
v -1.707798 -17.492779 -1.473557
v -2.092528 -17.706810 -0.698552
v -2.170704 -17.728725 0.106513
v -2.073878 7.968315 0.099570
v -1.658555 7.828173 -0.738004
v 1.067565 -17.861973 1.527410
v 1.470090 -17.706810 0.718143
v 1.824264 -17.706810 -0.172513
v 2.035348 8.386478 -0.152226
v 1.807619 9.472261 0.921628
v 1.287782 -17.706810 -1.417340
v 0.397129 -17.706810 -1.771514
v -0.462971 -17.492779 -2.010039
v -0.082785 8.002605 -2.169749
v 0.723541 7.845261 -1.872733
v 1.486568 8.534119 -1.534316
v -1.634224 -17.728725 1.351340
v -1.019566 -17.706810 1.791104
v -0.127020 -17.867027 2.116406
v 0.023832 8.759920 2.245030
v -0.886193 8.512159 1.773339
v -0.485009 7.330488 -1.320966
v 0.366336 7.449733 -0.819180
v 1.155073 8.329424 -0.498034
v -0.862757 7.677195 -0.174785
v 0.013015 8.207253 0.520904
v 0.932889 9.387861 0.587363
v -1.222256 7.981413 0.532075
v -0.385083 7.999388 1.069972
v 0.658365 8.713717 1.371718
v -1.589533 3.322635 -1.493072
v 0.851320 3.654485 2.753396
v -1.807290 3.322633 1.590758
v -2.329207 3.322633 0.314013
v -1.935795 3.637902 -0.546538
v 1.915805 3.322633 -0.014676
v 1.561248 3.322633 0.891316
v 1.196903 3.322635 1.801373
v -0.345452 3.322633 -2.032434
v 0.530756 3.322633 -1.671033
v 1.396862 3.322633 -1.297278
v -0.043955 3.322633 2.334737
v -0.920325 3.322633 1.960113
v -2.218569 4.171511 1.913541
v -1.944863 4.168842 -1.964429
v 1.559621 4.204692 2.186108
v -2.875071 4.171302 0.308116
v -2.406399 4.293049 -0.815721
v 2.463897 4.182481 -0.104106
v 2.017871 4.183731 1.035768
v -0.380177 4.166742 -2.642869
v 0.721681 4.178633 -2.186874
v 1.811155 4.177002 -1.716924
v -0.000546 4.207859 2.857074
v -1.103171 4.182474 2.379454
v 0.451393 1.769683 1.936397
v 1.903213 1.440330 -0.008771
v 0.831687 1.370603 0.770394
v 0.866561 1.388268 1.822558
v -0.187598 1.671089 -2.147294
v 0.525323 1.440623 -1.668799
v 1.382547 1.440330 -1.287665
v -0.055901 1.440330 2.337535
v -0.935971 1.435193 1.960204
v -1.840060 1.999711 1.528150
v -1.270184 -1.669644 -2.209853
v 0.423406 -1.026405 2.148688
v -1.947569 -1.613544 0.400485
v -1.662560 -1.618262 -0.586923
v -1.511885 -1.756836 -1.420108
v 1.886144 -1.111205 -0.000768
v 1.531677 -1.111205 0.901675
v 1.165744 -1.110937 1.802596
v -0.082797 -0.950259 -1.898702
v 0.475925 -1.117520 -1.650887
v 1.363143 -1.111205 -1.274632
v -0.077973 -1.083679 2.320666
v -0.853617 -1.083749 1.941928
v -1.784789 -0.919419 1.373624
v -1.940308 -0.450043 0.930846
v -0.701792 2.125987 -0.968360
v -1.323235 1.764801 0.503953
v -1.058136 1.971478 -0.273925
v -1.374741 -1.131352 -1.994151
v -1.852295 -1.458661 0.239900
v -1.645367 -1.448120 -0.608930
v -1.544930 -1.658959 -1.326819
v -0.603240 1.943931 -1.637813
v -0.617182 -0.721450 -1.699471
v -1.823346 -0.802195 0.545072
v -1.518116 -0.596293 0.019216
v -1.073937 -0.704661 -1.069856
v -1.181818 0.229856 1.937425
v 0.417392 0.162065 1.894225
v 1.894680 0.164562 -0.004769
v 0.823179 0.094836 0.773374
v 0.132289 0.358960 -2.000789
v 0.502691 0.164454 -1.651677
v 1.372846 0.164562 -1.281148
v -0.063998 0.164562 2.339431
v -0.638657 0.189183 2.262954
v -1.305531 0.085711 1.189198
v -0.274481 0.127078 -1.606929
v -1.046690 0.166081 0.791486
v -1.081780 0.210004 -0.120074
v -0.578349 0.091164 -0.879292
v 1.581926 -17.706810 -1.300374
v 1.941133 -17.706810 -0.466409
v 2.162910 8.420605 -0.559363
v 1.756088 8.514832 -1.421948
v 2.029294 3.322633 -0.310386
v 1.671201 3.322633 -1.175241
v 2.307958 4.139794 -1.501235
v 2.666418 4.139809 -0.635425
v 2.017467 1.440330 -0.305427
v 1.659818 1.440330 -1.165643
v 1.643991 -1.111204 -1.152837
v 2.001264 -1.111204 -0.298253
v 1.652090 0.164563 -1.159156
v 2.009443 0.164563 -0.302045
vt 0.963942 0.369816
vt 0.972728 0.376165
vt 0.952196 0.386761
vt 0.929098 0.276608
vt 0.939968 0.275322
vt 0.940921 0.285758
vt 0.928807 0.287113
vt 0.839182 0.284046
vt 0.854689 0.285117
vt 0.854512 0.295373
vt 0.836806 0.296829
vt 0.981393 0.272446
vt 0.992303 0.271747
vt 0.995692 0.283153
vt 0.982762 0.283793
vt 0.970346 0.273512
vt 0.970778 0.285292
vt 0.911092 0.278071
vt 0.920395 0.282277
vt 0.913396 0.288174
vt 0.900732 0.279035
vt 0.902102 0.288741
vt 0.986969 0.345512
vt 0.982995 0.359974
vt 0.978889 0.353507
vt 0.979228 0.367922
vt 0.969922 0.362408
vt 0.969478 0.328255
vt 0.965787 0.285899
vt 0.972396 0.328544
vt 0.940329 0.338503
vt 0.947225 0.344751
vt 0.943035 0.354584
vt 0.933980 0.348289
vt 0.956887 0.356785
vt 0.954136 0.364166
vt 0.954999 0.330068
vt 0.961923 0.339015
vt 0.971372 0.348330
vt 0.954541 0.327275
vt 0.952851 0.285855
vt 0.957944 0.285861
vt 0.958831 0.327373
vt 0.971742 0.330442
vt 0.979522 0.339336
vt 0.890221 0.280917
vt 0.891334 0.290733
vt 0.968410 0.251067
vt 0.966768 0.274078
vt 0.964770 0.251350
vt 0.938233 0.366449
vt 0.948263 0.373378
vt 0.898023 0.256899
vt 0.886901 0.265686
vt 0.910052 0.255801
vt 0.918048 0.259510
vt 0.979616 0.250264
vt 0.989938 0.252340
vt 0.934752 0.252299
vt 0.922945 0.254730
vt 0.949883 0.252426
vt 0.951082 0.274929
vt 0.845585 0.266836
vt 0.854248 0.267043
vt 0.863593 0.264731
vt 0.865734 0.286117
vt 0.873443 0.262031
vt 0.875700 0.283170
vt 0.967408 0.235725
vt 0.963731 0.235967
vt 0.954811 0.275102
vt 0.869677 0.330251
vt 0.865926 0.294580
vt 0.876580 0.292721
vt 0.879437 0.329819
vt 0.861488 0.329774
vt 0.934677 0.333309
vt 0.917645 0.333335
vt 0.943577 0.338976
vt 0.897828 0.343224
vt 0.981025 0.321889
vt 0.990048 0.323770
vt 0.906492 0.332281
vt 0.847947 0.337695
vt 0.953725 0.252172
vt 0.932718 0.238133
vt 0.917768 0.239015
vt 0.952498 0.236674
vt 0.948623 0.236925
vt 0.871841 0.216004
vt 0.884263 0.224733
vt 0.878737 0.229225
vt 0.869740 0.218150
vt 0.859302 0.216542
vt 0.859014 0.218606
vt 0.966535 0.220308
vt 0.962830 0.220497
vt 0.984976 0.237076
vt 0.978796 0.235018
vt 0.909129 0.239430
vt 0.901537 0.240136
vt 0.892869 0.241126
vt 0.889004 0.021926
vt 0.897285 0.223467
vt 0.879881 0.021916
vt 0.900373 0.019657
vt 0.907993 0.223309
vt 0.908768 0.018607
vt 0.914551 0.223614
vt 0.971564 0.018909
vt 0.978164 0.219590
vt 0.959980 0.019368
vt 0.982454 0.021074
vt 0.985594 0.221212
vt 0.992900 0.025285
vt 1.000085 0.211929
vt 0.929782 0.020593
vt 0.935849 0.221752
vt 0.924139 0.221583
vt 0.918335 0.019092
vt 0.941362 0.020136
vt 0.947715 0.221278
vt 0.853177 0.022908
vt 0.849194 0.214783
vt 0.842889 0.025888
vt 0.863055 0.022345
vt 0.872221 0.021638
vt 0.839530 0.216477
vt 0.833502 0.030854
vt 0.945193 0.019985
vt 0.951566 0.221102
vt 0.873776 0.226082
vt 0.882064 0.239191
vt 0.850373 0.215960
vt 0.843454 0.221145
vt 0.851522 0.241756
vt 0.841384 0.243177
vt 0.875594 0.241236
vt 0.863815 0.241790
vt 0.837377 0.263622
vt 0.851265 0.229423
vt 0.840688 0.230720
vt 0.866551 0.229771
vt 0.834596 0.247351
vt 0.833502 0.230980
vt 0.956150 0.019520
vn 0.3648 0.5707 -0.7357
vn 0.8122 -0.4817 0.3292
vn -0.3295 -0.5617 -0.7589
vn 0.3235 -0.5431 -0.7749
vn 0.3329 -0.5404 -0.7727
vn 0.1054 -0.0240 0.9941
vn -0.3447 -0.4670 0.8143
vn 0.7438 -0.4996 0.4441
vn 0.2548 0.6957 0.6716
vn 0.3244 0.9347 -0.1450
vn 0.1907 0.9647 -0.1819
vn 0.3968 0.0673 -0.9154
vn -0.3185 0.7918 0.5211
vn -0.7009 0.7044 0.1124
vn -0.1784 0.9670 -0.1818
vn 0.2015 0.7157 -0.6687
vn -0.5743 0.5841 -0.5736
vn -0.0512 0.9070 -0.4179
vn 0.9387 0.1020 0.3292
vn -0.7046 0.7090 -0.0285
vn -0.1840 0.8867 0.4242
vn -0.3374 -0.4712 0.8149
vn 0.4046 -0.0074 -0.9145
vn -0.1348 0.9795 -0.1498
vn -0.2333 0.8514 -0.4699
vn 0.6104 0.6550 -0.4453
vn -0.4114 -0.0115 0.9114
vn -0.3936 0.0036 0.9193
vn 0.0915 -0.2199 0.9712
vn 0.4012 -0.0050 -0.9160
vn 0.4722 0.0484 -0.8802
vn 0.9510 -0.2635 0.1620
vn 0.7562 -0.1654 0.6331
vn 0.3143 -0.5445 -0.7776
vn -0.8107 -0.5841 0.0395
vn -0.7806 -0.5591 -0.2794
vn -0.7388 -0.4969 -0.4552
vn 0.4016 -0.0074 -0.9158
vn 0.6880 -0.2718 0.6729
vn -0.0680 0.9888 0.1326
vn 0.8068 -0.4878 0.3334
vn -0.8958 0.1820 -0.4054
vn -0.8398 0.2304 -0.4915
vn 0.3608 0.1097 0.9262
vn 0.9633 0.0693 0.2592
vn 0.9278 0.0452 0.3703
vn -0.9520 0.1607 0.2605
vn 0.3712 0.0822 -0.9249
vn 0.3762 0.0723 -0.9237
vn -0.4376 0.1338 0.8892
vn -0.3230 0.1294 0.9375
vn -0.5033 0.1994 -0.8408
vn 0.8140 -0.4854 0.3188
vn 0.9334 -0.0050 0.3589
vn -0.8138 -0.5460 -0.1992
vn -0.7091 -0.5581 -0.4310
vn -0.7963 -0.5098 0.3256
vn 0.7640 -0.2450 0.5970
vn 0.9330 -0.0050 0.3598
vn -0.9970 -0.0266 0.0720
vn -0.9492 0.1859 -0.2537
vn 0.3991 -0.0074 -0.9169
vn 0.5879 -0.0017 0.8089
vn 0.9994 -0.0067 -0.0330
vn 0.6120 0.0203 -0.7906
vn 0.3990 -0.0135 -0.9169
vn 0.6540 -0.0201 0.7562
vn -0.2958 0.0811 0.9518
vn -0.4386 0.0725 0.8958
vn -0.5465 -0.0041 0.8375
vn -0.3894 -0.0073 0.9210
vn 0.1551 -0.0070 0.9879
vn 0.3800 0.0056 -0.9250
vn 0.3248 0.0021 -0.9458
vn 0.2213 -0.0010 -0.9752
vn 0.9124 -0.0100 0.4091
vn 0.9300 -0.0074 0.3675
vn -0.9489 0.0203 -0.3150
vn -0.9799 0.0224 -0.1983
vn -0.9854 0.0098 0.1698
vn -0.9156 0.0066 -0.4020
vn 0.9309 -0.0072 0.3652
vn 0.5958 -0.0068 0.8031
vn -0.7864 -0.0079 0.6177
vn -0.8278 0.2661 -0.4939
vn -0.9311 -0.2974 0.2112
vn -0.9532 -0.0625 -0.2958
vn -0.9876 -0.0169 -0.1561
vn -0.9572 -0.1206 -0.2631
vn -0.8699 -0.1942 -0.4534
vn -0.9846 -0.0935 -0.1479
vn -0.8588 -0.0552 -0.5093
vn -0.5451 -0.1349 -0.8275
vn -0.7243 0.6848 -0.0804
vn -0.8362 0.4384 -0.3295
vn -0.9136 0.2781 -0.2966
vn -0.7304 -0.1886 -0.6564
vn -0.7659 0.4599 -0.4492
vn -0.8227 0.5657 -0.0563
vn -0.5440 0.6769 -0.4958
vn -0.7737 0.4680 -0.4270
vn -0.5287 0.1330 -0.8383
vn -0.8314 0.4550 0.3192
vn -0.5271 -0.1288 0.8400
vn -0.3195 -0.0980 0.9425
vn 0.5269 0.0801 0.8461
vn 0.3911 -0.0082 -0.9203
vn 0.5159 -0.0820 -0.8527
vn -0.0015 0.4748 -0.8801
vn 0.8000 0.5045 0.3248
vn 0.7351 0.2411 0.6337
vn 0.9327 -0.0050 0.3605
vn 0.7421 0.3974 0.5397
vn -0.9473 -0.3185 0.0346
vn 0.9206 0.0003 -0.3906
vn 0.6962 -0.6575 -0.2882
vn 0.9103 0.1181 -0.3966
vn 0.9236 -0.0072 -0.3832
vn 0.9228 -0.0074 -0.3853
vn 0.9232 -0.0072 -0.3844
vn 0.3835 0.0065 -0.9235
usemtl None
s off
f 34/1/1 10/2/1 2/3/1
f 44/4/2 43/5/2 56/6/2 52/7/2
f 45/8/3 37/9/3 51/10/3 57/11/3
f 46/12/4 45/13/4 57/14/4 58/15/4
f 47/16/5 46/12/5 58/15/5 59/17/5
f 48/18/6 38/19/6 52/7/6 60/20/6
f 49/21/7 48/18/7 60/20/7 61/22/7
f 38/19/8 44/4/8 52/7/8
f 20/23/9 4/24/9 28/25/9
f 28/25/10 4/24/10 11/26/10 31/27/10
f 31/27/11 11/26/11 10/2/11 34/1/11
f 116/28/12 119/29/12 59/17/12 22/30/12
f 16/31/13 33/32/13 36/33/13 6/34/13
f 33/32/14 32/35/14 35/36/14 36/33/14
f 32/35/15 31/27/15 34/1/15 35/36/15
f 15/37/16 30/38/16 33/32/16 16/31/16
f 30/38/17 29/39/17 32/35/17 33/32/17
f 29/39/18 28/25/18 31/27/18 32/35/18
f 15/40/19 55/41/19 120/42/19 115/43/19
f 22/44/20 21/45/20 29/39/20 30/38/20
f 21/45/21 20/23/21 28/25/21 29/39/21
f 39/46/22 49/21/22 61/22/22 50/47/22
f 68/48/23 47/16/23 118/49/23 122/50/23
f 6/34/24 36/33/24 26/51/24
f 36/33/25 35/36/25 27/52/25 26/51/25
f 35/36/26 34/1/26 2/3/26 27/52/26
f 70/53/27 49/21/27 39/46/27 71/54/27
f 69/55/28 48/18/28 49/21/28 70/53/28
f 62/56/29 38/19/29 48/18/29 69/55/29
f 67/57/30 46/12/30 47/16/30 68/48/30
f 66/58/31 45/13/31 46/12/31 67/57/31
f 64/59/32 43/5/32 44/4/32 65/60/32
f 63/61/33 42/62/33 43/5/33 64/59/33
f 118/49/34 47/16/34 59/17/34 119/29/34
f 37/9/35 94/63/35 87/64/35
f 37/9/36 87/64/36 89/65/36 41/66/36
f 41/66/37 89/65/37 88/67/37 40/68/37
f 105/69/38 68/48/38 122/50/38 125/70/38
f 65/60/39 44/4/39 38/19/39 62/56/39
f 115/43/40 116/28/40 22/44/40 30/38/40 15/37/40
f 42/62/41 117/71/41 120/42/41 55/41/41
f 11/72/42 54/73/42 53/74/42 10/75/42
f 4/76/43 51/10/43 54/73/43 11/72/43
f 6/77/44 26/78/44 60/20/44 52/7/44
f 16/79/45 56/6/45 55/41/45 15/40/45
f 6/77/46 52/7/46 56/6/46 16/79/46
f 10/75/47 53/74/47 50/47/47 2/80/47
f 21/81/48 58/15/48 57/14/48 20/82/48
f 22/30/49 59/17/49 58/15/49 21/81/49
f 26/78/50 27/83/50 61/22/50 60/20/50
f 2/80/51 50/47/51 61/22/51 27/83/51
f 20/84/52 57/11/52 51/10/52 4/76/52
f 43/5/53 42/62/53 55/41/53 56/6/53
f 121/85/54 117/71/54 42/62/54 63/61/54
f 37/9/55 41/66/55 54/73/55 51/10/55
f 41/66/56 40/68/56 53/74/56 54/73/56
f 40/68/57 39/46/57 50/47/57 53/74/57
f 102/86/58 65/60/58 62/56/58 100/87/58
f 126/88/59 121/85/59 63/61/59 101/89/59
f 74/90/60 85/91/60 86/92/60 91/93/60
f 75/94/61 74/90/61 91/93/61 92/95/61
f 82/96/62 105/69/62 125/70/62 123/97/62
f 101/89/63 63/61/63 64/59/63 102/86/63
f 102/86/64 64/59/64 65/60/64
f 103/98/65 66/58/65 67/57/65 104/99/65
f 104/99/66 67/57/66 68/48/66 105/69/66
f 100/87/67 62/56/67 69/55/67 106/100/67
f 106/100/68 69/55/68 70/53/68 107/101/68
f 107/101/69 70/53/69 71/54/69 99/102/69
f 24/103/70 84/104/70 85/91/70 23/105/70
f 25/106/71 83/107/71 84/104/71 24/103/71
f 5/108/72 73/109/72 83/107/72 25/106/72
f 18/110/73 81/111/73 82/96/73 17/112/73
f 19/113/74 80/114/74 81/111/74 18/110/74
f 3/115/75 72/116/75 80/114/75 19/113/75
f 13/117/76 78/118/76 79/119/76 12/120/76
f 14/121/77 77/122/77 78/118/77 13/117/77
f 8/123/78 75/94/78 76/124/78 7/125/78
f 9/126/79 74/90/79 75/94/79 8/123/79
f 1/127/80 85/91/80 74/90/80 9/126/80
f 7/125/81 76/124/81 72/128/81 3/129/81
f 114/130/82 124/131/82 77/122/82 14/121/82
f 12/120/83 79/119/83 73/109/83 5/108/83
f 23/105/84 85/91/84 1/127/84
f 91/93/85 86/92/85 96/132/85
f 99/102/86 71/54/86 108/133/86
f 72/128/87 76/124/87 93/134/87 90/135/87
f 76/124/88 75/94/88 92/95/88 93/134/88
f 112/136/89 87/64/89 94/63/89 109/137/89
f 108/133/90 71/54/90 88/67/90 110/138/90
f 110/138/91 88/67/91 89/65/91 111/139/91
f 111/139/92 89/65/92 87/64/92 112/136/92
f 66/140/93 94/63/93 37/9/93 45/8/93
f 90/135/94 93/134/94 98/141/94 95/142/94
f 93/134/95 92/95/95 97/143/95 98/141/95
f 92/95/96 91/93/96 96/132/96 97/143/96
f 109/137/97 94/63/97 66/140/97 103/144/97
f 97/143/98 111/139/98 112/136/98 98/141/98
f 96/132/99 110/138/99 111/139/99 97/143/99
f 86/92/100 108/133/100 110/138/100 96/132/100
f 98/141/101 112/136/101 109/137/101 95/142/101
f 95/142/102 109/137/102 103/144/102 80/145/102
f 85/91/103 99/102/103 108/133/103 86/92/103
f 84/104/104 107/101/104 99/102/104 85/91/104
f 83/107/105 106/100/105 107/101/105 84/104/105
f 73/109/106 100/87/106 106/100/106 83/107/106
f 81/111/107 104/99/107 105/69/107 82/96/107
f 80/114/108 103/98/108 104/99/108 81/111/108
f 90/135/109 95/142/109 80/145/109 72/128/109
f 78/118/110 102/86/110 79/119/110
f 77/122/111 101/89/111 102/86/111 78/118/111
f 124/131/112 126/88/112 101/89/112 77/122/112
f 79/119/113 102/86/113 100/87/113 73/109/113
f 40/68/114 88/67/114 71/54/114 39/46/114
f 124/131/115 114/130/115 113/146/115 123/97/115
f 120/42/116 117/71/116 118/49/116 119/29/116
f 115/43/117 120/42/117 119/29/117 116/28/117
f 117/71/118 121/85/118 122/50/118 118/49/118
f 126/88/119 124/131/119 123/97/119 125/70/119
f 121/85/120 126/88/120 125/70/120 122/50/120
f 17/112/121 82/96/121 123/97/121 113/146/121
