# Blender v2.90.0 OBJ File: 'Basic_Building mats.blend'
# www.blender.org
mtllib groundrock.mtl
o Cube.010_Cube.006
v -0.499063 -0.059830 0.499063
v -0.515437 0.088511 0.437356
v -0.499063 -0.059830 -0.499063
v -0.499063 0.059830 -0.499063
v 0.499063 -0.059830 0.499063
v 0.398180 0.032552 0.518158
v 0.499063 -0.059830 -0.499063
v 0.499063 0.059830 -0.499063
vt 0.803743 0.099091
vt 0.808988 -0.001906
vt 0.885389 0.017795
vt 0.885214 0.099266
vt 0.992715 0.013274
vt 0.987378 0.094570
vt 0.906081 0.089233
vt 0.911419 0.007937
vt 0.885039 0.180737
vt 0.885389 0.262208
vt 0.801873 0.243994
vt 0.803568 0.180562
vt 0.740668 0.172193
vt 0.702625 0.097299
vt 0.992715 0.173291
vt 0.908724 0.174672
vn -0.9980 -0.0627 -0.0075
vn 0.0000 0.0000 -1.0000
vn 0.9036 0.4253 0.0510
vn -0.0371 0.1566 0.9870
vn 0.0000 -1.0000 0.0000
vn 0.0292 0.9996 0.0010
usemtl Material.001
s off
f 1/1/1 2/2/1 4/3/1 3/4/1
f 3/5/2 4/6/2 8/7/2 7/8/2
f 7/9/3 8/10/3 6/11/3 5/12/3
f 5/12/4 6/13/4 2/14/4 1/1/4
f 3/4/5 7/9/5 5/12/5 1/1/5
f 8/7/6 4/6/6 2/15/6 6/16/6
